G04 DesignSpark PCB PRO Gerber Version 10.0 Build 5299*
G04 #@! TF.Part,CustomerPanel*
G04 #@! TF.FileFunction,Legend,Top*
G04 #@! TF.FilePolarity,Positive*
%FSLAX35Y35*%
%MOIN*%
%ADD14C,0.00197*%
%ADD15C,0.00394*%
%ADD17C,0.00500*%
%ADD129C,0.00591*%
%ADD13C,0.00787*%
%ADD19C,0.00800*%
%ADD18C,0.00984*%
%ADD70C,0.01000*%
%ADD142C,0.01181*%
%ADD143C,0.01575*%
G04 #@! TD.AperFunction*
X0Y0D02*
D02*
D13*
X729404Y414417D02*
Y442961D01*
X764837D01*
Y385874D01*
X583154Y409142D02*
G75*
G03*
Y408748I0J-197D01*
G01*
Y409142D02*
G75*
G02*
Y408748I0J-197D01*
G01*
Y409142D02*
X678154D02*
G75*
G03*
Y408748I0J-197D01*
G01*
Y409142D02*
G75*
G02*
Y408748I0J-197D01*
G01*
Y409142D02*
X382865Y409017D02*
G75*
G03*
Y408624I0J-197D01*
G01*
Y409017D02*
G75*
G02*
Y408624I0J-197D01*
G01*
Y409017D02*
X482832D02*
G75*
G03*
Y408624I0J-197D01*
G01*
Y409017D02*
G75*
G02*
Y408624I0J-197D01*
G01*
Y409017D02*
X583154Y408748D02*
G75*
G02*
Y409142I0J197D01*
G01*
X678154Y408748D02*
G75*
G02*
Y409142I0J197D01*
G01*
X382865Y408624D02*
G75*
G02*
Y409017I0J197D01*
G01*
X482832Y408624D02*
G75*
G02*
Y409017I0J197D01*
G01*
X303154Y394211D02*
X273154D01*
X744912Y376303D02*
G75*
G02*
Y376807I0J252D01*
G01*
Y376303D02*
G75*
G02*
Y376807I0J252D01*
G01*
G75*
G02*
Y376303I0J-252D01*
G01*
X109863Y373311D02*
Y352811D01*
X273154Y359211D02*
Y394211D01*
X303154Y359211D02*
Y394211D01*
X303084Y354230D02*
Y359742D01*
X273163D01*
Y348718D01*
X298123D01*
X117361Y352813D02*
X109880D01*
X115370Y346994D02*
X115056Y346364D01*
Y345419D01*
X115370Y344789D01*
X116000Y344474D01*
X116315D01*
X116945Y344789D01*
X117260Y345419D01*
Y346994D01*
X118835D01*
Y344474D01*
X115370Y341640D02*
X115056Y341010D01*
Y340380D01*
X115370Y339750D01*
X116000Y339435D01*
X117890D01*
X118520Y339750D01*
X118835Y340380D01*
Y341010D01*
X118520Y341640D01*
X117890Y341955D01*
X116000D01*
X115370Y341640D01*
X118520Y339750D01*
X264790Y334521D02*
G75*
G02*
Y333797I0J-362D01*
G01*
Y334521D02*
G75*
G02*
Y333797I0J-362D01*
G01*
G75*
G02*
Y334521I0J362D01*
G01*
X261857Y318387D02*
X234298D01*
Y360120D01*
X261857D01*
Y318387D01*
X217409Y274327D02*
X212684D01*
Y285744D01*
X217409D01*
Y274327D01*
X222330Y274130D02*
X218787D01*
X336107Y249211D02*
X335122Y248719D01*
X334630Y247734D01*
Y245766D01*
X335122Y244781D01*
X336107Y244289D01*
X337091Y244781D01*
X337583Y245766D01*
Y247734D01*
X338075Y248719D01*
X339059Y249211D01*
X340044Y248719D01*
X340536Y247734D01*
Y245766D01*
X340044Y244781D01*
X339059Y244289D01*
X340536Y241337D02*
X334630D01*
Y236415D01*
X336599Y233463D02*
X338567D01*
X339552Y232970D01*
X340044Y232478D01*
X340536Y231494D01*
Y230510D01*
X340044Y229526D01*
X339552Y229033D01*
X338567Y228541D01*
X336599D01*
X335615Y229033D01*
X335122Y229526D01*
X334630Y230510D01*
Y231494D01*
X335122Y232478D01*
X335615Y232970D01*
X336599Y233463D01*
X334630Y223128D02*
X340536D01*
Y225589D02*
Y220667D01*
X335122Y209348D02*
X334630Y208364D01*
Y207380D01*
X335122Y206396D01*
X336107Y205904D01*
X339059D01*
X340044Y206396D01*
X340536Y207380D01*
Y208364D01*
X340044Y209348D01*
X339059Y209841D01*
X336107D01*
X335122Y209348D01*
X340044Y206396D01*
X447887Y247961D02*
X446902Y247469D01*
X446410Y246484D01*
Y244516D01*
X446902Y243531D01*
X447887Y243039D01*
X448871Y243531D01*
X449363Y244516D01*
Y246484D01*
X449855Y247469D01*
X450839Y247961D01*
X451824Y247469D01*
X452316Y246484D01*
Y244516D01*
X451824Y243531D01*
X450839Y243039D01*
X452316Y240087D02*
X446410D01*
Y235165D01*
X448379Y232213D02*
X450347D01*
X451331Y231720D01*
X451824Y231228D01*
X452316Y230244D01*
Y229260D01*
X451824Y228276D01*
X451331Y227783D01*
X450347Y227291D01*
X448379D01*
X447394Y227783D01*
X446902Y228276D01*
X446410Y229260D01*
Y230244D01*
X446902Y231228D01*
X447394Y231720D01*
X448379Y232213D01*
X446410Y221878D02*
X452316D01*
Y224339D02*
Y219417D01*
X446410Y207606D02*
Y205638D01*
Y206622D02*
X452316D01*
X451331Y207606D01*
X546107Y247961D02*
X545122Y247469D01*
X544630Y246484D01*
Y244516D01*
X545122Y243531D01*
X546107Y243039D01*
X547091Y243531D01*
X547583Y244516D01*
Y246484D01*
X548075Y247469D01*
X549059Y247961D01*
X550044Y247469D01*
X550536Y246484D01*
Y244516D01*
X550044Y243531D01*
X549059Y243039D01*
X550536Y240087D02*
X544630D01*
Y235165D01*
X546599Y232213D02*
X548567D01*
X549552Y231720D01*
X550044Y231228D01*
X550536Y230244D01*
Y229260D01*
X550044Y228276D01*
X549552Y227783D01*
X548567Y227291D01*
X546599D01*
X545615Y227783D01*
X545122Y228276D01*
X544630Y229260D01*
Y230244D01*
X545122Y231228D01*
X545615Y231720D01*
X546599Y232213D01*
X544630Y221878D02*
X550536D01*
Y224339D02*
Y219417D01*
X544630Y204654D02*
Y208591D01*
X548075Y205146D01*
X549059Y204654D01*
X550044Y205146D01*
X550536Y206130D01*
Y207606D01*
X550044Y208591D01*
X646107Y247961D02*
X645122Y247469D01*
X644630Y246484D01*
Y244516D01*
X645122Y243531D01*
X646107Y243039D01*
X647091Y243531D01*
X647583Y244516D01*
Y246484D01*
X648075Y247469D01*
X649059Y247961D01*
X650044Y247469D01*
X650536Y246484D01*
Y244516D01*
X650044Y243531D01*
X649059Y243039D01*
X650536Y240087D02*
X644630D01*
Y235165D01*
X646599Y232213D02*
X648567D01*
X649552Y231720D01*
X650044Y231228D01*
X650536Y230244D01*
Y229260D01*
X650044Y228276D01*
X649552Y227783D01*
X648567Y227291D01*
X646599D01*
X645615Y227783D01*
X645122Y228276D01*
X644630Y229260D01*
Y230244D01*
X645122Y231228D01*
X645615Y231720D01*
X646599Y232213D01*
X644630Y221878D02*
X650536D01*
Y224339D02*
Y219417D01*
X645122Y208098D02*
X644630Y207114D01*
Y206130D01*
X645122Y205146D01*
X646107Y204654D01*
X647091Y205146D01*
X647583Y206130D01*
Y207114D01*
Y206130D02*
X648075Y205146D01*
X649059Y204654D01*
X650044Y205146D01*
X650536Y206130D01*
Y207114D01*
X650044Y208098D01*
X201460Y245844D02*
Y209230D01*
X164846D01*
Y245844D01*
X201460D01*
X145906Y228563D02*
X151201D01*
Y289154D01*
X140610D01*
Y233859D01*
X112556Y99474D02*
Y101994D01*
X114760Y99789D01*
X115390Y99474D01*
X116020Y99789D01*
X116335Y100419D01*
Y101364D01*
X116020Y101994D01*
X117361Y95244D02*
X109880D01*
X109861Y74744D02*
Y95244D01*
X213154Y74806D02*
Y82188D01*
X216230Y78497D01*
X219306Y82188D01*
Y74806D01*
X220536Y76652D02*
X221151Y75421D01*
X222381Y74806D01*
X224842D01*
X226072Y75421D01*
X226687Y76652D01*
X226072Y77882D01*
X224842Y78497D01*
X222381D01*
X221151Y79112D01*
X220536Y80343D01*
X221151Y81573D01*
X222381Y82188D01*
X224842D01*
X226072Y81573D01*
X226687Y80343D01*
X227918Y74806D02*
X234069Y82188D01*
X227918D02*
X234069Y74806D01*
X239729Y76652D02*
X240344Y75421D01*
X241574Y74806D01*
X244035D01*
X245265Y75421D01*
X245880Y76652D01*
X245265Y77882D01*
X244035Y78497D01*
X241574D01*
X240344Y79112D01*
X239729Y80343D01*
X240344Y81573D01*
X241574Y82188D01*
X244035D01*
X245265Y81573D01*
X245880Y80343D01*
X247111Y74806D02*
Y79728D01*
Y81573D02*
X248292Y74806D02*
Y79728D01*
Y79112D02*
X248907Y79728D01*
X250137D01*
X250752Y79112D01*
Y77267D01*
Y79112D02*
X251368Y79728D01*
X252598D01*
X253213Y79112D01*
Y74806D01*
X254394Y79728D02*
Y72961D01*
Y76652D02*
X255009Y75421D01*
X256240Y74806D01*
X257470D01*
X258700Y75421D01*
X259315Y76652D01*
Y77882D01*
X258700Y79112D01*
X257470Y79728D01*
X256240D01*
X255009Y79112D01*
X254394Y77882D01*
Y76652D01*
X261112Y74806D02*
X260496D01*
Y82188D01*
X267189Y75421D02*
X266574Y74806D01*
X265344D01*
X264114D01*
X262883Y75421D01*
X262268Y76652D01*
Y78497D01*
X262883Y79112D01*
X264114Y79728D01*
X265344D01*
X266574Y79112D01*
X267189Y78497D01*
Y77882D01*
X266574Y77267D01*
X265344Y76652D01*
X264114D01*
X262883Y77267D01*
X262268Y77882D01*
X216230Y62995D02*
Y70377D01*
X213154Y65456D01*
X218075D01*
X219256Y64841D02*
X219872Y63610D01*
X221102Y62995D01*
X223563D01*
X224793Y63610D01*
X225408Y64841D01*
X224793Y66071D01*
X223563Y66686D01*
X221102D01*
X219872Y67301D01*
X219256Y68531D01*
X219872Y69762D01*
X221102Y70377D01*
X223563D01*
X224793Y69762D01*
X225408Y68531D01*
X227254Y62995D02*
X226638D01*
Y70377D01*
X228410Y64841D02*
X229025Y63610D01*
X230256Y62995D01*
X231486D01*
X232716Y63610D01*
X233331Y64841D01*
Y66071D01*
X232716Y67301D01*
X231486Y67917D01*
X230256D01*
X229025Y67301D01*
X228410Y66071D01*
Y64841D01*
X234512Y67917D02*
X237383D01*
X235948Y69147D02*
Y63610D01*
X236563Y62995D01*
X237178D01*
X237793Y63610D01*
X243370Y62995D02*
Y70377D01*
X249522D01*
X248292Y66686D02*
X243370D01*
Y62995D02*
X249522D01*
X250752D02*
X255674Y67917D01*
Y62995D02*
X250752Y67917D01*
X256855D02*
Y61150D01*
Y64841D02*
X257470Y63610D01*
X258700Y62995D01*
X259931D01*
X261161Y63610D01*
X261776Y64841D01*
Y66071D01*
X261161Y67301D01*
X259931Y67917D01*
X258700D01*
X257470Y67301D01*
X256855Y66071D01*
Y64841D01*
X262957Y67301D02*
X264187Y67917D01*
X266033D01*
X267263Y67301D01*
X267878Y66071D01*
Y64226D01*
X267263Y63610D01*
X266033Y62995D01*
X264803D01*
X263572Y63610D01*
X262957Y64226D01*
Y64841D01*
X263572Y65456D01*
X264803Y66071D01*
X266033D01*
X267263Y65456D01*
X267878Y64841D01*
Y64226D02*
Y62995D01*
X269059D02*
Y67917D01*
Y66071D02*
X269675Y67301D01*
X270905Y67917D01*
X272135D01*
X273366Y67301D01*
X273981Y66071D01*
Y62995D01*
X280083Y66071D02*
X279468Y67301D01*
X278238Y67917D01*
X277007D01*
X275777Y67301D01*
X275162Y66071D01*
Y64841D01*
X275777Y63610D01*
X277007Y62995D01*
X278238D01*
X279468Y63610D01*
X280083Y64841D01*
Y62995D02*
Y70377D01*
X286185Y63610D02*
X285570Y62995D01*
X284340D01*
X283110D01*
X281880Y63610D01*
X281264Y64841D01*
Y66686D01*
X281880Y67301D01*
X283110Y67917D01*
X284340D01*
X285570Y67301D01*
X286185Y66686D01*
Y66071D01*
X285570Y65456D01*
X284340Y64841D01*
X283110D01*
X281880Y65456D01*
X281264Y66071D01*
X287367Y62995D02*
Y67917D01*
Y66071D02*
X287982Y67301D01*
X289212Y67917D01*
X290443D01*
X291673Y67301D01*
D02*
D14*
X179404Y86511D02*
X207704D01*
X179404Y86411D02*
X207704D01*
X179404Y86311D02*
X207704D01*
X179404Y86210D02*
X207704Y86211D01*
X179404Y86111D02*
X207704D01*
X179404Y86011D02*
X207704D01*
X179404Y85911D02*
X207704D01*
X179404Y85811D02*
X207704D01*
X179404Y85710D02*
X207704Y85711D01*
X179404Y85611D02*
X207704D01*
X179404Y85511D02*
X207704Y85510D01*
X179404Y85411D02*
X207704D01*
X179404Y85311D02*
X207704D01*
X179404Y85211D02*
X207704Y85211D01*
X179404Y85111D02*
X207704D01*
X179404Y85011D02*
X207704Y85010D01*
X179404Y84911D02*
X207704D01*
X179404Y84811D02*
X207704D01*
X179404Y84710D02*
X207704D01*
X179404Y84611D02*
X207704D01*
X179404Y84511D02*
X207704D01*
X179404Y84411D02*
X207704D01*
X179404Y84311D02*
X207704Y84310D01*
X179404Y84211D02*
X207704D01*
X179404Y84111D02*
X207704D01*
X179404Y84011D02*
X207704Y84011D01*
X179404Y83911D02*
X207704D01*
X179404Y83811D02*
X207704Y83810D01*
X179404Y83711D02*
X207704D01*
X179404Y83611D02*
X207704D01*
X179404Y83511D02*
X207704D01*
X179404Y83411D02*
X207704D01*
X179404Y83311D02*
X207704Y83310D01*
X179404Y83211D02*
X207704D01*
X179404Y83111D02*
X207704D01*
X179404Y83011D02*
X207704D01*
X179404Y82910D02*
X207704Y82911D01*
X179404Y82811D02*
X207704Y82810D01*
X179404Y82711D02*
X207704D01*
X179404Y82611D02*
X207704D01*
X179404Y82511D02*
X207704D01*
X179404Y82410D02*
X207704Y82411D01*
X179404Y82311D02*
X207704D01*
X179404Y82211D02*
X207704D01*
X179404Y82111D02*
X207704D01*
X179404Y82011D02*
X207704D01*
X179404Y81910D02*
X207704Y81911D01*
X179404Y81811D02*
X207704D01*
X179404Y81711D02*
X207704Y81710D01*
X179404Y81611D02*
X207704D01*
X179404Y81511D02*
X207704D01*
X179404Y81410D02*
X207704Y81411D01*
X179404Y81311D02*
X207704D01*
X179404Y81211D02*
X207704Y81210D01*
X179404Y81111D02*
X207704D01*
X179404Y81011D02*
X207704D01*
X179404Y80910D02*
X207704D01*
X179404Y80811D02*
X207704D01*
X179404Y80711D02*
X207704Y80710D01*
X179404Y80611D02*
X207704D01*
X179404Y80511D02*
X207704Y80510D01*
X179404Y80411D02*
X207704D01*
X179404Y80311D02*
X207704D01*
X179404Y80211D02*
X207704Y80211D01*
X179404Y80111D02*
X207704D01*
X179404Y80011D02*
X207704Y80010D01*
X179404Y79911D02*
X207704D01*
X179404Y79811D02*
X207704D01*
X179404Y79711D02*
X207704D01*
X179404Y79611D02*
X207704D01*
X179404Y79511D02*
X207704Y79510D01*
X179404Y79411D02*
X207704D01*
X179404Y79311D02*
X207704D01*
X179404Y79211D02*
X207704D01*
X179404Y79110D02*
X207704Y79111D01*
X179404Y79011D02*
X207704Y79010D01*
X179404Y78911D02*
X207704D01*
X179404Y78811D02*
X207704D01*
X179404Y78711D02*
X207704D01*
X179404Y78610D02*
X207704Y78611D01*
X179404Y78511D02*
X207704D01*
X179404Y78411D02*
X207704D01*
X179404Y78311D02*
X207704D01*
X179404Y78211D02*
X207704D01*
X179404Y78110D02*
X207704Y78111D01*
X179404Y78011D02*
X207704D01*
X179404Y77911D02*
X207704Y77910D01*
X179404Y77811D02*
X207704D01*
X179404Y77711D02*
X207704D01*
X179404Y77610D02*
X207704Y77611D01*
X179404Y77511D02*
X207704D01*
X179404Y77411D02*
X207704Y77410D01*
X179404Y77311D02*
X207704D01*
X179404Y77211D02*
X207704D01*
X179404Y77110D02*
X207704D01*
X179404Y77011D02*
X207704D01*
X179404Y76911D02*
X207704Y76910D01*
X179404Y76811D02*
X207704D01*
X179404Y76711D02*
X207704Y76710D01*
X179404Y76610D02*
X207704D01*
X179404Y76511D02*
X207704D01*
X179404Y76411D02*
X207704Y76411D01*
X179404Y76311D02*
X207704D01*
X179404Y76211D02*
X207704Y76210D01*
X179404Y76111D02*
X207704D01*
X179404Y76011D02*
X182204D01*
X182904D02*
X207704D01*
X179404Y75911D02*
X182104D01*
X183004D02*
X183304Y75911D01*
X184504Y75911D02*
X184804D01*
X186004D02*
X196004D01*
X197204D02*
X207704D01*
X179404Y75811D02*
X182004D01*
X183004D02*
X183304D01*
X184504D02*
X184804D01*
X186004D02*
X196004D01*
X197204D02*
X207704D01*
X197204Y75711D02*
X207704Y75710D01*
X179404Y75711D02*
X182004Y75711D01*
X184504Y75711D02*
X184804Y75711D01*
X186004Y75711D02*
X196004Y75710D01*
X183004D02*
X183304Y75711D01*
X179404Y75611D02*
X182004D01*
X183104D02*
X183304D01*
X184504D02*
X184804D01*
X186004D02*
X196004D01*
X197204D02*
X207704D01*
X179404Y75511D02*
X182004Y75510D01*
X183104Y75511D02*
X183304Y75510D01*
X184504Y75511D02*
X184804Y75510D01*
X186004Y75511D02*
X196004D01*
X197204Y75510D02*
X207704Y75511D01*
X179404Y75411D02*
X182004D01*
X183004D02*
X183304Y75411D01*
X184504Y75411D02*
X184804D01*
X186004D02*
X196004D01*
X197204D02*
X207704D01*
X184504Y75311D02*
X185104D01*
X186004D02*
X196304D01*
X197204D02*
X207704D01*
X179404Y75310D02*
X182104Y75311D01*
X183004Y75310D02*
X183604Y75311D01*
X197204Y75211D02*
X207704Y75210D01*
X179404Y75211D02*
X182204D01*
X184504D02*
X185104Y75210D01*
X186004Y75211D02*
X196304Y75210D01*
X182904D02*
X183604D01*
X179404Y75111D02*
X183604D01*
X184504D02*
X185104D01*
X186004D02*
X196304D01*
X197204D02*
X207704D01*
X179404Y75011D02*
X183604D01*
X184504D02*
X185104D01*
X186004D02*
X196304D01*
X197204Y75010D02*
X207704Y75011D01*
X179404Y74911D02*
X183604D01*
X184504D02*
X185104D01*
X186004D02*
X196304D01*
X197204D02*
X207704D01*
X184504Y74811D02*
X185104D01*
X186004D02*
X187404D01*
X191704D02*
X192104D01*
X192704D02*
X193704D01*
X195004D02*
X196304D01*
X197204D02*
X207704D01*
X179404Y74810D02*
X183604Y74811D01*
X188504Y74810D02*
X190504D01*
X191904Y74711D02*
X192004Y74710D01*
X197204Y74711D02*
X207704Y74710D01*
X179404Y74711D02*
X181804Y74710D01*
X184504Y74711D02*
X185104Y74710D01*
X186004Y74711D02*
X187104D01*
X188804D02*
X190304D01*
X183004Y74710D02*
X183604D01*
X192704D02*
X193504Y74711D01*
X195304Y74710D02*
X196304D01*
X179404Y74611D02*
X181804D01*
X183004D02*
X183604D01*
X184504D02*
X185104D01*
X186004D02*
X187004D01*
X188904D02*
X190104D01*
X192704D02*
X193404D01*
X195404D02*
X196304D01*
X197204D02*
X207704D01*
X183004Y74511D02*
X183604Y74511D01*
X189004Y74511D02*
X190104D01*
X179404Y74511D02*
X181804D01*
X184504D02*
X185104D01*
X186004D02*
X186904D01*
X192704D02*
X193204D01*
X195504D02*
X196304D01*
X197204D02*
X207704D01*
X179404Y74411D02*
X181804D01*
X183004D02*
X183604D01*
X184504D02*
X185104D01*
X186004D02*
X186804D01*
X189104D02*
X190004D01*
X192704D02*
X193204D01*
X195604D02*
X196304D01*
X197204D02*
X207704D01*
X194304Y74311D02*
X194504Y74311D01*
X184504D02*
X185104D01*
X186004D02*
X186704Y74311D01*
X187904Y74311D02*
X188004D01*
X192704D02*
X193104D01*
X195704D02*
X196304Y74311D01*
X197204Y74311D02*
X207704Y74311D01*
X179404Y74310D02*
X181804Y74311D01*
X183004Y74310D02*
X183604Y74311D01*
X189204Y74310D02*
X189904Y74311D01*
X191104Y74310D02*
X179404Y74211D02*
X181804D01*
X183004D02*
X183604D01*
X184504D02*
X185104D01*
X186004D02*
X186604D01*
X187704D02*
X188204D01*
X189304D02*
X189903D01*
X190904D02*
X191304D01*
X192504D02*
X193104D01*
X194104D02*
X194704D01*
X195704D02*
X196304D01*
X197204D02*
X207704D01*
X179404Y74111D02*
X182104D01*
X183004D02*
X183604D01*
X184504D02*
X185104D01*
X186004D02*
X186604D01*
X187604D02*
X188304D01*
X189304D02*
X189904D01*
X190804D02*
X191404D01*
X192303D02*
X193104D01*
X194004D02*
X194804Y74110D01*
X195704Y74111D02*
X196304D01*
X197204D02*
X207704Y74110D01*
X183004Y74011D02*
X183604Y74011D01*
X179404D02*
X182104D01*
X184504D02*
X185104D01*
X186004D02*
X186604D01*
X187504D02*
X188404D01*
X189304D02*
X189904D01*
X190804D02*
X191404D01*
X192304D02*
X193104D01*
X194004D02*
X194804D01*
X195704D02*
X196304D01*
X197204D02*
X207704D01*
X179404Y73911D02*
X182104D01*
X183004D02*
X183604D01*
X184504D02*
X185104D01*
X186004D02*
X186504D01*
X187504D02*
X188404D01*
X189404D02*
X189904Y73910D01*
X190804Y73911D02*
X191404Y73910D01*
X192304Y73911D02*
X193104D01*
X193904D02*
X194904D01*
X195804D02*
X196304D01*
X197204D02*
X207704D01*
X195804Y73811D02*
X196304Y73811D01*
X184504Y73811D02*
X185104D01*
X189404D02*
X189904D01*
X192304D02*
X193104D01*
X179404Y73810D02*
X182104Y73811D01*
X183004Y73810D02*
X183604Y73811D01*
X186004Y73810D02*
X186504D01*
X190804D02*
X191404Y73811D01*
X193904Y73810D02*
X194304Y73811D01*
X197204Y73810D02*
X207704Y73811D01*
X179404Y73711D02*
X182104D01*
X183004D02*
X183604D01*
X184504D02*
X185104D01*
X186004D02*
X186504D01*
X189404D02*
X189903D01*
X190903D02*
X191304D01*
X192304D02*
X193904D01*
X195804D02*
X196304D01*
X197204D02*
X207704D01*
X179404Y73611D02*
X182104D01*
X183004D02*
X183604D01*
X184504D02*
X185104D01*
X186004D02*
X186504D01*
X189404D02*
X189904D01*
X192204D02*
X193604D01*
X197204D02*
X207704Y73610D01*
X195804D02*
X196304D01*
X179404Y73511D02*
X182104D01*
X183004D02*
X183604D01*
X184504D02*
X185104D01*
X186004D02*
X186504D01*
X189404D02*
X190004D01*
X192204D02*
X193504D01*
X195804D02*
X196304D01*
X197204D02*
X207704D01*
X179404Y73411D02*
X182104D01*
X183004D02*
X183604D01*
X184504D02*
X185104D01*
X186004D02*
X186504D01*
X192104D02*
X193304D01*
X195804D02*
X196304D01*
X197204D02*
X207704D01*
X189404Y73410D02*
X190104Y73411D01*
X192004Y73311D02*
X193204Y73311D01*
X194804Y73311D02*
X194904Y73310D01*
X195804Y73311D02*
X196304Y73310D01*
X179404Y73311D02*
X182104D01*
X184504D02*
X185104D01*
X189404D02*
X190204D01*
X183004Y73310D02*
X183604Y73311D01*
X186004Y73310D02*
X186504D01*
X197204D02*
X207704Y73311D01*
X179404Y73211D02*
X182104D01*
X183004D02*
X183604D01*
X184504D02*
X185104D01*
X186004D02*
X186504D01*
X187404D02*
X190204D01*
X191904D02*
X193104D01*
X194404D02*
X194904D01*
X195804D02*
X196304D01*
X197204D02*
X207704D01*
X194204Y73111D02*
X194904Y73111D01*
X179404D02*
X182104D01*
X183004D02*
X183604D01*
X184504D02*
X185104D01*
X186004D02*
X186504D01*
X187404D02*
X190104D01*
X191604D02*
X193104D01*
X197204D02*
X207704Y73110D01*
X195804D02*
X196304D01*
X179404Y73011D02*
X182104D01*
X183004D02*
X183604D01*
X184504D02*
X185104D01*
X186004D02*
X186504D01*
X187404D02*
X188604D01*
X189404D02*
X190004D01*
X190904D02*
X193004D01*
X194004D02*
X194904D01*
X195804D02*
X196304D01*
X197204D02*
X207704D01*
X179404Y72911D02*
X182104D01*
X183004D02*
X183604D01*
X184504D02*
X185104Y72910D01*
X186004Y72911D02*
X186504D01*
X187504D02*
X188604Y72910D01*
X194004Y72911D02*
X194904D01*
X195804D02*
X196304Y72910D01*
X189404D02*
X190004Y72911D01*
X191404Y72910D02*
X193004D01*
X197204D02*
X207704Y72911D01*
X184504Y72811D02*
X185104D01*
X189404D02*
X190004Y72811D01*
X192104Y72811D02*
X193004Y72810D01*
X179404D02*
X182104Y72811D01*
X183004Y72810D02*
X183604Y72811D01*
X186004Y72810D02*
X186504D01*
X187504D02*
X188604D01*
X193904D02*
X194704Y72811D01*
X195804Y72810D02*
X196304D01*
X197204D02*
X207704D01*
X179404Y72711D02*
X182104D01*
X183004D02*
X183604D01*
X184504D02*
X185104D01*
X186004D02*
X186603D01*
X189304D02*
X190004D01*
X192304D02*
X193004D01*
X194004D02*
X194604D01*
X195804D02*
X196304D01*
X197204Y72710D02*
X207704Y72711D01*
X187604Y72710D02*
X188504Y72711D01*
X179404Y72611D02*
X182104D01*
X183004D02*
X183604D01*
X184504D02*
X185104D01*
X186004D02*
X186604Y72611D01*
X187704Y72611D02*
X188404D01*
X189304D02*
X190004D01*
X192504D02*
X193004D01*
X194004D02*
X194504D01*
X195804D02*
X196304D01*
X197204D02*
X207704D01*
X179404Y72511D02*
X182104D01*
X183004D02*
X183604D01*
X184504D02*
X185104D01*
X186004D02*
X186704D01*
X189304D02*
X190104D01*
X192604D02*
X193004D01*
X195804D02*
X196304D01*
X197204D02*
X207704D01*
X183004Y72411D02*
X183604Y72411D01*
X197204Y72411D02*
X207704Y72410D01*
X179404Y72411D02*
X182104D01*
X184504D02*
X185104Y72410D01*
X186004Y72411D02*
X186704D01*
X192604D02*
X193104D01*
X189204Y72410D02*
X190104Y72411D01*
X195804Y72410D02*
X196304D01*
X179404Y72311D02*
X182104D01*
X183004D02*
X183604D01*
X184504D02*
X185104D01*
X186004D02*
X186804D01*
X189104D02*
X189904D01*
X192604D02*
X193104D01*
X195804D02*
X196304D01*
X197204D02*
X207704D01*
X179404Y72211D02*
X182104D01*
X183004D02*
X183604D01*
X184504D02*
X185104D01*
X186004D02*
X186904D01*
X189004D02*
X189903D01*
X190804D02*
X191304D01*
X192704D02*
X193204D01*
X195804D02*
X196304D01*
X197204Y72210D02*
X207704Y72211D01*
X179404Y72111D02*
X182104D01*
X183004D02*
X183604D01*
X184504D02*
X185104D01*
X186004D02*
X187104Y72111D01*
X188804Y72111D02*
X189804D01*
X190704D02*
X191704D01*
X192704D02*
X193304D01*
X194804D02*
X195004D01*
X195804D02*
X196304Y72111D01*
X197204Y72111D02*
X207704D01*
X179404Y72011D02*
X187404D01*
X188604D02*
X189804D01*
X190704D02*
X191804Y72010D01*
X192704Y72011D02*
X193504D01*
X194604D02*
X207704D01*
X179404Y71911D02*
X189804D01*
X190704D02*
X191804D01*
X192704Y71910D02*
X207704D01*
X179404Y71811D02*
X189804D01*
X190904D02*
X191604D01*
X192704D02*
X207704D01*
X179404Y71711D02*
X189804D01*
X192604D02*
X207704D01*
X179404Y71611D02*
X189904D01*
X192604D02*
X207704D01*
X179404Y71511D02*
X189904D01*
X192504D02*
X207704D01*
X192404Y71411D02*
X207704Y71410D01*
X179404Y71411D02*
X190004D01*
X179404Y71311D02*
X190204D01*
X192204D02*
X207704D01*
X191804Y71211D02*
X207704Y71211D01*
X179404D02*
X190604Y71210D01*
X179404Y71111D02*
X207704D01*
X179404Y71010D02*
X207704Y71011D01*
X179404Y70911D02*
X207704Y70910D01*
X179404Y70811D02*
X207704D01*
X179404Y70711D02*
X207704D01*
X179404Y70611D02*
X196504D01*
X197104D02*
X207704D01*
X183904Y70511D02*
X196404Y70511D01*
X197204D02*
X207704Y70511D01*
X179404Y70510D02*
X182904Y70511D01*
X179404Y70411D02*
X182604D01*
X183904D02*
X196304D01*
X197304D02*
X207704D01*
X179404Y70311D02*
X182504D01*
X197304D02*
X207704Y70310D01*
X183904D02*
X196304Y70311D01*
X179404Y70211D02*
X182504Y70211D01*
X183904Y70211D02*
X194404Y70211D01*
X195304Y70211D02*
X196304D01*
X197304D02*
X207704D01*
X179404Y70111D02*
X182404D01*
X183904D02*
X194404D01*
X195304D02*
X196304D01*
X197304D02*
X207704D01*
X183904Y70011D02*
X194404Y70010D01*
X195304Y70011D02*
X196304Y70011D01*
X179404Y70010D02*
X182404Y70011D01*
X197304Y70010D02*
X207704Y70011D01*
X179404Y69911D02*
X182404D01*
X183304D02*
X194404D01*
X195304D02*
X196304D01*
X197304D02*
X207704D01*
X179404Y69811D02*
X182404Y69810D01*
X183304Y69811D02*
X194404D01*
X197204D02*
X207704Y69810D01*
X195304D02*
X196404Y69811D01*
X179404Y69711D02*
X182404D01*
X183304D02*
X194404D01*
X195304D02*
X196604D01*
X197004D02*
X207704D01*
X179404Y69611D02*
X182404D01*
X195304D02*
X207704D01*
X183304Y69610D02*
X194404Y69611D01*
X195304Y69511D02*
X207704D01*
X179404Y69511D02*
X182404Y69511D01*
X183304Y69511D02*
X194404Y69510D01*
X179404Y69411D02*
X182404D01*
X183303D02*
X188704D01*
X189804D02*
X191804D01*
X195304D02*
X198704D01*
X199804D02*
X202404D01*
X203404D02*
X207704D01*
X192904Y69410D02*
X194404Y69411D01*
X179404Y69311D02*
X181904Y69310D01*
X187004Y69311D02*
X187304D01*
X188404D02*
X188504Y69310D01*
X193104Y69311D02*
X193904D01*
X196004D02*
X196104Y69310D01*
X197304Y69311D02*
X198404D01*
X202004D02*
X202104D01*
X203604D02*
X207704Y69310D01*
X183904D02*
X184004Y69311D01*
X200104Y69310D02*
X200904Y69310D01*
X185204D02*
X186104Y69311D01*
X190004Y69310D02*
X191504Y69310D01*
X179404Y69211D02*
X181904D01*
X183904D02*
X184004D01*
X187004D02*
X187304D01*
X190104D02*
X191304D01*
X196004D02*
X196104D01*
X197304D02*
X198304D01*
X200204D02*
X200904Y69210D01*
X202004Y69211D02*
X203704D02*
X207704D01*
X185204Y69210D02*
X186104Y69211D01*
X193304Y69210D02*
X193904Y69211D01*
X179404Y69111D02*
X181904D01*
X183904D02*
X184004D01*
X185204D02*
X186104Y69110D01*
X187004Y69111D02*
X187304D01*
X190204D02*
X191204D01*
X196004D02*
X196104D01*
X197304D02*
X198204D01*
X200304D02*
X200904D01*
X193404Y69110D02*
X193904Y69111D01*
X203804Y69110D02*
X207704Y69111D01*
X185204Y69011D02*
X186104D01*
X190204D02*
X191104Y69010D01*
X193503Y69011D02*
X193904Y69010D01*
X196004Y69011D02*
X196104D01*
X197304D02*
X198104Y69011D01*
X200404Y69011D02*
X200904D01*
X179404Y69010D02*
X181904Y69011D01*
X183904Y69010D02*
X184004Y69011D01*
X187004Y69010D02*
X187304D01*
X203904D02*
X207704D01*
X179404Y68911D02*
X181904D01*
X183904D02*
X184004D01*
X185204D02*
X186103D01*
X187004D02*
X187304D01*
X190304D02*
X191004D01*
X193604D02*
X193904D01*
X196004D02*
X196104D01*
X197304D02*
X198003D01*
X203904D02*
X207704D01*
X200504Y68910D02*
X200904Y68911D01*
X199004Y68811D02*
X199504D01*
X179404Y68811D02*
X181904D01*
X183904D02*
X184004D01*
X185204D02*
X186104Y68811D01*
X187004Y68811D02*
X187304D01*
X188804D02*
X189304D01*
X190304D02*
X191004D01*
X192104D02*
X192604D01*
X193604D02*
X193904D01*
X196004D02*
X196104D01*
X197304D02*
X197904D01*
X200604D02*
X200904D01*
X202404D02*
X202904D01*
X203904D02*
X207704D01*
X179404Y68711D02*
X182404D01*
X183304D02*
X184304D01*
X187004D02*
X187604D01*
X188704D02*
X189404D01*
X190304D02*
X190904D01*
X191904D02*
X192704D01*
X193604D02*
X194404D01*
X195304D02*
X196404D01*
X197304D02*
X197904D01*
X198904D02*
X199604D01*
X200604D02*
X201204D01*
X202304D02*
X203004D01*
X203904D02*
X207704D01*
X185204Y68710D02*
X186104Y68711D01*
X183304Y68611D02*
X184304D01*
X188604D02*
X189404Y68610D01*
X191904Y68611D02*
X192804Y68611D01*
X179404D02*
X182404D01*
X185204D02*
X186104Y68611D01*
X187004Y68611D02*
X187604Y68611D01*
X190304Y68611D02*
X190904Y68611D01*
X193604Y68611D02*
X194404Y68611D01*
X195304Y68611D02*
X196404D01*
X197304D02*
X197904D01*
X198804D02*
X199704D01*
X200704D02*
X201204D01*
X202204D02*
X203004Y68611D01*
X203904Y68610D02*
X207704D01*
X179404Y68511D02*
X182404Y68511D01*
X183304Y68511D02*
X184304D01*
X185204D02*
X186104D01*
X187004D02*
X187604D01*
X188504D02*
X189404D01*
X190304D02*
X190904D01*
X191803D02*
X192804D01*
X193604D02*
X194404D01*
X195304D02*
X196404D01*
X197304D02*
X197804D01*
X198804D02*
X199704D01*
X200704D02*
X201204D01*
X202104D02*
X203004D01*
X203904D02*
X207704D01*
X179404Y68411D02*
X182404D01*
X185204D02*
X186103D01*
X187004D02*
X187604Y68410D01*
X188504Y68411D02*
X189404D01*
X190304D02*
X190804D01*
X191804D02*
X192804D01*
X193604D02*
X194404D01*
X195304D02*
X196404D01*
X197304D02*
X197804D01*
X198704D02*
X199804D01*
X200704D02*
X201204D01*
X202104D02*
X203104D01*
X203904D02*
X207704D01*
X183304Y68410D02*
X184304D01*
X183304Y68311D02*
X184304Y68311D01*
X203904Y68311D02*
X207704Y68311D01*
X179404D02*
X182404D01*
X185204D02*
X186104D01*
X187004D02*
X187604Y68311D01*
X188504Y68311D02*
X189404D01*
X190304D02*
X190804D01*
X191804D02*
X192804D01*
X193604D02*
X194404D01*
X195304D02*
X196404D01*
X197304D02*
X197804D01*
X198704D02*
X199804D01*
X200704D02*
X201204D01*
X202104D02*
X203104D01*
X179404Y68211D02*
X182404Y68210D01*
X183304Y68211D02*
X184304D01*
X187004D02*
X187604D01*
X190304D02*
X190804D01*
X191704D02*
X194404D01*
X195304D02*
X196404D01*
X197304D02*
X197804D01*
X198704D02*
X199804D01*
X200704D02*
X201204D01*
X202104D02*
X203104D01*
X203904D02*
X207704D01*
X185204Y68210D02*
X186104Y68211D01*
X188504Y68210D02*
X189404Y68211D01*
X183304Y68111D02*
X184304D01*
X179404Y68111D02*
X182404D01*
X185204D02*
X186104D01*
X187004D02*
X187604Y68111D01*
X188504Y68111D02*
X189404Y68110D01*
X190304Y68111D02*
X190804D01*
X197304D02*
X197804D01*
X200704D02*
X201204D01*
X202104D02*
X203104D01*
X191704Y68110D02*
X194404Y68111D01*
X195304Y68110D02*
X196404Y68111D01*
X198704Y68110D02*
X199804D01*
X203904D02*
X207704D01*
X179404Y68011D02*
X182404D01*
X183304D02*
X184304D01*
X185204D02*
X186104D01*
X187004D02*
X187604D01*
X188503D02*
X189404D01*
X190304D02*
X190804D01*
X191704D02*
X194404D01*
X195304D02*
X196404D01*
X197304D02*
X197804D01*
X198704D02*
X199804D01*
X200704D02*
X201204D01*
X202104D02*
X203104D01*
X203904D02*
X207704D01*
X179404Y67911D02*
X182404D01*
X185204D02*
X186103D01*
X187004D02*
X187604Y67910D01*
X188504Y67911D02*
X189404D01*
X190304D02*
X190804D01*
X191704D02*
X194404Y67910D01*
X195304Y67911D02*
X196404D01*
X197304D02*
X197804D01*
X198704D02*
X199804D01*
X200704D02*
X201204D01*
X202104D02*
X203104D01*
X203904D02*
X207704D01*
X183304Y67910D02*
X184304D01*
X183304Y67811D02*
X184304Y67811D01*
X179404D02*
X182404D01*
X185204D02*
X186104D01*
X187004D02*
X187604D01*
X188504D02*
X189404D01*
X190304D02*
X190804D01*
X191704D02*
X194404D01*
X195304D02*
X196404D01*
X197304D02*
X197804D01*
X198704D02*
X199804D01*
X200704D02*
X201204D01*
X202104D02*
X203104D01*
X203904D02*
X207704D01*
X179404Y67711D02*
X182404Y67710D01*
X183304Y67711D02*
X184304D01*
X187004D02*
X187604D01*
X190304D02*
X190804D01*
X193604D02*
X194404D01*
X195304D02*
X196404D01*
X197304D02*
X197804D01*
X200704D02*
X201204D01*
X202104D02*
X203104D01*
X203904D02*
X207704D01*
X185204Y67710D02*
X186104Y67711D01*
X188504Y67710D02*
X189404Y67711D01*
X191804Y67710D02*
X192904Y67711D01*
X198704Y67710D02*
X199804Y67711D01*
X183304Y67611D02*
X184304D01*
X179404Y67611D02*
X182404D01*
X185204D02*
X186104D01*
X187004D02*
X187604Y67611D01*
X188504Y67611D02*
X189404D01*
X190304D02*
X190804D01*
X191804D02*
X192804D01*
X193604D02*
X194404Y67610D01*
X197304Y67611D02*
X197804D01*
X198704D02*
X199804Y67610D01*
X200704Y67611D02*
X201204D01*
X202104D02*
X203104Y67610D01*
X195304D02*
X196404Y67611D01*
X203904Y67610D02*
X207704D01*
X179404Y67511D02*
X182404Y67510D01*
X183304Y67511D02*
X184304D01*
X185203D02*
X186104D01*
X187004D02*
X187604D01*
X188503D02*
X189404D01*
X190304D02*
X190904D01*
X191803D02*
X192803D01*
X193604D02*
X194404D01*
X195304D02*
X196404D01*
X197304D02*
X197804D01*
X198804D02*
X199704D01*
X200704D02*
X201204D01*
X202104D02*
X203104D01*
X203904D02*
X207704D01*
X185204Y67411D02*
X186103Y67411D01*
X188504Y67411D02*
X189404Y67411D01*
X179404D02*
X182404Y67411D01*
X187004Y67411D02*
X187604Y67410D01*
X190304Y67411D02*
X190904Y67410D01*
X193604Y67411D02*
X194404Y67410D01*
X195304Y67411D02*
X196404D01*
X197304D02*
X197804D01*
X198804D02*
X199704D01*
X200704D02*
X201204D01*
X202104D02*
X203104D01*
X203904D02*
X207704D01*
X183304Y67410D02*
X184304D01*
X191904D02*
X192804Y67411D01*
X179404Y67311D02*
X182404D01*
X185204D02*
X186004D01*
X187004D02*
X187604D01*
X188504D02*
X189404D01*
X190304D02*
X190904Y67310D01*
X191904Y67311D02*
X192704D01*
X193604D02*
X194404D01*
X195304D02*
X196404D01*
X197304D02*
X197904D01*
X198904D02*
X199604D01*
X200604D02*
X201204D01*
X202104D02*
X203104D01*
X203904D02*
X207704D01*
X183304Y67310D02*
X184304Y67311D01*
X183304Y67211D02*
X184304D01*
X185304D02*
X185804D01*
X190304D02*
X191004Y67210D01*
X192004Y67211D02*
X192604D01*
X193504D02*
X194404Y67210D01*
X195504Y67211D02*
X196404D01*
X197304D02*
X197904D01*
X199004D02*
X199504D01*
X200604D02*
X201204D01*
X202104D02*
X203104D01*
X203904D02*
X207704D01*
X179404Y67210D02*
X182404D01*
X187004D02*
X187604Y67211D01*
X188504Y67210D02*
X189404Y67211D01*
X200504Y67111D02*
X201204Y67111D01*
X179404D02*
X182404D01*
X183304D02*
X184304Y67111D01*
X187004Y67111D02*
X187604Y67111D01*
X188504Y67111D02*
X189404Y67110D01*
X190304Y67111D02*
X191004Y67110D01*
X193504Y67111D02*
X194404Y67110D01*
X197304Y67111D02*
X198004D01*
X202104D02*
X203104Y67110D01*
X185404D02*
X185604Y67111D01*
X192204Y67110D02*
X192404Y67111D01*
X196004Y67110D02*
X196404Y67111D01*
X199104Y67110D02*
X199304D01*
X203904D02*
X207704D01*
X179404Y67011D02*
X182404Y67010D01*
X183304Y67011D02*
X184404D01*
X187004D02*
X187604D01*
X188503D02*
X189404D01*
X190304D02*
X191104D01*
X193404D02*
X194404D01*
X196004D02*
X196404D01*
X197304D02*
X198004D01*
X200504D02*
X201204D01*
X202104D02*
X203104D01*
X203904D02*
X207704D01*
X188504Y66911D02*
X189404Y66911D01*
X193304Y66911D02*
X194504Y66911D01*
X200404Y66911D02*
X201204Y66911D01*
X179404D02*
X182404Y66911D01*
X183304Y66911D02*
X184404D01*
X187004D02*
X187604D01*
X190304D02*
X191204D01*
X196004D02*
X196404D01*
X197304D02*
X198104Y66911D01*
X202104Y66911D02*
X203104D01*
X203904D02*
X207704D01*
X179404Y66811D02*
X182404D01*
X187004D02*
X187604Y66810D01*
X188504Y66811D02*
X189404D01*
X190304D02*
X191304D01*
X193204D02*
X194504D01*
X196004D02*
X196404D01*
X197304D02*
X198204D01*
X200304D02*
X201204D01*
X202104D02*
X203104D01*
X203904D02*
X207704D01*
X183304Y66810D02*
X184504Y66811D01*
X186204Y66711D02*
X188504D02*
X189404Y66711D01*
X200104Y66711D02*
X201204Y66711D01*
X203904Y66711D02*
X207704D01*
X183304Y66711D02*
X184604D01*
X193104D02*
X194704D01*
X196004D02*
X196404D01*
X202104D02*
X203104D01*
X179404Y66710D02*
X182404Y66711D01*
X187004Y66710D02*
X187604Y66711D01*
X190304Y66710D02*
X191404Y66711D01*
X197304Y66710D02*
X198404D01*
X192904Y66611D02*
X198604Y66611D01*
X179404D02*
X184804Y66611D01*
X186004Y66611D02*
X191603D01*
X199904D02*
X207704D01*
X179404Y66511D02*
X207704D01*
X179404Y66411D02*
X207704D01*
X179404Y66311D02*
X207704D01*
X179404Y66210D02*
X207704Y66211D01*
X179404Y66111D02*
X207704D01*
X179404Y66011D02*
X207704Y66010D01*
X179404Y65911D02*
X207704D01*
X179404Y65811D02*
X207704D01*
X179404Y65711D02*
X207704Y65711D01*
X179404Y65611D02*
X207704D01*
X179404Y65511D02*
X207704Y65510D01*
X179404Y65411D02*
X207704D01*
X179404Y65311D02*
X207704D01*
X179404Y65210D02*
X207704D01*
X179404Y65111D02*
X207704D01*
X179404Y65011D02*
X188104Y65011D01*
X189304Y65011D02*
X189604D01*
X190804D02*
X207704D01*
X179404Y64911D02*
X188104D01*
X189304D02*
X189604D01*
X190804D02*
X207704D01*
X179404Y64811D02*
X188104Y64811D01*
X189304Y64811D02*
X189604Y64811D01*
X190804Y64811D02*
X207704Y64810D01*
X179404Y64711D02*
X188104D01*
X189304D02*
X189604D01*
X190804D02*
X207704D01*
X179404Y64611D02*
X188104Y64610D01*
X189304Y64611D02*
X189604Y64610D01*
X190804Y64611D02*
X207704D01*
X179404Y64511D02*
X188404D01*
X189304D02*
X189904D01*
X190804D02*
X207704Y64511D01*
X179404Y64411D02*
X188404D01*
X189304D02*
X189904D01*
X190804D02*
X207704D01*
X179404Y64311D02*
X188404Y64310D01*
X189304Y64311D02*
X189904D01*
X190804D02*
X207704Y64310D01*
X179404Y64211D02*
X188404D01*
X189304D02*
X189904D01*
X190804D02*
X207704D01*
X179404Y64111D02*
X188404D01*
X189304D02*
X189903D01*
X190804D02*
X207704D01*
X179404Y64011D02*
X183004D01*
X184004D02*
X186004D01*
X187004D02*
X188404D01*
X189304D02*
X189904D01*
X190804D02*
X207704D01*
X179404Y63911D02*
X182704D01*
X184304D02*
X185704Y63910D01*
X189304Y63911D02*
X189904D01*
X190804D02*
X207704D01*
X187304Y63910D02*
X188404Y63911D01*
X179404Y63811D02*
X182604D01*
X187504D02*
X188404Y63810D01*
X189304Y63811D02*
X189904D01*
X190804D02*
X207704Y63810D01*
X184404D02*
X185504Y63811D01*
X179404Y63711D02*
X182404D01*
X184604D02*
X185404D01*
X187604D02*
X188404D01*
X189304D02*
X189904D01*
X190804D02*
X207704D01*
X184704Y63611D02*
X185304Y63610D01*
X179404Y63611D02*
X182303D01*
X187704D02*
X188404D01*
X189304D02*
X189903D01*
X190804D02*
X207704D01*
X179404Y63511D02*
X182304D01*
X184704D02*
X185204D01*
X187804D02*
X188404D01*
X189304D02*
X189904D01*
X190804D02*
X207704D01*
X183304Y63411D02*
X183704Y63410D01*
X184804Y63411D02*
X185204Y63410D01*
X186304Y63411D02*
X186704Y63410D01*
X187804Y63411D02*
X188404D01*
X189304D02*
X189904D01*
X190804D02*
X207704D01*
X179404Y63410D02*
X182204Y63411D01*
X184804Y63311D02*
X185204Y63311D01*
X179404D02*
X182104D01*
X186204D02*
X186904Y63310D01*
X187804Y63311D02*
X188404Y63310D01*
X189304Y63311D02*
X189904D01*
X190804D02*
X207704Y63310D01*
X183104D02*
X183904D01*
X179404Y63211D02*
X182104D01*
X183104D02*
X183904D01*
X184804D02*
X185203D01*
X186104D02*
X186904D01*
X187904D02*
X188404D01*
X189304D02*
X189904D01*
X190804D02*
X207704D01*
X179404Y63111D02*
X182104D01*
X187904D02*
X188404D01*
X189304D02*
X189904Y63110D01*
X190804Y63111D02*
X207704D01*
X183004Y63110D02*
X184004Y63111D01*
X184804Y63110D02*
X185204Y63111D01*
X186104Y63110D02*
X187004Y63111D01*
X179404Y63011D02*
X182004D01*
X183004D02*
X184004D01*
X184804D02*
X185204D01*
X186004D02*
X186704D01*
X187904D02*
X188404D01*
X189304D02*
X189904D01*
X190804D02*
X207704D01*
X184804Y62911D02*
X186204Y62911D01*
X187904Y62911D02*
X188404D01*
X189304D02*
X189904D01*
X179404Y62910D02*
X182004Y62911D01*
X183004Y62910D02*
X184004Y62911D01*
X190804Y62910D02*
X207704Y62911D01*
X179404Y62811D02*
X182004D01*
X182904D02*
X185904D01*
X187904D02*
X188404D01*
X189304D02*
X189903D01*
X190804D02*
X207704D01*
X179404Y62711D02*
X182004D01*
X187904D02*
X188404D01*
X189304D02*
X189904D01*
X190804D02*
X207704D01*
X182904Y62710D02*
X185704Y62710D01*
X179404Y62611D02*
X182004D01*
X182904D02*
X185504D01*
X187904D02*
X188404D01*
X189304D02*
X189904D01*
X190804D02*
X207704D01*
X179404Y62511D02*
X182004D01*
X182904D02*
X185404D01*
X187904D02*
X188404D01*
X189304D02*
X189904D01*
X190804D02*
X207704D01*
X182904Y62411D02*
X185304Y62411D01*
X186704Y62411D02*
X187004Y62410D01*
X187904Y62411D02*
X188404D01*
X189304D02*
X189904D01*
X179404Y62410D02*
X182004D01*
X190804D02*
X207704Y62411D01*
X179404Y62311D02*
X182004D01*
X182904D02*
X185204D01*
X186404D02*
X187004D01*
X187904D02*
X188404D01*
X189304D02*
X189903D01*
X190804D02*
X207704D01*
X179404Y62211D02*
X182004D01*
X183004D02*
X184004D01*
X184804D02*
X185204Y62210D01*
X187904Y62211D02*
X188404D01*
X189304D02*
X189904D01*
X190804D02*
X207704Y62210D01*
X186204Y62210D02*
X187004Y62211D01*
X183004Y62111D02*
X184004Y62111D01*
X179404D02*
X182004D01*
X184804D02*
X185204Y62111D01*
X186104Y62111D02*
X187004D01*
X187904D02*
X188404D01*
X189304D02*
X189904D01*
X190804D02*
X207704D01*
X179404Y62011D02*
X182104D01*
X183004D02*
X184004D01*
X187904D02*
X188404D01*
X189304D02*
X189904Y62010D01*
X190804Y62011D02*
X207704D01*
X184804Y62010D02*
X185104Y62011D01*
X186104Y62010D02*
X186904Y62011D01*
X183104Y61911D02*
X183904Y61911D01*
X184804Y61911D02*
X185104D01*
X186104D02*
X186804Y61910D01*
X187904Y61911D02*
X188404D01*
X189304D02*
X189904D01*
X179404Y61910D02*
X182104Y61911D01*
X190804Y61910D02*
X207704Y61911D01*
X179404Y61811D02*
X182104D01*
X183204D02*
X183804D01*
X184704D02*
X185104D01*
X186103D02*
X186704D01*
X187904D02*
X188404D01*
X189304D02*
X189903D01*
X190804D02*
X207704D01*
X179404Y61711D02*
X182204D01*
X187904D02*
X188404D01*
X189304D02*
X189904Y61711D01*
X190804Y61711D02*
X207704Y61710D01*
X183404Y61710D02*
X183704Y61711D01*
X184704Y61710D02*
X185204D01*
X186204D02*
X186404Y61711D01*
X179404Y61611D02*
X182304D01*
X184604D02*
X185204Y61610D01*
X187904Y61611D02*
X188404D01*
X189304D02*
X189904D01*
X190804D02*
X207704D01*
X179404Y61511D02*
X182304Y61510D01*
X184604Y61511D02*
X185204D01*
X187904D02*
X188404D01*
X189304D02*
X189904Y61510D01*
X190804Y61511D02*
X207704D01*
X184504Y61411D02*
X185304Y61410D01*
X187904Y61411D02*
X188404D01*
X179404Y61410D02*
X182404Y61411D01*
X189304Y61410D02*
X189904Y61411D01*
X190804Y61410D02*
X207704D01*
X179404Y61311D02*
X182604D01*
X187004D02*
X187103D01*
X188004D02*
X188404D01*
X189304D02*
X189903D01*
X190804D02*
X207704D01*
X184304Y61310D02*
X185404Y61311D01*
X179404Y61211D02*
X182804Y61211D01*
X186804Y61211D02*
X207704Y61210D01*
X184204Y61210D02*
X185504Y61211D01*
X179404Y61111D02*
X183204D01*
X183804D02*
X185904D01*
X186404D02*
X207704D01*
X179404Y61011D02*
X207704Y61010D01*
X179404Y60911D02*
X207704D01*
X179404Y60811D02*
X207704D01*
X179404Y60711D02*
X207704Y60711D01*
X179404Y60611D02*
X207704D01*
X179404Y60511D02*
X207704Y60510D01*
X179404Y60411D02*
X207704D01*
X179404Y60311D02*
X207704D01*
X179404Y60211D02*
X207704D01*
X179404Y60111D02*
X207704D01*
X179404Y60011D02*
X207704Y60010D01*
X179404Y59911D02*
X207704D01*
X179404Y59811D02*
X207704D01*
X179404Y59711D02*
X207704D01*
X179404Y59610D02*
X207704Y59611D01*
X179404Y59511D02*
X207704Y59510D01*
X179404Y59411D02*
X207704D01*
X179404Y59311D02*
X207704D01*
X179404Y59211D02*
X207704D01*
X179404Y59110D02*
X207704Y59111D01*
X179404Y59011D02*
X207704D01*
X179404Y58911D02*
X207704D01*
X179404Y58811D02*
X207704D01*
X179404Y58711D02*
X207704D01*
X179404Y58610D02*
X207704Y58611D01*
X179404Y58511D02*
X207704D01*
X179404Y58411D02*
X207704Y58410D01*
X179404Y58311D02*
X207704D01*
D02*
D15*
X575870Y435323D02*
X581776D02*
X670870D02*
X676776D02*
X375581Y435198D02*
X381487D02*
X475548D02*
X481454D02*
X575870Y434930D02*
X670870D02*
X375581Y434805D02*
X475548D02*
X575870Y430993D02*
X670870D02*
X375581Y430868D02*
X475548D02*
X555595Y427449D02*
X568390D02*
X555595D01*
Y413670D01*
X558548D01*
X568390Y427449D02*
X555595D01*
Y413670D01*
X558548D01*
X578233Y427449D02*
X581776D01*
Y435323D01*
X575870D01*
Y430993D01*
X578233Y427449D02*
X581776D01*
Y435323D01*
X575870D01*
Y430993D01*
X578233Y427449D02*
X581776D02*
X591028D02*
X650595D02*
X663390D02*
X650595D01*
Y413670D01*
X653548D01*
X663390Y427449D02*
X650595D01*
Y413670D01*
X653548D01*
X673233Y427449D02*
X676776D01*
Y435323D01*
X670870D01*
Y430993D01*
X673233Y427449D02*
X676776D01*
Y435323D01*
X670870D01*
Y430993D01*
X673233Y427449D02*
X676776D02*
X686028D02*
X355306Y427324D02*
X368101D02*
X355306D01*
Y413545D01*
X358258D01*
X368101Y427324D02*
X355306D01*
Y413545D01*
X358258D01*
X377943Y427324D02*
X381487D01*
Y435198D01*
X375581D01*
Y430868D01*
X377943Y427324D02*
X381487D01*
Y435198D01*
X375581D01*
Y430868D01*
X377943Y427324D02*
X381487D02*
X390739D02*
X455273D02*
X468068D02*
X455273D01*
Y413545D01*
X458226D01*
X468068Y427324D02*
X455273D01*
Y413545D01*
X458226D01*
X477911Y427324D02*
X481454D01*
Y435198D01*
X475548D01*
Y430868D01*
X477911Y427324D02*
X481454D01*
Y435198D01*
X475548D01*
Y430868D01*
X477911Y427324D02*
X481454D02*
X490706D02*
X555595Y413670D02*
X558548D02*
X568390D02*
X578233D02*
X568390D01*
X578233D02*
X568390D01*
X588075D02*
X591028D01*
Y427449D01*
X578233D01*
X588075Y413670D02*
X591028D01*
Y427449D01*
X578233D01*
X591028Y413670D02*
X650595D02*
X653548D02*
X663390D02*
X673233D02*
X663390D01*
X673233D02*
X663390D01*
X683075D02*
X686028D01*
Y427449D01*
X673233D01*
X683075Y413670D02*
X686028D01*
Y427449D01*
X673233D01*
X686028Y413670D02*
X355306Y413545D02*
X358258D02*
X368101D02*
X377943D02*
X368101D01*
X377943D02*
X368101D01*
X387786D02*
X390739D01*
Y427324D01*
X377943D01*
X387786Y413545D02*
X390739D01*
Y427324D01*
X377943D01*
X390739Y413545D02*
X455273D02*
X458226D02*
X468068D02*
X477911D02*
X468068D01*
X477911D02*
X468068D01*
X487753D02*
X490706D01*
Y427324D01*
X477911D01*
X487753Y413545D02*
X490706D01*
Y427324D01*
X477911D01*
X490706Y413545D02*
X729532Y337597D02*
X768902D01*
Y298227D01*
X729532D01*
Y337597D02*
X768902D01*
Y298227D01*
X729532D01*
X768902Y337597D02*
X729532Y298227D02*
X768902D02*
X729532Y262646D02*
X768902D01*
Y223276D01*
X729532D01*
Y262646D02*
X768902D01*
Y223276D01*
X729532D01*
X768902Y262646D02*
X729532Y223276D02*
X768902D02*
X729532Y187646D02*
X768902D01*
Y148276D01*
X729532D01*
Y187646D02*
X768902D01*
Y148276D01*
X729532D01*
X768902Y187646D02*
X729532Y148276D02*
X768902D02*
X729532Y112646D02*
X768902D01*
Y73276D01*
X729532D01*
Y112646D02*
X768902D01*
Y73276D01*
X729532D01*
X768902Y112646D02*
X729532Y73276D02*
X768902D02*
X354649Y57459D02*
Y390963D01*
X391657D01*
Y57459D01*
X354649D01*
X454649Y57436D02*
Y390940D01*
X491657D01*
Y57436D01*
X454649D01*
X554650Y57436D02*
Y390940D01*
X591658D01*
Y57436D01*
X554650D01*
X654650D02*
Y390940D01*
X691658D01*
Y57436D01*
X654650D01*
D02*
D17*
X350029Y426711D02*
X349404Y426398D01*
X349091Y425773D01*
Y424523D01*
X349404Y423898D01*
X350029Y423585D01*
X350654Y423898D01*
X350967Y424523D01*
Y425773D01*
X351279Y426398D01*
X351904Y426711D01*
X352529Y426398D01*
X352841Y425773D01*
Y424523D01*
X352529Y423898D01*
X351904Y423585D01*
X352841Y421711D02*
X349091D01*
Y418585D01*
Y415148D02*
X352841D01*
Y416711D02*
Y413585D01*
X344029Y426711D02*
X343404Y426398D01*
X343091Y425773D01*
Y424523D01*
X343404Y423898D01*
X344029Y423585D01*
X344654Y423898D01*
X344967Y424523D01*
Y425773D01*
X345279Y426398D01*
X345904Y426711D01*
X346529Y426398D01*
X346841Y425773D01*
Y424523D01*
X346529Y423898D01*
X345904Y423585D01*
X343091Y421711D02*
X346841D01*
Y418585D01*
X344967Y419211D02*
Y421711D01*
X343091D02*
Y418585D01*
X346841Y416711D02*
X343091D01*
Y413585D01*
X448779Y426711D02*
X448154Y426398D01*
X447841Y425773D01*
Y424523D01*
X448154Y423898D01*
X448779Y423585D01*
X449404Y423898D01*
X449717Y424523D01*
Y425773D01*
X450029Y426398D01*
X450654Y426711D01*
X451279Y426398D01*
X451591Y425773D01*
Y424523D01*
X451279Y423898D01*
X450654Y423585D01*
X451591Y421711D02*
X447841D01*
Y418585D01*
Y415148D02*
X451591D01*
Y416711D02*
Y413585D01*
X442779Y426711D02*
X442154Y426398D01*
X441841Y425773D01*
Y424523D01*
X442154Y423898D01*
X442779Y423585D01*
X443404Y423898D01*
X443717Y424523D01*
Y425773D01*
X444029Y426398D01*
X444654Y426711D01*
X445279Y426398D01*
X445591Y425773D01*
Y424523D01*
X445279Y423898D01*
X444654Y423585D01*
X441841Y421711D02*
X445591D01*
Y418585D01*
X443717Y419211D02*
Y421711D01*
X441841D02*
Y418585D01*
X445591Y416711D02*
X441841D01*
Y413585D01*
X548779Y426711D02*
X548154Y426398D01*
X547841Y425773D01*
Y424523D01*
X548154Y423898D01*
X548779Y423585D01*
X549404Y423898D01*
X549717Y424523D01*
Y425773D01*
X550029Y426398D01*
X550654Y426711D01*
X551279Y426398D01*
X551591Y425773D01*
Y424523D01*
X551279Y423898D01*
X550654Y423585D01*
X551591Y421711D02*
X547841D01*
Y418585D01*
Y415148D02*
X551591D01*
Y416711D02*
Y413585D01*
X542779Y426711D02*
X542154Y426398D01*
X541841Y425773D01*
Y424523D01*
X542154Y423898D01*
X542779Y423585D01*
X543404Y423898D01*
X543717Y424523D01*
Y425773D01*
X544029Y426398D01*
X544654Y426711D01*
X545279Y426398D01*
X545591Y425773D01*
Y424523D01*
X545279Y423898D01*
X544654Y423585D01*
X541841Y421711D02*
X545591D01*
Y418585D01*
X543717Y419211D02*
Y421711D01*
X541841D02*
Y418585D01*
X545591Y416711D02*
X541841D01*
Y413585D01*
X645029Y426711D02*
X644404Y426398D01*
X644091Y425773D01*
Y424523D01*
X644404Y423898D01*
X645029Y423585D01*
X645654Y423898D01*
X645967Y424523D01*
Y425773D01*
X646279Y426398D01*
X646904Y426711D01*
X647529Y426398D01*
X647841Y425773D01*
Y424523D01*
X647529Y423898D01*
X646904Y423585D01*
X647841Y421711D02*
X644091D01*
Y418585D01*
Y415148D02*
X647841D01*
Y416711D02*
Y413585D01*
X639029Y426711D02*
X638404Y426398D01*
X638091Y425773D01*
Y424523D01*
X638404Y423898D01*
X639029Y423585D01*
X639654Y423898D01*
X639967Y424523D01*
Y425773D01*
X640279Y426398D01*
X640904Y426711D01*
X641529Y426398D01*
X641841Y425773D01*
Y424523D01*
X641529Y423898D01*
X640904Y423585D01*
X638091Y421711D02*
X641841D01*
Y418585D01*
X639967Y419211D02*
Y421711D01*
X638091D02*
Y418585D01*
X641841Y416711D02*
X638091D01*
Y413585D01*
X289091Y419211D02*
X292841D01*
Y417023D01*
X292529Y416398D01*
X291904Y416085D01*
X291279Y416398D01*
X290967Y417023D01*
Y419211D01*
X290341Y415461D02*
X291591D01*
X292217Y415148D01*
X292529Y414835D01*
X292841Y414211D01*
Y413585D01*
X292529Y412961D01*
X292217Y412648D01*
X291591Y412335D01*
X290341D01*
X289717Y412648D01*
X289404Y412961D01*
X289091Y413585D01*
Y414211D01*
X289404Y414835D01*
X289717Y415148D01*
X290341Y415461D01*
X292841Y411711D02*
X289091Y411398D01*
X290967Y410148D01*
X289091Y408898D01*
X292841Y408585D01*
X289091Y407961D02*
X292841D01*
Y404835D01*
X290967Y405461D02*
Y407961D01*
X289091D02*
Y404835D01*
Y404211D02*
X292841D01*
Y402023D01*
X292529Y401398D01*
X291904Y401085D01*
X291279Y401398D01*
X290967Y402023D01*
Y404211D01*
Y402023D02*
X289091Y401085D01*
X284029Y419211D02*
X283404Y418898D01*
X283091Y418273D01*
Y417023D01*
X283404Y416398D01*
X284029Y416085D01*
X284654Y416398D01*
X284967Y417023D01*
Y418273D01*
X285279Y418898D01*
X285904Y419211D01*
X286529Y418898D01*
X286841Y418273D01*
Y417023D01*
X286529Y416398D01*
X285904Y416085D01*
X283091Y415461D02*
X286841D01*
Y412335D01*
X284967Y412961D02*
Y415461D01*
X283091D02*
Y412335D01*
Y410148D02*
X286841D01*
Y411711D02*
Y408585D01*
X283091Y406398D02*
X286841D01*
Y407961D02*
Y404835D01*
X283091Y404211D02*
Y402961D01*
Y403585D02*
X286841D01*
Y404211D02*
Y402961D01*
X283091Y402361D02*
X286841D01*
X283091Y399235D01*
X286841D01*
X284654Y396423D02*
Y395485D01*
X284341D01*
X283717Y395798D01*
X283404Y396111D01*
X283091Y396735D01*
Y397361D01*
X283404Y397985D01*
X283717Y398298D01*
X284341Y398611D01*
X285591D01*
X286217Y398298D01*
X286529Y397985D01*
X286841Y397361D01*
Y396735D01*
X286529Y396111D01*
X286217Y395798D01*
X285591Y395485D01*
X260341Y412023D02*
Y410773D01*
Y411398D02*
X264091D01*
Y412023D02*
Y410773D01*
X260967Y404835D02*
X260654Y405148D01*
X260341Y405773D01*
Y406711D01*
X260654Y407335D01*
X260967Y407648D01*
X261591Y407961D01*
X262841D01*
X263467Y407648D01*
X263779Y407335D01*
X264091Y406711D01*
Y405773D01*
X263779Y405148D01*
X263467Y404835D01*
X260341Y402335D02*
Y401085D01*
Y401711D02*
X264091D01*
X263467Y402335D01*
X376904Y411085D02*
X376591Y411711D01*
X375967Y412023D01*
X374717D01*
X374091Y411711D01*
X373779Y411085D01*
X374091Y410461D01*
X374717Y410148D01*
X375967D01*
X376591Y409835D01*
X376904Y409211D01*
X376591Y408585D01*
X375967Y408273D01*
X374717D01*
X374091Y408585D01*
X373779Y409211D01*
X370341Y412023D02*
Y408273D01*
X371904Y410773D01*
X369404D01*
X476904Y411085D02*
X476591Y411711D01*
X475967Y412023D01*
X474717D01*
X474091Y411711D01*
X473779Y411085D01*
X474091Y410461D01*
X474717Y410148D01*
X475967D01*
X476591Y409835D01*
X476904Y409211D01*
X476591Y408585D01*
X475967Y408273D01*
X474717D01*
X474091Y408585D01*
X473779Y409211D01*
X471591Y411711D02*
X470967Y412023D01*
X470341D01*
X469717Y411711D01*
X469404Y411085D01*
X469717Y410461D01*
X470341Y410148D01*
X470967D01*
X470341D02*
X469717Y409835D01*
X469404Y409211D01*
X469717Y408585D01*
X470341Y408273D01*
X470967D01*
X471591Y408585D01*
X576904Y411085D02*
X576591Y411711D01*
X575967Y412023D01*
X574717D01*
X574091Y411711D01*
X573779Y411085D01*
X574091Y410461D01*
X574717Y410148D01*
X575967D01*
X576591Y409835D01*
X576904Y409211D01*
X576591Y408585D01*
X575967Y408273D01*
X574717D01*
X574091Y408585D01*
X573779Y409211D01*
X569404Y412023D02*
X571904D01*
X569717Y409835D01*
X569404Y409211D01*
X569717Y408585D01*
X570341Y408273D01*
X571279D01*
X571904Y408585D01*
X655654D02*
X655341Y409211D01*
X654717Y409523D01*
X653467D01*
X652841Y409211D01*
X652529Y408585D01*
X652841Y407961D01*
X653467Y407648D01*
X654717D01*
X655341Y407335D01*
X655654Y406711D01*
X655341Y406085D01*
X654717Y405773D01*
X653467D01*
X652841Y406085D01*
X652529Y406711D01*
X650029Y409523D02*
X648779D01*
X649404D02*
Y405773D01*
X650029Y406398D01*
X255654Y394211D02*
X190654D01*
Y396711D01*
X193154Y399211D01*
X190654Y401711D01*
Y404211D01*
X255654D01*
Y394211D01*
X304717Y391711D02*
X304404Y391398D01*
X304091Y390773D01*
X304404Y390148D01*
X304717Y389835D01*
X307841D01*
Y389211D01*
Y389835D02*
Y391085D01*
X304404Y386711D02*
X304091Y386085D01*
Y385148D01*
X304404Y384523D01*
X305029Y384211D01*
X305341D01*
X305967Y384523D01*
X306279Y385148D01*
Y386711D01*
X307841D01*
Y384211D01*
X337529Y390461D02*
X336904Y390148D01*
X336591Y389523D01*
Y388273D01*
X336904Y387648D01*
X337529Y387335D01*
X338154Y387648D01*
X338467Y388273D01*
Y389523D01*
X338779Y390148D01*
X339404Y390461D01*
X340029Y390148D01*
X340341Y389523D01*
Y388273D01*
X340029Y387648D01*
X339404Y387335D01*
X337841Y385461D02*
X339091D01*
X339717Y385148D01*
X340029Y384835D01*
X340341Y384211D01*
Y383585D01*
X340029Y382961D01*
X339717Y382648D01*
X339091Y382335D01*
X337841D01*
X337217Y382648D01*
X336904Y382961D01*
X336591Y383585D01*
Y384211D01*
X336904Y384835D01*
X337217Y385148D01*
X337841Y385461D01*
X340341Y380461D02*
X337529D01*
X336904Y380148D01*
X336591Y379523D01*
Y378273D01*
X336904Y377648D01*
X337529Y377335D01*
X340341D01*
X336591Y375461D02*
X340341D01*
X336591Y372335D01*
X340341D01*
X336591Y370461D02*
X340341D01*
Y368585D01*
X340029Y367961D01*
X339717Y367648D01*
X339091Y367335D01*
X337841D01*
X337217Y367648D01*
X336904Y367961D01*
X336591Y368585D01*
Y370461D01*
X336904Y365148D02*
X336591Y364523D01*
Y363898D01*
X336904Y363273D01*
X337529Y362961D01*
X339404D01*
X340029Y363273D01*
X340341Y363898D01*
Y364523D01*
X340029Y365148D01*
X339404Y365461D01*
X337529D01*
X336904Y365148D01*
X340029Y363273D01*
X437529Y389211D02*
X436904Y388898D01*
X436591Y388273D01*
Y387023D01*
X436904Y386398D01*
X437529Y386085D01*
X438154Y386398D01*
X438467Y387023D01*
Y388273D01*
X438779Y388898D01*
X439404Y389211D01*
X440029Y388898D01*
X440341Y388273D01*
Y387023D01*
X440029Y386398D01*
X439404Y386085D01*
X437841Y384211D02*
X439091D01*
X439717Y383898D01*
X440029Y383585D01*
X440341Y382961D01*
Y382335D01*
X440029Y381711D01*
X439717Y381398D01*
X439091Y381085D01*
X437841D01*
X437217Y381398D01*
X436904Y381711D01*
X436591Y382335D01*
Y382961D01*
X436904Y383585D01*
X437217Y383898D01*
X437841Y384211D01*
X440341Y379211D02*
X437529D01*
X436904Y378898D01*
X436591Y378273D01*
Y377023D01*
X436904Y376398D01*
X437529Y376085D01*
X440341D01*
X436591Y374211D02*
X440341D01*
X436591Y371085D01*
X440341D01*
X436591Y369211D02*
X440341D01*
Y367335D01*
X440029Y366711D01*
X439717Y366398D01*
X439091Y366085D01*
X437841D01*
X437217Y366398D01*
X436904Y366711D01*
X436591Y367335D01*
Y369211D01*
Y363585D02*
Y362335D01*
Y362961D02*
X440341D01*
X439717Y363585D01*
X537529Y389211D02*
X536904Y388898D01*
X536591Y388273D01*
Y387023D01*
X536904Y386398D01*
X537529Y386085D01*
X538154Y386398D01*
X538467Y387023D01*
Y388273D01*
X538779Y388898D01*
X539404Y389211D01*
X540029Y388898D01*
X540341Y388273D01*
Y387023D01*
X540029Y386398D01*
X539404Y386085D01*
X537841Y384211D02*
X539091D01*
X539717Y383898D01*
X540029Y383585D01*
X540341Y382961D01*
Y382335D01*
X540029Y381711D01*
X539717Y381398D01*
X539091Y381085D01*
X537841D01*
X537217Y381398D01*
X536904Y381711D01*
X536591Y382335D01*
Y382961D01*
X536904Y383585D01*
X537217Y383898D01*
X537841Y384211D01*
X540341Y379211D02*
X537529D01*
X536904Y378898D01*
X536591Y378273D01*
Y377023D01*
X536904Y376398D01*
X537529Y376085D01*
X540341D01*
X536591Y374211D02*
X540341D01*
X536591Y371085D01*
X540341D01*
X536591Y369211D02*
X540341D01*
Y367335D01*
X540029Y366711D01*
X539717Y366398D01*
X539091Y366085D01*
X537841D01*
X537217Y366398D01*
X536904Y366711D01*
X536591Y367335D01*
Y369211D01*
Y361711D02*
Y364211D01*
X538779Y362023D01*
X539404Y361711D01*
X540029Y362023D01*
X540341Y362648D01*
Y363585D01*
X540029Y364211D01*
X637529Y389211D02*
X636904Y388898D01*
X636591Y388273D01*
Y387023D01*
X636904Y386398D01*
X637529Y386085D01*
X638154Y386398D01*
X638467Y387023D01*
Y388273D01*
X638779Y388898D01*
X639404Y389211D01*
X640029Y388898D01*
X640341Y388273D01*
Y387023D01*
X640029Y386398D01*
X639404Y386085D01*
X637841Y384211D02*
X639091D01*
X639717Y383898D01*
X640029Y383585D01*
X640341Y382961D01*
Y382335D01*
X640029Y381711D01*
X639717Y381398D01*
X639091Y381085D01*
X637841D01*
X637217Y381398D01*
X636904Y381711D01*
X636591Y382335D01*
Y382961D01*
X636904Y383585D01*
X637217Y383898D01*
X637841Y384211D01*
X640341Y379211D02*
X637529D01*
X636904Y378898D01*
X636591Y378273D01*
Y377023D01*
X636904Y376398D01*
X637529Y376085D01*
X640341D01*
X636591Y374211D02*
X640341D01*
X636591Y371085D01*
X640341D01*
X636591Y369211D02*
X640341D01*
Y367335D01*
X640029Y366711D01*
X639717Y366398D01*
X639091Y366085D01*
X637841D01*
X637217Y366398D01*
X636904Y366711D01*
X636591Y367335D01*
Y369211D01*
X636904Y363898D02*
X636591Y363273D01*
Y362648D01*
X636904Y362023D01*
X637529Y361711D01*
X638154Y362023D01*
X638467Y362648D01*
Y363273D01*
Y362648D02*
X638779Y362023D01*
X639404Y361711D01*
X640029Y362023D01*
X640341Y362648D01*
Y363273D01*
X640029Y363898D01*
X761279Y377648D02*
X761591Y377961D01*
X762217Y378273D01*
X763154D01*
X763779Y377961D01*
X764091Y377648D01*
X764404Y377023D01*
Y375773D01*
X764091Y375148D01*
X763779Y374835D01*
X763154Y374523D01*
X762217D01*
X761591Y374835D01*
X761279Y375148D01*
X759404Y378273D02*
Y374523D01*
X756279Y378273D01*
Y374523D01*
X753779Y378273D02*
X752529D01*
X753154D02*
Y374523D01*
X753779Y375148D01*
X624506Y368835D02*
X624194Y368523D01*
X623881Y367898D01*
X624194Y367273D01*
X624506Y366960D01*
X627631D01*
Y366335D01*
Y366960D02*
Y368210D01*
X623881Y363210D02*
Y361960D01*
Y362585D02*
X627631D01*
X627006Y363210D01*
X524199Y367587D02*
X523886Y367275D01*
X523574Y366650D01*
X523886Y366025D01*
X524199Y365712D01*
X527324D01*
Y365087D01*
Y365712D02*
Y366962D01*
X523574Y360087D02*
Y362587D01*
X525761Y360400D01*
X526386Y360087D01*
X527011Y360400D01*
X527324Y361025D01*
Y361962D01*
X527011Y362587D01*
X263756Y359060D02*
X267506D01*
Y356873D01*
X267194Y356248D01*
X266569Y355935D01*
X265944Y356248D01*
X265631Y356873D01*
Y359060D01*
Y356873D02*
X263756Y355935D01*
X267506Y354060D02*
X263756D01*
Y350935D01*
Y348435D02*
Y347185D01*
Y347810D02*
X267506D01*
X266881Y348435D01*
X218154Y349355D02*
Y346855D01*
X423990Y347990D02*
X423677Y347677D01*
X423365Y347052D01*
X423677Y346427D01*
X423990Y346115D01*
X427115D01*
Y345490D01*
Y346115D02*
Y347365D01*
X423677Y342677D02*
X423365Y342052D01*
Y341427D01*
X423677Y340802D01*
X424302Y340490D01*
X424927Y340802D01*
X425240Y341427D01*
Y342052D01*
Y341427D02*
X425552Y340802D01*
X426177Y340490D01*
X426802Y340802D01*
X427115Y341427D01*
Y342052D01*
X426802Y342677D01*
X70241Y347533D02*
G75*
G02*
X75520Y352813I5280J0D01*
G01*
X117878D01*
Y377498D01*
G75*
G02*
X122878Y382498I5000J0D01*
G01*
X162878D01*
G75*
G03*
X167878Y387498I0J5000D01*
G01*
Y426248D01*
G75*
G02*
X174128Y432498I6250J0D01*
G01*
X760654D01*
G75*
G02*
X766904Y426248I0J-6250D01*
G01*
Y53748D01*
G75*
G02*
X760654Y47498I-6250J0D01*
G01*
X125146D01*
G75*
G02*
X117878Y54766I0J7268D01*
G01*
Y95175D01*
X75738D01*
G75*
G02*
X70241Y100672I0J5497D01*
G01*
Y347533D01*
X323648Y347366D02*
X323335Y347053D01*
X323023Y346428D01*
X323335Y345803D01*
X323648Y345491D01*
X326773D01*
Y344866D01*
Y345491D02*
Y346741D01*
X323023Y340803D02*
X326773D01*
X324273Y342366D01*
Y339866D01*
X213154Y346855D02*
X223154D01*
Y331855D01*
X213154D01*
Y346855D01*
X276591Y345773D02*
Y344523D01*
Y345148D02*
X280341D01*
Y345773D02*
Y344523D01*
X276591Y341711D02*
X280341D01*
X276591Y338585D01*
X280341D01*
X276591Y335148D02*
X280341D01*
Y336711D02*
Y333585D01*
X296591Y345461D02*
X300341D01*
Y342335D01*
X298467Y342961D02*
Y345461D01*
X296591D02*
Y342335D01*
Y340461D02*
X300341Y337335D01*
Y340461D02*
X296591Y337335D01*
Y333898D02*
X300341D01*
Y335461D02*
Y332335D01*
X207841Y342961D02*
X211591D01*
Y341085D01*
X211279Y340461D01*
X210967Y340148D01*
X210341Y339835D01*
X209091D01*
X208467Y340148D01*
X208154Y340461D01*
X207841Y341085D01*
Y342961D01*
Y337335D02*
Y336085D01*
Y336711D02*
X211591D01*
X210967Y337335D01*
X218154Y331855D02*
Y329355D01*
X715029Y331711D02*
X714404Y331398D01*
X714091Y330773D01*
Y329523D01*
X714404Y328898D01*
X715029Y328585D01*
X715654Y328898D01*
X715967Y329523D01*
Y330773D01*
X716279Y331398D01*
X716904Y331711D01*
X717529Y331398D01*
X717841Y330773D01*
Y329523D01*
X717529Y328898D01*
X716904Y328585D01*
X715341Y326711D02*
X716591D01*
X717217Y326398D01*
X717529Y326085D01*
X717841Y325461D01*
Y324835D01*
X717529Y324211D01*
X717217Y323898D01*
X716591Y323585D01*
X715341D01*
X714717Y323898D01*
X714404Y324211D01*
X714091Y324835D01*
Y325461D01*
X714404Y326085D01*
X714717Y326398D01*
X715341Y326711D01*
X717841Y321711D02*
X715029D01*
X714404Y321398D01*
X714091Y320773D01*
Y319523D01*
X714404Y318898D01*
X715029Y318585D01*
X717841D01*
X714091Y316711D02*
X717841D01*
X714091Y313585D01*
X717841D01*
X714091Y311711D02*
X717841D01*
Y309835D01*
X717529Y309211D01*
X717217Y308898D01*
X716591Y308585D01*
X715341D01*
X714717Y308898D01*
X714404Y309211D01*
X714091Y309835D01*
Y311711D01*
X714404Y306398D02*
X714091Y305773D01*
Y305148D01*
X714404Y304523D01*
X715029Y304211D01*
X716904D01*
X717529Y304523D01*
X717841Y305148D01*
Y305773D01*
X717529Y306398D01*
X716904Y306711D01*
X715029D01*
X714404Y306398D01*
X717529Y304523D01*
X322841Y321711D02*
Y319211D01*
X321591Y320461D02*
X324091D01*
X313154Y319211D02*
G75*
G02*
X323154Y309211I0J-10000D01*
G01*
G75*
G02*
X313154Y299211I-10000J0D01*
G01*
G75*
G02*
X303154Y309211I0J10000D01*
G01*
G75*
G02*
X313154Y319211I10000J0D01*
G01*
X268154D01*
Y299211D01*
X224717Y306085D02*
X224404Y306398D01*
X224091Y307023D01*
Y307961D01*
X224404Y308585D01*
X224717Y308898D01*
X225341Y309211D01*
X226591D01*
X227217Y308898D01*
X227529Y308585D01*
X227841Y307961D01*
Y307023D01*
X227529Y306398D01*
X227217Y306085D01*
X224091Y303585D02*
Y302335D01*
Y302961D02*
X227841D01*
X227217Y303585D01*
X132366Y306744D02*
X136116D01*
Y304556D01*
X135804Y303931D01*
X135178Y303619D01*
X134554Y303931D01*
X134241Y304556D01*
Y306744D01*
Y304556D02*
X132366Y303619D01*
Y301744D02*
X136116D01*
X132366Y298619D01*
X136116D01*
X132366Y296119D02*
Y294869D01*
Y295494D02*
X136116D01*
X135491Y296119D01*
X313154Y299211D02*
X268154D01*
X224717Y294835D02*
X224404Y295148D01*
X224091Y295773D01*
Y296711D01*
X224404Y297335D01*
X224717Y297648D01*
X225341Y297961D01*
X226591D01*
X227217Y297648D01*
X227529Y297335D01*
X227841Y296711D01*
Y295773D01*
X227529Y295148D01*
X227217Y294835D01*
X224091Y290461D02*
Y292961D01*
X226279Y290773D01*
X226904Y290461D01*
X227529Y290773D01*
X227841Y291398D01*
Y292335D01*
X227529Y292961D01*
X312217Y293585D02*
X311904Y293898D01*
X311591Y294523D01*
Y295461D01*
X311904Y296085D01*
X312217Y296398D01*
X312841Y296711D01*
X314091D01*
X314717Y296398D01*
X315029Y296085D01*
X315341Y295461D01*
Y294523D01*
X315029Y293898D01*
X314717Y293585D01*
X312529Y291711D02*
X313154Y291398D01*
X313467Y290773D01*
Y290148D01*
X313154Y289523D01*
X312529Y289211D01*
X311904Y289523D01*
X311591Y290148D01*
Y290773D01*
X311904Y291398D01*
X312529Y291711D01*
X313467D01*
X314404Y291398D01*
X315029Y290773D01*
X315341Y290148D01*
X765029Y295100D02*
X765341Y295412D01*
X765967Y295725D01*
X766904D01*
X767529Y295412D01*
X767841Y295100D01*
X768154Y294475D01*
Y293225D01*
X767841Y292600D01*
X767529Y292287D01*
X766904Y291975D01*
X765967D01*
X765341Y292287D01*
X765029Y292600D01*
X763154Y295725D02*
Y291975D01*
X760029Y295725D01*
Y291975D01*
X755654Y295725D02*
X758154D01*
X755967Y293537D01*
X755654Y292912D01*
X755967Y292287D01*
X756591Y291975D01*
X757529D01*
X758154Y292287D01*
X156535Y286151D02*
X160285D01*
X158411Y284589D01*
X160285Y283026D01*
X156535D01*
Y276151D02*
X160285D01*
Y274276D01*
X159973Y273651D01*
X159661Y273339D01*
X159035Y273026D01*
X157785D01*
X157161Y273339D01*
X156848Y273651D01*
X156535Y274276D01*
Y276151D01*
Y266151D02*
X160285D01*
Y264276D01*
X159973Y263651D01*
X159661Y263339D01*
X159035Y263026D01*
X157785D01*
X157161Y263339D01*
X156848Y263651D01*
X156535Y264276D01*
Y266151D01*
X157161Y253026D02*
X156848Y253339D01*
X156535Y253964D01*
Y254901D01*
X156848Y255526D01*
X157161Y255839D01*
X157785Y256151D01*
X159035D01*
X159661Y255839D01*
X159973Y255526D01*
X160285Y254901D01*
Y253964D01*
X159973Y253339D01*
X159661Y253026D01*
X202841Y284523D02*
Y283273D01*
Y283898D02*
X206591D01*
Y284523D02*
Y283273D01*
X203467Y277335D02*
X203154Y277648D01*
X202841Y278273D01*
Y279211D01*
X203154Y279835D01*
X203467Y280148D01*
X204091Y280461D01*
X205341D01*
X205967Y280148D01*
X206279Y279835D01*
X206591Y279211D01*
Y278273D01*
X206279Y277648D01*
X205967Y277335D01*
X202841Y272961D02*
Y275461D01*
X205029Y273273D01*
X205654Y272961D01*
X206279Y273273D01*
X206591Y273898D01*
Y274835D01*
X206279Y275461D01*
X153022Y282407D02*
X152397Y282094D01*
X152085Y281470D01*
Y280220D01*
X152397Y279594D01*
X153022Y279282D01*
X153647Y279594D01*
X153960Y280220D01*
Y281470D01*
X154272Y282094D01*
X154897Y282407D01*
X155522Y282094D01*
X155835Y281470D01*
Y280220D01*
X155522Y279594D01*
X154897Y279282D01*
X152085Y271470D02*
Y270220D01*
Y270844D02*
X155835D01*
Y271470D02*
Y270220D01*
X153335Y262407D02*
X154585D01*
X155210Y262094D01*
X155522Y261782D01*
X155835Y261157D01*
Y260532D01*
X155522Y259907D01*
X155210Y259594D01*
X154585Y259282D01*
X153335D01*
X152710Y259594D01*
X152397Y259907D01*
X152085Y260532D01*
Y261157D01*
X152397Y261782D01*
X152710Y262094D01*
X153335Y262407D01*
X152085Y252407D02*
X155835D01*
X153960D02*
Y251470D01*
X155835Y249282D01*
X153960Y251470D02*
X152085Y249282D01*
X206333Y265989D02*
X206020Y266302D01*
X205708Y266927D01*
Y267864D01*
X206020Y268489D01*
X206333Y268802D01*
X206958Y269114D01*
X208208D01*
X208833Y268802D01*
X209146Y268489D01*
X209458Y267864D01*
Y266927D01*
X209146Y266302D01*
X208833Y265989D01*
X206020Y263802D02*
X205708Y263177D01*
Y262552D01*
X206020Y261927D01*
X206646Y261614D01*
X207270Y261927D01*
X207583Y262552D01*
Y263177D01*
Y262552D02*
X207896Y261927D01*
X208520Y261614D01*
X209146Y261927D01*
X209458Y262552D01*
Y263177D01*
X209146Y263802D01*
X132241Y261565D02*
X135991D01*
Y259378D01*
X135679Y258752D01*
X135054Y258440D01*
X134429Y258752D01*
X134116Y259378D01*
Y261565D01*
Y259378D02*
X132241Y258440D01*
Y256565D02*
X135991D01*
X132241Y253440D01*
X135991D01*
X132241Y249065D02*
Y251565D01*
X134429Y249378D01*
X135054Y249065D01*
X135679Y249378D01*
X135991Y250002D01*
Y250940D01*
X135679Y251565D01*
X206458Y255006D02*
X206145Y255319D01*
X205833Y255944D01*
Y256881D01*
X206145Y257506D01*
X206458Y257819D01*
X207083Y258131D01*
X208333D01*
X208958Y257819D01*
X209270Y257506D01*
X209583Y256881D01*
Y255944D01*
X209270Y255319D01*
X208958Y255006D01*
X205833Y251569D02*
X209583D01*
X207083Y253131D01*
Y250631D01*
X715029Y256711D02*
X714404Y256398D01*
X714091Y255773D01*
Y254523D01*
X714404Y253898D01*
X715029Y253585D01*
X715654Y253898D01*
X715967Y254523D01*
Y255773D01*
X716279Y256398D01*
X716904Y256711D01*
X717529Y256398D01*
X717841Y255773D01*
Y254523D01*
X717529Y253898D01*
X716904Y253585D01*
X715341Y251711D02*
X716591D01*
X717217Y251398D01*
X717529Y251085D01*
X717841Y250461D01*
Y249835D01*
X717529Y249211D01*
X717217Y248898D01*
X716591Y248585D01*
X715341D01*
X714717Y248898D01*
X714404Y249211D01*
X714091Y249835D01*
Y250461D01*
X714404Y251085D01*
X714717Y251398D01*
X715341Y251711D01*
X717841Y246711D02*
X715029D01*
X714404Y246398D01*
X714091Y245773D01*
Y244523D01*
X714404Y243898D01*
X715029Y243585D01*
X717841D01*
X714091Y241711D02*
X717841D01*
X714091Y238585D01*
X717841D01*
X714091Y236711D02*
X717841D01*
Y234835D01*
X717529Y234211D01*
X717217Y233898D01*
X716591Y233585D01*
X715341D01*
X714717Y233898D01*
X714404Y234211D01*
X714091Y234835D01*
Y236711D01*
Y231085D02*
Y229835D01*
Y230461D02*
X717841D01*
X717217Y231085D01*
X153647Y243153D02*
Y242215D01*
X153335D01*
X152710Y242528D01*
X152397Y242841D01*
X152085Y243465D01*
Y244091D01*
X152397Y244715D01*
X152710Y245028D01*
X153335Y245341D01*
X154585D01*
X155210Y245028D01*
X155522Y244715D01*
X155835Y244091D01*
Y243465D01*
X155522Y242841D01*
X155210Y242528D01*
X154585Y242215D01*
X155835Y235341D02*
X152085Y233778D01*
X155835Y232215D01*
X225341Y238985D02*
X229091D01*
Y236798D01*
X228778Y236173D01*
X228153Y235860D01*
X227528Y236173D01*
X227216Y236798D01*
Y238985D01*
Y236798D02*
X225341Y235860D01*
Y233985D02*
X229091D01*
X225341Y230860D01*
X229091D01*
X225653Y228673D02*
X225341Y228048D01*
Y227423D01*
X225653Y226798D01*
X226278Y226485D01*
X226903Y226798D01*
X227216Y227423D01*
Y228048D01*
Y227423D02*
X227528Y226798D01*
X228153Y226485D01*
X228778Y226798D01*
X229091Y227423D01*
Y228048D01*
X228778Y228673D01*
X141228Y223120D02*
X140915Y223433D01*
X140603Y224058D01*
Y224996D01*
X140915Y225620D01*
X141228Y225933D01*
X141853Y226246D01*
X143103D01*
X143728Y225933D01*
X144041Y225620D01*
X144353Y224996D01*
Y224058D01*
X144041Y223433D01*
X143728Y223120D01*
X140603Y221246D02*
X144353D01*
X140603Y218120D01*
X144353D01*
X140915Y215933D02*
X140603Y215308D01*
Y214683D01*
X140915Y214058D01*
X141541Y213746D01*
X142165Y214058D01*
X142478Y214683D01*
Y215308D01*
Y214683D02*
X142791Y214058D01*
X143415Y213746D01*
X144041Y214058D01*
X144353Y214683D01*
Y215308D01*
X144041Y215933D01*
X763779Y220148D02*
X764091Y220461D01*
X764717Y220773D01*
X765654D01*
X766279Y220461D01*
X766591Y220148D01*
X766904Y219523D01*
Y218273D01*
X766591Y217648D01*
X766279Y217335D01*
X765654Y217023D01*
X764717D01*
X764091Y217335D01*
X763779Y217648D01*
X761904Y220773D02*
Y217023D01*
X758779Y220773D01*
Y217023D01*
X755341Y220773D02*
Y217023D01*
X756904Y219523D01*
X754404D01*
X204091Y207023D02*
Y205773D01*
Y206398D02*
X207841D01*
Y207023D02*
Y205773D01*
X204717Y199835D02*
X204404Y200148D01*
X204091Y200773D01*
Y201711D01*
X204404Y202335D01*
X204717Y202648D01*
X205341Y202961D01*
X206591D01*
X207217Y202648D01*
X207529Y202335D01*
X207841Y201711D01*
Y200773D01*
X207529Y200148D01*
X207217Y199835D01*
X204404Y197648D02*
X204091Y197023D01*
Y196398D01*
X204404Y195773D01*
X205029Y195461D01*
X205654Y195773D01*
X205967Y196398D01*
Y197023D01*
Y196398D02*
X206279Y195773D01*
X206904Y195461D01*
X207529Y195773D01*
X207841Y196398D01*
Y197023D01*
X207529Y197648D01*
X162235Y196099D02*
X161923Y196412D01*
X161610Y197037D01*
Y197974D01*
X161923Y198599D01*
X162235Y198912D01*
X162860Y199224D01*
X164110D01*
X164735Y198912D01*
X165048Y198599D01*
X165360Y197974D01*
Y197037D01*
X165048Y196412D01*
X164735Y196099D01*
X161923Y194224D02*
X161610Y193599D01*
Y192662D01*
X161923Y192037D01*
X162548Y191724D01*
X162860D01*
X163485Y192037D01*
X163798Y192662D01*
Y194224D01*
X165360D01*
Y191724D01*
X715029Y181711D02*
X714404Y181398D01*
X714091Y180773D01*
Y179523D01*
X714404Y178898D01*
X715029Y178585D01*
X715654Y178898D01*
X715967Y179523D01*
Y180773D01*
X716279Y181398D01*
X716904Y181711D01*
X717529Y181398D01*
X717841Y180773D01*
Y179523D01*
X717529Y178898D01*
X716904Y178585D01*
X715341Y176711D02*
X716591D01*
X717217Y176398D01*
X717529Y176085D01*
X717841Y175461D01*
Y174835D01*
X717529Y174211D01*
X717217Y173898D01*
X716591Y173585D01*
X715341D01*
X714717Y173898D01*
X714404Y174211D01*
X714091Y174835D01*
Y175461D01*
X714404Y176085D01*
X714717Y176398D01*
X715341Y176711D01*
X717841Y171711D02*
X715029D01*
X714404Y171398D01*
X714091Y170773D01*
Y169523D01*
X714404Y168898D01*
X715029Y168585D01*
X717841D01*
X714091Y166711D02*
X717841D01*
X714091Y163585D01*
X717841D01*
X714091Y161711D02*
X717841D01*
Y159835D01*
X717529Y159211D01*
X717217Y158898D01*
X716591Y158585D01*
X715341D01*
X714717Y158898D01*
X714404Y159211D01*
X714091Y159835D01*
Y161711D01*
Y154211D02*
Y156711D01*
X716279Y154523D01*
X716904Y154211D01*
X717529Y154523D01*
X717841Y155148D01*
Y156085D01*
X717529Y156711D01*
X765029Y143898D02*
X765341Y144211D01*
X765967Y144523D01*
X766904D01*
X767529Y144211D01*
X767841Y143898D01*
X768154Y143273D01*
Y142023D01*
X767841Y141398D01*
X767529Y141085D01*
X766904Y140773D01*
X765967D01*
X765341Y141085D01*
X765029Y141398D01*
X763154Y144523D02*
Y140773D01*
X760029Y144523D01*
Y140773D01*
X757217Y144523D02*
X756591Y144211D01*
X755967Y143585D01*
X755654Y142648D01*
Y141711D01*
X755967Y141085D01*
X756591Y140773D01*
X757217D01*
X757841Y141085D01*
X758154Y141711D01*
X757841Y142335D01*
X757217Y142648D01*
X756591D01*
X755967Y142335D01*
X755654Y141711D01*
X345676Y130832D02*
X345051Y130520D01*
X344739Y129895D01*
Y128645D01*
X345051Y128020D01*
X345676Y127707D01*
X346301Y128020D01*
X346614Y128645D01*
Y129895D01*
X346926Y130520D01*
X347551Y130832D01*
X348176Y130520D01*
X348489Y129895D01*
Y128645D01*
X348176Y128020D01*
X347551Y127707D01*
X348489Y125832D02*
X344739D01*
Y122707D01*
Y119270D02*
X348489D01*
Y120832D02*
Y117707D01*
X345676Y115832D02*
X345051Y115520D01*
X344739Y114895D01*
Y113645D01*
X345051Y113020D01*
X345676Y112707D01*
X346301Y113020D01*
X346614Y113645D01*
Y114895D01*
X346926Y115520D01*
X347551Y115832D01*
X348176Y115520D01*
X348489Y114895D01*
Y113645D01*
X348176Y113020D01*
X347551Y112707D01*
X348489Y110832D02*
X344739D01*
Y107707D01*
X345051Y105520D02*
X344739Y104895D01*
Y104270D01*
X345051Y103645D01*
X345676Y103332D01*
X347551D01*
X348176Y103645D01*
X348489Y104270D01*
Y104895D01*
X348176Y105520D01*
X347551Y105832D01*
X345676D01*
X345051Y105520D01*
X348176Y103645D01*
X715029Y106711D02*
X714404Y106398D01*
X714091Y105773D01*
Y104523D01*
X714404Y103898D01*
X715029Y103585D01*
X715654Y103898D01*
X715967Y104523D01*
Y105773D01*
X716279Y106398D01*
X716904Y106711D01*
X717529Y106398D01*
X717841Y105773D01*
Y104523D01*
X717529Y103898D01*
X716904Y103585D01*
X715341Y101711D02*
X716591D01*
X717217Y101398D01*
X717529Y101085D01*
X717841Y100461D01*
Y99835D01*
X717529Y99211D01*
X717217Y98898D01*
X716591Y98585D01*
X715341D01*
X714717Y98898D01*
X714404Y99211D01*
X714091Y99835D01*
Y100461D01*
X714404Y101085D01*
X714717Y101398D01*
X715341Y101711D01*
X717841Y96711D02*
X715029D01*
X714404Y96398D01*
X714091Y95773D01*
Y94523D01*
X714404Y93898D01*
X715029Y93585D01*
X717841D01*
X714091Y91711D02*
X717841D01*
X714091Y88585D01*
X717841D01*
X714091Y86711D02*
X717841D01*
Y84835D01*
X717529Y84211D01*
X717217Y83898D01*
X716591Y83585D01*
X715341D01*
X714717Y83898D01*
X714404Y84211D01*
X714091Y84835D01*
Y86711D01*
X714404Y81398D02*
X714091Y80773D01*
Y80148D01*
X714404Y79523D01*
X715029Y79211D01*
X715654Y79523D01*
X715967Y80148D01*
Y80773D01*
Y80148D02*
X716279Y79523D01*
X716904Y79211D01*
X717529Y79523D01*
X717841Y80148D01*
Y80773D01*
X717529Y81398D01*
X393153Y102961D02*
G75*
G03*
X396903Y105461I1875J1250D01*
G01*
G75*
G03*
X393153Y102961I-1875J-1250D01*
G01*
G36*
X393153Y102961D02*
G75*
G03*
X396903Y105461I1875J1250D01*
G01*
G75*
G03*
X393153Y102961I-1875J-1250D01*
G01*
G37*
X493153Y102938D02*
G75*
G03*
X496903Y105438I1875J1250D01*
G01*
G75*
G03*
X493153Y102938I-1875J-1250D01*
G01*
G36*
X493153Y102938D02*
G75*
G03*
X496903Y105438I1875J1250D01*
G01*
G75*
G03*
X493153Y102938I-1875J-1250D01*
G01*
G37*
X593154Y102938D02*
G75*
G03*
X596904Y105438I1875J1250D01*
G01*
G75*
G03*
X593154Y102938I-1875J-1250D01*
G01*
G36*
X593154Y102938D02*
G75*
G03*
X596904Y105438I1875J1250D01*
G01*
G75*
G03*
X593154Y102938I-1875J-1250D01*
G01*
G37*
X693154D02*
G75*
G03*
X696904Y105438I1875J1250D01*
G01*
G75*
G03*
X693154Y102938I-1875J-1250D01*
G01*
G36*
X693154Y102938D02*
G75*
G03*
X696904Y105438I1875J1250D01*
G01*
G75*
G03*
X693154Y102938I-1875J-1250D01*
G01*
G37*
X765029Y71398D02*
X765341Y71711D01*
X765967Y72023D01*
X766904D01*
X767529Y71711D01*
X767841Y71398D01*
X768154Y70773D01*
Y69523D01*
X767841Y68898D01*
X767529Y68585D01*
X766904Y68273D01*
X765967D01*
X765341Y68585D01*
X765029Y68898D01*
X763154Y72023D02*
Y68273D01*
X760029Y72023D01*
Y68273D01*
X757529Y72023D02*
X756279D01*
X756904D02*
Y68273D01*
X757529Y68898D01*
X752841Y71711D02*
X752217Y72023D01*
X751591D01*
X750967Y71711D01*
X750654Y71085D01*
Y69211D01*
X750967Y68585D01*
X751591Y68273D01*
X752217D01*
X752841Y68585D01*
X753154Y69211D01*
Y71085D01*
X752841Y71711D01*
X750967Y68585D01*
X577529Y55148D02*
X577841Y55461D01*
X578467Y55773D01*
X579404D01*
X580029Y55461D01*
X580341Y55148D01*
X580654Y54523D01*
Y53273D01*
X580341Y52648D01*
X580029Y52335D01*
X579404Y52023D01*
X578467D01*
X577841Y52335D01*
X577529Y52648D01*
X575654Y55773D02*
Y52023D01*
X572529Y55773D01*
Y52023D01*
X570654Y54835D02*
X570341Y54211D01*
X569717Y53898D01*
X569091D01*
X568467Y54211D01*
X568154Y54835D01*
X568467Y55461D01*
X569091Y55773D01*
X569717D01*
X570341Y55461D01*
X570654Y54835D01*
Y53898D01*
X570341Y52961D01*
X569717Y52335D01*
X569091Y52023D01*
X677529Y55148D02*
X677841Y55461D01*
X678467Y55773D01*
X679404D01*
X680029Y55461D01*
X680341Y55148D01*
X680654Y54523D01*
Y53273D01*
X680341Y52648D01*
X680029Y52335D01*
X679404Y52023D01*
X678467D01*
X677841Y52335D01*
X677529Y52648D01*
X675654Y55773D02*
Y52023D01*
X672529Y55773D01*
Y52023D01*
X670654Y55461D02*
X670029Y55773D01*
X669091D01*
X668467Y55461D01*
X668154Y54835D01*
Y54523D01*
X668467Y53898D01*
X669091Y53585D01*
X670654D01*
Y52023D01*
X668154D01*
X478126Y54452D02*
X478439Y54764D01*
X479064Y55077D01*
X480002D01*
X480626Y54764D01*
X480939Y54452D01*
X481252Y53827D01*
Y52577D01*
X480939Y51952D01*
X480626Y51639D01*
X480002Y51327D01*
X479064D01*
X478439Y51639D01*
X478126Y51952D01*
X476252Y55077D02*
Y51327D01*
X473126Y55077D01*
Y51327D01*
X471252Y55077D02*
X468752Y51327D01*
X471252D01*
X377528Y53898D02*
X377841Y54211D01*
X378466Y54523D01*
X379403D01*
X380028Y54211D01*
X380341Y53898D01*
X380653Y53273D01*
Y52023D01*
X380341Y51398D01*
X380028Y51085D01*
X379403Y50773D01*
X378466D01*
X377841Y51085D01*
X377528Y51398D01*
X375653Y54523D02*
Y50773D01*
X372528Y54523D01*
Y50773D01*
X369716Y52648D02*
X369091D01*
X368466Y52335D01*
X368153Y51711D01*
X368466Y51085D01*
X369091Y50773D01*
X369716D01*
X370341Y51085D01*
X370653Y51711D01*
X370341Y52335D01*
X369716Y52648D01*
X370341Y52961D01*
X370653Y53585D01*
X370341Y54211D01*
X369716Y54523D01*
X369091D01*
X368466Y54211D01*
X368153Y53585D01*
X368466Y52961D01*
X369091Y52648D01*
D02*
D18*
X130565Y294693D02*
G75*
G02*
X129580I-492J0D01*
G01*
X130565D02*
G75*
G02*
X129580I-492J0D01*
G01*
G75*
G02*
X130565I492J0D01*
G01*
Y273461D02*
G75*
G02*
X129580I-492J0D01*
G01*
X130565D02*
G75*
G02*
X129580I-492J0D01*
G01*
G75*
G02*
X130565I492J0D01*
G01*
X215565Y238641D02*
G75*
G02*
X214580I-492J0D01*
G01*
X215565D02*
G75*
G02*
X214580I-492J0D01*
G01*
G75*
G02*
X215565I492J0D01*
G01*
D02*
D19*
X210753Y302387D02*
Y307687D01*
X223053D01*
Y302387D01*
X210753D01*
Y292387D02*
Y297687D01*
X223053D01*
Y292387D01*
X210753D01*
X223053Y267687D02*
Y262387D01*
X210753D01*
Y267687D01*
X223053D01*
Y257687D02*
Y252387D01*
X210753D01*
Y257687D01*
X223053D01*
X179303Y198006D02*
Y192706D01*
X167003D01*
Y198006D01*
X179303D01*
D02*
D70*
X342978Y359211D02*
X322978D01*
Y349211D01*
X342978D01*
Y359211D01*
X443194D02*
X423194D01*
Y349211D01*
X443194D01*
Y359211D01*
X543154D02*
X523154D01*
Y349211D01*
X543154D01*
Y359211D01*
X643087D02*
X623087D01*
Y349211D01*
X643087D01*
Y359211D01*
X222854Y335355D02*
X213454D01*
D02*
D129*
X701761Y420972D02*
X702869Y421711D01*
X705452D01*
X706191Y420972D01*
X702130Y420234D02*
X701761Y419496D01*
Y418389D01*
X702130Y417650D01*
X702869Y417281D01*
X703238D01*
X703976Y417650D01*
X704345Y418389D01*
Y420234D01*
X706191D01*
Y417281D01*
Y416573D02*
X701761Y414727D01*
X706191Y412882D01*
X702500Y405795D02*
X702130Y406164D01*
X701761Y406902D01*
Y408010D01*
X702130Y408748D01*
X702500Y409117D01*
X703238Y409486D01*
X704714D01*
X705452Y409117D01*
X705821Y408748D01*
X706191Y408010D01*
Y406902D01*
X705821Y406164D01*
X705452Y405795D01*
X702130Y402104D02*
X701761Y402473D01*
Y403211D01*
Y403950D01*
X702130Y404688D01*
X702869Y405057D01*
X703976D01*
X704345Y404688D01*
X704714Y403950D01*
Y403211D01*
X704345Y402473D01*
X703976Y402104D01*
X703607D01*
X703238Y402473D01*
X702869Y403211D01*
Y403950D01*
X703238Y404688D01*
X703607Y405057D01*
X701761Y401396D02*
X704714D01*
X703607D02*
X704345Y401026D01*
X704714Y400288D01*
Y399550D01*
X704345Y398812D01*
X703607Y398443D01*
X701761D01*
X704714Y397734D02*
Y396012D01*
X705452Y396873D02*
X702130D01*
X701761Y396504D01*
Y396135D01*
X702130Y395766D01*
Y392124D02*
X701761Y392493D01*
Y393231D01*
Y393969D01*
X702130Y394707D01*
X702869Y395077D01*
X703976D01*
X704345Y394707D01*
X704714Y393969D01*
Y393231D01*
X704345Y392493D01*
X703976Y392124D01*
X703607D01*
X703238Y392493D01*
X702869Y393231D01*
Y393969D01*
X703238Y394707D01*
X703607Y395077D01*
X701761Y391415D02*
X704714D01*
X703607D02*
X704345Y391046D01*
X704714Y390308D01*
Y389570D01*
X704345Y388831D01*
X701761Y385451D02*
X706191D01*
Y382867D01*
X705821Y382129D01*
X705083Y381760D01*
X704345Y382129D01*
X703976Y382867D01*
Y385451D01*
X701761Y380652D02*
Y381022D01*
X706191D01*
X704714Y379959D02*
X702869D01*
X702130Y379589D01*
X701761Y378851D01*
Y378113D01*
X702130Y377375D01*
X702869Y377006D01*
X704714D02*
X701761D01*
X702130Y376297D02*
X701761Y375559D01*
Y374083D01*
X702130Y373344D01*
X702869D01*
X703238Y374083D01*
Y375559D01*
X703607Y376297D01*
X704345D01*
X704714Y375559D01*
Y374083D01*
X704345Y373344D01*
X701761Y372636D02*
X702869Y371898D01*
X705452D01*
X706191Y372636D01*
D02*
D142*
X708380Y421711D02*
X714286D01*
Y419644D01*
X713794Y418955D01*
X713302Y418610D01*
X712317Y418266D01*
X710349D01*
X709365Y418610D01*
X708872Y418955D01*
X708380Y419644D01*
Y421711D01*
X709365Y412754D02*
X708872Y413098D01*
X708380Y413787D01*
Y414821D01*
X708872Y415510D01*
X709365Y415854D01*
X710349Y416199D01*
X712317D01*
X713302Y415854D01*
X713794Y415510D01*
X714286Y414821D01*
Y413787D01*
X713794Y413098D01*
X713302Y412754D01*
X708380Y404142D02*
Y402764D01*
Y403453D02*
X714286D01*
Y404142D02*
Y402764D01*
X708380Y399663D02*
X714286D01*
X708380Y396219D01*
X714286D01*
D02*
D143*
X203626Y250667D02*
G75*
G02*
Y252242I0J787D01*
G01*
Y250667D02*
G75*
G02*
Y252242I0J787D01*
G01*
G75*
G02*
Y250667I0J-787D01*
G01*
D02*
D17*
X70241Y479742D02*
Y440372D01*
X202165D01*
G75*
G02*
X205807Y436730I0J-3642D01*
G01*
Y436644D01*
G75*
G02*
X201673Y432511I-4134J0D01*
G01*
X174250D01*
G75*
G03*
X167885Y426146I0J-6365D01*
G01*
Y387457D01*
G75*
G02*
X162893Y382465I-4992J0D01*
G01*
X122956D01*
G75*
G03*
X117839Y377348I0J-5117D01*
G01*
Y352886D01*
X75607D01*
G75*
G03*
X70241Y347520I0J-5367D01*
G01*
Y100534D01*
G75*
G03*
X75607Y95168I5367J0D01*
G01*
X117839D01*
Y54753D01*
G75*
G03*
X125098Y47493I7260J0D01*
G01*
X154934D01*
G75*
G02*
X158661Y43765I0J-3728D01*
G01*
Y43569D01*
G75*
G02*
X154713Y39620I-3948J0D01*
G01*
X70241D01*
Y250D01*
X766890D01*
Y39620D01*
X729342D01*
G75*
G02*
X725492Y43470I0J3850D01*
G01*
G75*
G02*
X729516Y47494I4024J0D01*
G01*
X760678D01*
G75*
G03*
X766890Y53706I0J6212D01*
G01*
Y426344D01*
G75*
G03*
X760736Y432498I-6154J0D01*
G01*
X729082D01*
G75*
G02*
X725492Y436088I0J3590D01*
G01*
G75*
G02*
X729776Y440372I3939J344D01*
G01*
X766831D01*
Y479742D01*
X70241D01*
X0Y0D02*
M02*
