G04 DesignSpark PCB PRO Gerber Version 10.0 Build 5299*
G04 #@! TF.Part,CustomerPanel*
G04 #@! TF.FileFunction,Soldermask,Top*
G04 #@! TF.FilePolarity,Negative*
%FSLAX35Y35*%
%MOIN*%
G04 #@! TA.AperFunction,ComponentPad*
%ADD164O,0.06200X0.11200*%
G04 #@! TA.AperFunction,SMDPad,CuDef*
%ADD155R,0.02562X0.06007*%
%ADD89R,0.04140X0.04530*%
G04 #@! TA.AperFunction,WasherPad*
%ADD146R,0.39371X2.57639*%
G04 #@! TA.AperFunction,TestPad*
%ADD148R,0.41339X2.58583*%
G04 #@! TA.AperFunction,ComponentPad*
%ADD168R,0.05515X0.05515*%
%ADD161R,0.06200X0.06200*%
%ADD135R,0.06696X0.06696*%
G04 #@! TA.AperFunction,WasherPad*
%ADD144R,0.11812X0.11812*%
G04 #@! TD.AperFunction*
%ADD17C,0.00500*%
G04 #@! TA.AperFunction,WasherPad*
%ADD85C,0.03938*%
G04 #@! TA.AperFunction,ComponentPad*
%ADD162C,0.05318*%
%ADD169C,0.05515*%
%ADD96C,0.06106*%
%ADD167C,0.06200*%
%ADD166C,0.06302*%
%ADD136C,0.06696*%
G04 #@! TA.AperFunction,SMDPad,CuDef*
%ADD160R,0.02562X0.01381*%
%ADD158R,0.02562X0.01775*%
%ADD139R,0.03743X0.02562*%
%ADD154R,0.06007X0.02562*%
%ADD152R,0.29728X0.06893*%
%ADD150R,0.35633X0.06893*%
G04 #@! TA.AperFunction,ComponentPad*
%ADD170C,0.16086*%
%ADD165C,0.19098*%
%ADD153C,0.20869*%
G04 #@! TD.AperFunction*
X0Y0D02*
D02*
D17*
X70241Y347533D02*
G75*
G02*
X75520Y352813I5280J0D01*
G01*
X117878D01*
Y377498D01*
G75*
G02*
X122878Y382498I5000J0D01*
G01*
X162878D01*
G75*
G03*
X167878Y387498I0J5000D01*
G01*
Y426248D01*
G75*
G02*
X174128Y432498I6250J0D01*
G01*
X760654D01*
G75*
G02*
X766904Y426248I0J-6250D01*
G01*
Y53748D01*
G75*
G02*
X760654Y47498I-6250J0D01*
G01*
X125146D01*
G75*
G02*
X117878Y54766I0J7268D01*
G01*
Y95175D01*
X75738D01*
G75*
G02*
X70241Y100672I0J5497D01*
G01*
Y347533D01*
D02*
D89*
X213403Y305037D03*
X220403D03*
X213403Y295037D03*
X220403D03*
X213403Y265037D03*
X220403D03*
X213403Y255037D03*
X220403D03*
X169653Y195356D03*
X176653D03*
D02*
D96*
X363153Y344211D03*
X383153D03*
X463153Y344188D03*
X483153D03*
X563154Y344188D03*
X583154D03*
X663154D03*
X683154D03*
X363153Y334211D03*
X383153D03*
X463153Y334188D03*
X483153D03*
X563154Y334188D03*
X583154D03*
X663154D03*
X683154D03*
X363153Y324211D03*
X383153D03*
X463153Y324188D03*
X483153D03*
X563154Y324188D03*
X583154D03*
X663154D03*
X683154D03*
X363153Y314211D03*
X383153D03*
X463153Y314188D03*
X483153D03*
X563154Y314188D03*
X583154D03*
X663154D03*
X683154D03*
X363153Y304211D03*
X383153D03*
X463153Y304188D03*
X483153D03*
X563154Y304188D03*
X583154D03*
X663154D03*
X683154D03*
X363153Y294211D03*
X383153D03*
X463153Y294188D03*
X483153D03*
X563154Y294188D03*
X583154D03*
X663154D03*
X683154D03*
X363153Y284211D03*
X383153D03*
X463153Y284188D03*
X483153D03*
X563154Y284188D03*
X583154D03*
X663154D03*
X683154D03*
X363153Y274211D03*
X383153D03*
X463153Y274188D03*
X483153D03*
X563154Y274188D03*
X583154D03*
X663154D03*
X683154D03*
X363153Y264211D03*
X383153D03*
X463153Y264188D03*
X483153D03*
X563154Y264188D03*
X583154D03*
X663154D03*
X683154D03*
X363153Y254211D03*
X383153D03*
X463153Y254188D03*
X483153D03*
X563154Y254188D03*
X583154D03*
X663154D03*
X683154D03*
X363153Y244211D03*
X383153D03*
X463153Y244188D03*
X483153D03*
X563154Y244188D03*
X583154D03*
X663154D03*
X683154D03*
X363153Y234211D03*
X383153D03*
X463153Y234188D03*
X483153D03*
X563154Y234188D03*
X583154D03*
X663154D03*
X683154D03*
X363153Y224211D03*
X383153D03*
X463153Y224188D03*
X483153D03*
X563154Y224188D03*
X583154D03*
X663154D03*
X683154D03*
X363153Y214211D03*
X383153D03*
X463153Y214188D03*
X483153D03*
X563154Y214188D03*
X583154D03*
X663154D03*
X683154D03*
X363153Y204211D03*
X383153D03*
X463153Y204188D03*
X483153D03*
X563154Y204188D03*
X583154D03*
X663154D03*
X683154D03*
X363153Y194211D03*
X383153D03*
X463153Y194188D03*
X483153D03*
X563154Y194188D03*
X583154D03*
X663154D03*
X683154D03*
X363153Y184211D03*
X383153D03*
X463153Y184188D03*
X483153D03*
X563154Y184188D03*
X583154D03*
X663154D03*
X683154D03*
X363153Y174211D03*
X383153D03*
X463153Y174188D03*
X483153D03*
X563154Y174188D03*
X583154D03*
X663154D03*
X683154D03*
X363153Y164211D03*
X383153D03*
X463153Y164188D03*
X483153D03*
X563154Y164188D03*
X583154D03*
X663154D03*
X683154D03*
X363153Y154211D03*
X383153D03*
X463153Y154188D03*
X483153D03*
X563154Y154188D03*
X583154D03*
X663154D03*
X683154D03*
X363153Y144211D03*
X383153D03*
X463153Y144188D03*
X483153D03*
X563154Y144188D03*
X583154D03*
X663154D03*
X683154D03*
X363153Y134211D03*
X383153D03*
X463153Y134188D03*
X483153D03*
X563154Y134188D03*
X583154D03*
X663154D03*
X683154D03*
X363153Y124211D03*
X383153D03*
X463153Y124188D03*
X483153D03*
X563154Y124188D03*
X583154D03*
X663154D03*
X683154D03*
X363153Y114211D03*
X383153D03*
X463153Y114188D03*
X483153D03*
X563154Y114188D03*
X583154D03*
X663154D03*
X683154D03*
X363153Y104211D03*
X383153D03*
X463153Y104188D03*
X483153D03*
X563154Y104188D03*
X583154D03*
X663154D03*
X683154D03*
D02*
D135*
X145906Y233859D03*
D02*
D136*
Y283859D03*
Y273859D03*
Y263859D03*
Y253859D03*
Y243859D03*
D02*
D146*
X89926Y223978D03*
D02*
D148*
X90076Y224435D03*
D02*
D150*
X92288Y343994D03*
Y333994D03*
Y323994D03*
Y303994D03*
Y293994D03*
Y283994D03*
Y273994D03*
Y263994D03*
Y253994D03*
Y243994D03*
Y233994D03*
Y223994D03*
Y213994D03*
Y203994D03*
Y193994D03*
Y183994D03*
Y173994D03*
Y163994D03*
Y153994D03*
Y143994D03*
Y133994D03*
Y123994D03*
Y113994D03*
Y103994D03*
D02*
D152*
X95241Y313994D03*
D02*
D153*
X373153Y377970D03*
X473153Y377948D03*
X573154Y377948D03*
X673154D03*
X373153Y70451D03*
X473153Y70428D03*
X573154Y70428D03*
X673154D03*
D02*
D155*
X167405Y250128D03*
X170555D03*
X173704D03*
X176854D03*
X180004D03*
X183153D03*
X186303D03*
X189452D03*
X192602D03*
X195752D03*
X198901D03*
X167405Y204947D03*
X170555D03*
X173704D03*
X176854D03*
X180004D03*
X183153D03*
X186303D03*
X189452D03*
X192602D03*
X195752D03*
X198901D03*
D02*
D154*
X160563Y243285D03*
X205744D03*
X160563Y240136D03*
X205744D03*
X160563Y236986D03*
X205744D03*
X160563Y233837D03*
X205744D03*
X160563Y230687D03*
X205744D03*
X160563Y227537D03*
X205744D03*
X160563Y224388D03*
X205744D03*
X160563Y221238D03*
X205744D03*
X160563Y218089D03*
X205744D03*
X160563Y214939D03*
X205744D03*
X160563Y211789D03*
X205744D03*
D02*
D139*
X209535Y283776D03*
X220558D03*
Y280036D03*
X209535Y276296D03*
X220558D03*
D02*
D158*
X132238Y291937D03*
X136569D03*
X132238Y285638D03*
X136569D03*
X132238Y270705D03*
X136569D03*
X132238Y264406D03*
X136569D03*
X217238Y235885D03*
X221569D03*
X217238Y229586D03*
X221569D03*
D02*
D160*
X132238Y289772D03*
X136569D03*
X132238Y287803D03*
X136569D03*
X132238Y268540D03*
X136569D03*
X132238Y266571D03*
X136569D03*
X217238Y233720D03*
X221569D03*
X217238Y231751D03*
X221569D03*
D02*
D161*
X327978Y354211D03*
X337978D03*
X428194D03*
X438194D03*
X528154D03*
X538154D03*
X628087D03*
X638087D03*
D02*
D162*
X573311Y426859D03*
X668311D03*
X373022Y426734D03*
X472989D03*
X563469Y414260D03*
X583154D03*
X658469D03*
X678154D03*
X363180Y414135D03*
X382865D03*
X463147D03*
X482832D03*
D02*
D164*
X193154Y414211D03*
X203154D03*
X213154D03*
X223154D03*
X233154D03*
X243154D03*
X253154D03*
X193154Y384211D03*
X203154D03*
X213154D03*
X223154D03*
X233154D03*
X243154D03*
X253154D03*
D02*
D165*
X744365Y412252D03*
X725467Y401228D03*
X744365Y389417D03*
D02*
D166*
X238077Y354254D03*
X258077D03*
Y334254D03*
X238077Y324254D03*
D02*
D167*
X218154Y354355D03*
Y324355D03*
X313154Y314211D03*
Y304211D03*
D02*
D168*
X298123Y354230D03*
D02*
D169*
X278123D03*
X288123D03*
D02*
D170*
X735437Y317912D03*
X753154D03*
X735437Y242961D03*
X753154D03*
X735437Y167961D03*
X753154D03*
X735437Y92961D03*
X753154D03*
D02*
D17*
X70241Y479742D02*
Y440372D01*
X202165D01*
G75*
G02*
X205807Y436730I0J-3642D01*
G01*
Y436644D01*
G75*
G02*
X201673Y432511I-4134J0D01*
G01*
X174250D01*
G75*
G03*
X167885Y426146I0J-6365D01*
G01*
Y387457D01*
G75*
G02*
X162893Y382465I-4992J0D01*
G01*
X122956D01*
G75*
G03*
X117839Y377348I0J-5117D01*
G01*
Y352886D01*
X75607D01*
G75*
G03*
X70241Y347520I0J-5367D01*
G01*
Y100534D01*
G75*
G03*
X75607Y95168I5367J0D01*
G01*
X117839D01*
Y54753D01*
G75*
G03*
X125098Y47493I7260J0D01*
G01*
X154934D01*
G75*
G02*
X158661Y43765I0J-3728D01*
G01*
Y43569D01*
G75*
G02*
X154713Y39620I-3948J0D01*
G01*
X70241D01*
Y250D01*
X766890D01*
Y39620D01*
X729342D01*
G75*
G02*
X725492Y43470I0J3850D01*
G01*
G75*
G02*
X729516Y47494I4024J0D01*
G01*
X760678D01*
G75*
G03*
X766890Y53706I0J6212D01*
G01*
Y426344D01*
G75*
G03*
X760736Y432498I-6154J0D01*
G01*
X729082D01*
G75*
G02*
X725492Y436088I0J3590D01*
G01*
G75*
G02*
X729776Y440372I3939J344D01*
G01*
X766831D01*
Y479742D01*
X70241D01*
D02*
D85*
X115516Y19935D03*
Y460057D03*
X721556Y19935D03*
D02*
D144*
X115516D03*
Y460057D03*
X721556Y19935D03*
X0Y0D02*
M02*
