G05
M48
;#@! TF.GenerationSoftware,DesignSpark,DesignSpark PCB PRO,10.0.5299
;#@! TF.CreationDate,2022-04-20T14:10:33--9:00*
;#@! TF.FileFunction,Plated,1,2,Buried
;FILE_FORMAT=3:5
;TYPE=PLATED
INCH,TZ
FMAT,2
T1C000.01181
T2C000.01598
T3C000.01600
T4C000.02400
T5C000.03150
T6C000.03200
T7C000.03500
T8C000.03543
T9C000.03937
T10C000.04331
T11C000.10591
T12C000.12598
T13C000.13780
T14C000.16535
T15C000.16929
T16C000.18504
%
T001
X3.18528Y3.99211
X4.18154Y3.99211
X5.16654Y3.99211
X6.16904Y3.99211
X2.48576Y3.79191
X2.38093Y3.76711
X2.46205Y3.76711
X2.43834Y3.74211
X2.41463Y3.71711
X2.38967Y3.69211
X6.13154Y3.67961
X6.28154Y3.67961
X5.13154Y3.64211
X5.23154Y3.64211
X6.13154Y3.64211
X6.28154Y3.64211
X4.08154Y3.54211
X5.13154Y3.54211
X6.13177Y3.54211
X4.40654Y3.06711
X5.40654Y3.06711
X6.40654Y3.06711
X1.24564Y2.98881
X1.19447Y2.94014
X2.00569Y2.94014
X1.97200Y2.90519
X1.24439Y2.88897
X1.94454Y2.87524
X1.86303Y2.85278
X1.19322Y2.83994
X1.82972Y2.82906
X1.80004Y2.80660
X1.24439Y2.79037
X1.76854Y2.78289
X1.19572Y2.73994
X1.24564Y2.68928
X1.63752Y2.64211
X1.19572Y2.64028
X1.60882Y2.61815
X1.58261Y2.59568
X1.24564Y2.58944
X1.28558Y2.58944
X1.38168Y2.58320
X1.19697Y2.53994
X1.38293Y2.49709
X1.31803Y2.46899
X2.14256Y2.45402
X2.36096Y2.45402
X2.41463Y2.45402
X2.46205Y2.45402
X1.19697Y2.43994
X2.17251Y2.42906
X2.38842Y2.42906
X2.43834Y2.42906
X2.48576Y2.42906
X6.16904Y2.41711
X2.12633Y2.36986
X1.32052Y2.36230
X2.59404Y2.35885
X1.19572Y2.33994
X1.99030Y2.33837
X5.16654Y2.31711
X1.32052Y2.31113
X2.12883Y2.30687
X2.56904Y2.27929
X2.23034Y2.25308
X1.19572Y2.23994
X1.32052Y2.23994
X4.18154Y2.20815
X2.57063Y2.20566
X1.30180Y2.19007
X2.54692Y2.18194
X3.18154Y2.18194
X1.19572Y2.13994
X1.80004Y2.12393
X1.83222Y2.10021
X1.19572Y2.03994
X1.86303Y2.00037
X1.89452Y1.97541
X1.92582Y1.95045
X1.19572Y1.93994
X1.95752Y1.92674
X1.98901Y1.90302
X2.11053Y1.87931
X1.19822Y1.83994
X2.13299Y1.83438
X2.15670Y1.80693
X2.18042Y1.77947
X1.19946Y1.74063
X2.23034Y1.70583
X1.20196Y1.63994
X2.20538Y1.59601
X1.20071Y1.53994
X1.20196Y1.43994
X1.20321Y1.33994
X1.18157Y1.29085
X1.18157Y1.21846
X1.18282Y1.08681
T002
X2.80654Y3.26711
X2.90654Y3.26711
X2.80654Y3.19211
X2.90654Y3.19211
T003
X1.78154Y4.26711
X2.03154Y4.26711
X2.28154Y4.26711
X2.53154Y4.26711
X2.78154Y4.26711
X3.03154Y4.26711
X3.25654Y4.26711
X3.88154Y4.26711
X4.13154Y4.26711
X6.85654Y4.26711
X7.10654Y4.26711
X7.38154Y4.26711
X7.60654Y4.26711
X4.58154Y4.24211
X5.02800Y4.22537
X5.33154Y4.21711
X5.58154Y4.21711
X6.08154Y4.21711
X6.33154Y4.21711
X6.60654Y4.21711
X3.35654Y4.14211
X4.35654Y4.14211
X3.88154Y4.11711
X4.13154Y4.11711
X6.85654Y4.06711
X6.33154Y4.04211
X6.60654Y4.04211
X7.60654Y4.04211
X1.78154Y3.99211
X2.53154Y3.99211
X2.78154Y3.99211
X2.98154Y3.99211
X3.28154Y3.99211
X3.58154Y3.99211
X3.88154Y3.99211
X4.13154Y3.99211
X4.35654Y3.99211
X4.58154Y3.99211
X4.88154Y3.99211
X5.08154Y3.99211
X5.33154Y3.99211
X5.58154Y3.99211
X5.88154Y3.99211
X6.08154Y3.99211
X6.60654Y3.89211
X6.85654Y3.89211
X6.08154Y3.84211
X6.33154Y3.84211
X7.60654Y3.79211
X4.88154Y3.76711
X5.08154Y3.76711
X5.33154Y3.76711
X5.58154Y3.76711
X5.88154Y3.76711
X1.28153Y3.74211
X1.53153Y3.74211
X1.78154Y3.74211
X2.03154Y3.74211
X2.28154Y3.74211
X3.03154Y3.74211
X3.28154Y3.74211
X3.58154Y3.71711
X3.88154Y3.71711
X4.13154Y3.71711
X4.35654Y3.71711
X4.58154Y3.71711
X6.08154Y3.71711
X6.33154Y3.71711
X6.60654Y3.69211
X6.85654Y3.69211
X2.51904Y3.64211
X4.03154Y3.64211
X1.53154Y3.59211
X3.63154Y3.59211
X4.68154Y3.59211
X5.10654Y3.59211
X6.08154Y3.59211
X1.28153Y3.58934
X1.78154Y3.54211
X2.03154Y3.54211
X3.13154Y3.54211
X7.13154Y3.54211
X7.38154Y3.54211
X7.60654Y3.54211
X3.08154Y3.49211
X3.58154Y3.49211
X4.58154Y3.49211
X5.58154Y3.49211
X6.70654Y3.44211
X6.93154Y3.44211
X3.78154Y3.41711
X4.78154Y3.41711
X5.78154Y3.41711
X4.33154Y3.39211
X5.38154Y3.39211
X1.88920Y3.32514
X7.13154Y3.29211
X7.38154Y3.29211
X7.60654Y3.29211
X2.23153Y3.15037
X2.28153Y3.15037
X3.93154Y3.14211
X4.93154Y3.14211
X5.93154Y3.14211
X6.93154Y3.14211
X1.39403Y3.12537
X6.88154Y3.09211
X1.78154Y3.06711
X2.08153Y3.05461
X2.63154Y3.05461
X3.43154Y3.05461
X3.03154Y3.04211
X3.93154Y3.04211
X4.93154Y3.04211
X5.93154Y3.04211
X7.13154Y3.04211
X7.38154Y3.04211
X7.60654Y3.04211
X4.28154Y2.99211
X4.53154Y2.99211
X5.28154Y2.99211
X5.53154Y2.99211
X6.28154Y2.99211
X6.53154Y2.99211
X6.93154Y2.99211
X3.03154Y2.97961
X3.53154Y2.97961
X1.78154Y2.97537
X2.08154Y2.97537
X2.63154Y2.97537
X3.43154Y2.97537
X6.93154Y2.79211
X7.13154Y2.79211
X7.38154Y2.79211
X7.60654Y2.79211
X3.43154Y2.75461
X1.63153Y2.75037
X2.63154Y2.75037
X3.08153Y2.75037
X1.89403Y2.70037
X2.20653Y2.70037
X2.28154Y2.67961
X2.63154Y2.67537
X3.08153Y2.67537
X3.43154Y2.67537
X2.28154Y2.55011
X2.63154Y2.54887
X3.08153Y2.54887
X3.43154Y2.54887
X7.13154Y2.54211
X7.38154Y2.54211
X7.60654Y2.54211
X6.93154Y2.49211
X1.89462Y2.43344
X3.08153Y2.39161
X3.43154Y2.39161
X2.63154Y2.39037
X7.13154Y2.29211
X7.38154Y2.29211
X7.60654Y2.29211
X1.66124Y2.27494
X1.71241Y2.27494
X6.93154Y2.19211
X3.43154Y2.16711
X1.30653Y2.04211
X1.58154Y2.04211
X2.03154Y2.04211
X2.28153Y2.04211
X2.63154Y2.04211
X3.08153Y2.04211
X3.43154Y2.04211
X7.13154Y2.04211
X7.38154Y2.04211
X7.60654Y2.04211
X6.93154Y1.89211
X7.13154Y1.79211
X7.38154Y1.79211
X7.60654Y1.79211
X6.93154Y1.59211
X7.13154Y1.54211
X7.38154Y1.54211
X7.60654Y1.54211
X1.52977Y1.49211
X1.78154Y1.49211
X2.03154Y1.49211
X2.28154Y1.49211
X2.53154Y1.49211
X2.78154Y1.49211
X3.03154Y1.49211
X3.93154Y1.49211
X4.13154Y1.49211
X4.93154Y1.49211
X5.13154Y1.49211
X5.93154Y1.49211
X6.13154Y1.49211
X1.53352Y1.29211
X6.93154Y1.29211
X7.13154Y1.29211
X7.38154Y1.29211
X7.60654Y1.29211
X1.38375Y1.29210
X1.78154Y1.24211
X2.03154Y1.24211
X2.28154Y1.24211
X2.53154Y1.24211
X2.78154Y1.24211
X3.03154Y1.24211
X3.28154Y1.24211
X3.93154Y1.19211
X4.13154Y1.19211
X4.93154Y1.19211
X5.13154Y1.19211
X5.93154Y1.19211
X6.13154Y1.19211
X7.38154Y1.04211
X7.60654Y1.04211
X1.53153Y1.01711
X1.78154Y1.01711
X2.03154Y1.01711
X2.28154Y1.01711
X2.53154Y1.01711
X2.78154Y1.01711
X3.03154Y1.01711
X3.28154Y1.01711
X1.28153Y0.99211
X3.88154Y0.99211
X4.08154Y0.99211
X4.88154Y0.99211
X5.13154Y0.99211
X5.88154Y0.99211
X6.13154Y0.99211
X6.93154Y0.99211
X7.13154Y0.99211
X3.58154Y0.94211
X4.33154Y0.94211
X4.58154Y0.94211
X5.38154Y0.94211
X5.58154Y0.94211
X6.38154Y0.94211
X6.58154Y0.94211
X7.38154Y0.79211
X7.60654Y0.79211
X2.28154Y0.76711
X2.53154Y0.76711
X2.78154Y0.76711
X3.03154Y0.76711
X3.28154Y0.76711
X3.58154Y0.76711
X3.88154Y0.76711
X4.08154Y0.76711
X4.33154Y0.76711
X4.58154Y0.76711
X4.88154Y0.76711
X5.13154Y0.76711
X5.38154Y0.76711
X5.58154Y0.76711
X5.88154Y0.76711
X6.13154Y0.76711
X6.38154Y0.76711
X6.58154Y0.76711
X6.88154Y0.76711
X7.13154Y0.76711
X1.28154Y0.74211
X1.53154Y0.74211
X1.78154Y0.74211
X7.38154Y0.66711
X7.60654Y0.66711
X2.08154Y0.59211
X2.28154Y0.59211
X2.53154Y0.57961
X2.78154Y0.57961
X3.03154Y0.54211
X3.28154Y0.54211
X3.58154Y0.54211
X3.88154Y0.54211
X4.08154Y0.54211
X4.33154Y0.54211
X4.58154Y0.54211
X4.88154Y0.54211
X5.13154Y0.54211
X5.38154Y0.54211
X5.58154Y0.54211
X5.88154Y0.54211
X6.13154Y0.54211
X6.38154Y0.54211
X6.58154Y0.54211
X6.88154Y0.54211
X7.13154Y0.54211
T004
X1.83154Y3.43787
X1.98153Y3.34076
X1.21569Y3.13982
X1.45653Y3.06711
X1.21569Y3.04123
X1.45653Y2.97537
T005
X5.73311Y4.26859
X6.68311Y4.26859
X3.73022Y4.26734
X4.72989Y4.26734
X5.63469Y4.14260
X5.83154Y4.14260
X6.58469Y4.14260
X6.78154Y4.14260
X3.63180Y4.14135
X3.82865Y4.14135
X4.63147Y4.14135
X4.82832Y4.14135
T006
X1.93154Y4.14211
X2.03154Y4.14211
X2.13154Y4.14211
X2.23154Y4.14211
X2.33154Y4.14211
X2.43154Y4.14211
X2.53154Y4.14211
X1.93154Y3.84211
X2.03154Y3.84211
X2.13154Y3.84211
X2.23154Y3.84211
X2.33154Y3.84211
X2.43154Y3.84211
X2.53154Y3.84211
X2.18154Y3.54355
X2.18154Y3.24355
X3.13154Y3.14211
X3.13154Y3.04211
T007
X3.27978Y3.54211
X3.37978Y3.54211
X4.28194Y3.54211
X4.38194Y3.54211
X5.28154Y3.54211
X5.38154Y3.54211
X6.28087Y3.54211
X6.38087Y3.54211
T008
X2.78123Y3.54230
X2.88123Y3.54230
X2.98123Y3.54230
T009
X2.38077Y3.54254
X2.58077Y3.54254
X3.63153Y3.44211
X3.83153Y3.44211
X4.63153Y3.44188
X4.83153Y3.44188
X5.63154Y3.44188
X5.83154Y3.44188
X6.63154Y3.44188
X6.83154Y3.44188
X2.58077Y3.34254
X3.63153Y3.34211
X3.83153Y3.34211
X4.63153Y3.34188
X4.83153Y3.34188
X5.63154Y3.34188
X5.83154Y3.34188
X6.63154Y3.34188
X6.83154Y3.34188
X2.38077Y3.24254
X3.63153Y3.24211
X3.83153Y3.24211
X4.63153Y3.24188
X4.83153Y3.24188
X5.63154Y3.24188
X5.83154Y3.24188
X6.63154Y3.24188
X6.83154Y3.24188
X3.63153Y3.14211
X3.83153Y3.14211
X4.63153Y3.14188
X4.83153Y3.14188
X5.63154Y3.14188
X5.83154Y3.14188
X6.63154Y3.14188
X6.83154Y3.14188
X3.63153Y3.04211
X3.83153Y3.04211
X4.63153Y3.04188
X4.83153Y3.04188
X5.63154Y3.04188
X5.83154Y3.04188
X6.63154Y3.04188
X6.83154Y3.04188
X3.63153Y2.94211
X3.83153Y2.94211
X4.63153Y2.94188
X4.83153Y2.94188
X5.63154Y2.94188
X5.83154Y2.94188
X6.63154Y2.94188
X6.83154Y2.94188
X3.63153Y2.84211
X3.83153Y2.84211
X4.63153Y2.84188
X4.83153Y2.84188
X5.63154Y2.84188
X5.83154Y2.84188
X6.63154Y2.84188
X6.83154Y2.84188
X3.63153Y2.74211
X3.83153Y2.74211
X4.63153Y2.74188
X4.83153Y2.74188
X5.63154Y2.74188
X5.83154Y2.74188
X6.63154Y2.74188
X6.83154Y2.74188
X3.63153Y2.64211
X3.83153Y2.64211
X4.63153Y2.64188
X4.83153Y2.64188
X5.63154Y2.64188
X5.83154Y2.64188
X6.63154Y2.64188
X6.83154Y2.64188
X3.63153Y2.54211
X3.83153Y2.54211
X4.63153Y2.54188
X4.83153Y2.54188
X5.63154Y2.54188
X5.83154Y2.54188
X6.63154Y2.54188
X6.83154Y2.54188
X3.63153Y2.44211
X3.83153Y2.44211
X4.63153Y2.44188
X4.83153Y2.44188
X5.63154Y2.44188
X5.83154Y2.44188
X6.63154Y2.44188
X6.83154Y2.44188
X3.63153Y2.34211
X3.83153Y2.34211
X4.63153Y2.34188
X4.83153Y2.34188
X5.63154Y2.34188
X5.83154Y2.34188
X6.63154Y2.34188
X6.83154Y2.34188
X3.63153Y2.24211
X3.83153Y2.24211
X4.63153Y2.24188
X4.83153Y2.24188
X5.63154Y2.24188
X5.83154Y2.24188
X6.63154Y2.24188
X6.83154Y2.24188
X3.63153Y2.14211
X3.83153Y2.14211
X4.63153Y2.14188
X4.83153Y2.14188
X5.63154Y2.14188
X5.83154Y2.14188
X6.63154Y2.14188
X6.83154Y2.14188
X3.63153Y2.04211
X3.83153Y2.04211
X4.63153Y2.04188
X4.83153Y2.04188
X5.63154Y2.04188
X5.83154Y2.04188
X6.63154Y2.04188
X6.83154Y2.04188
X3.63153Y1.94211
X3.83153Y1.94211
X4.63153Y1.94188
X4.83153Y1.94188
X5.63154Y1.94188
X5.83154Y1.94188
X6.63154Y1.94188
X6.83154Y1.94188
X3.63153Y1.84211
X3.83153Y1.84211
X4.63153Y1.84188
X4.83153Y1.84188
X5.63154Y1.84188
X5.83154Y1.84188
X6.63154Y1.84188
X6.83154Y1.84188
X3.63153Y1.74211
X3.83153Y1.74211
X4.63153Y1.74188
X4.83153Y1.74188
X5.63154Y1.74188
X5.83154Y1.74188
X6.63154Y1.74188
X6.83154Y1.74188
X3.63153Y1.64211
X3.83153Y1.64211
X4.63153Y1.64188
X4.83153Y1.64188
X5.63154Y1.64188
X5.83154Y1.64188
X6.63154Y1.64188
X6.83154Y1.64188
X3.63153Y1.54211
X3.83153Y1.54211
X4.63153Y1.54188
X4.83153Y1.54188
X5.63154Y1.54188
X5.83154Y1.54188
X6.63154Y1.54188
X6.83154Y1.54188
X3.63153Y1.44211
X3.83153Y1.44211
X4.63153Y1.44188
X4.83153Y1.44188
X5.63154Y1.44188
X5.83154Y1.44188
X6.63154Y1.44188
X6.83154Y1.44188
X3.63153Y1.34211
X3.83153Y1.34211
X4.63153Y1.34188
X4.83153Y1.34188
X5.63154Y1.34188
X5.83154Y1.34188
X6.63154Y1.34188
X6.83154Y1.34188
X3.63153Y1.24211
X3.83153Y1.24211
X4.63153Y1.24188
X4.83153Y1.24188
X5.63154Y1.24188
X5.83154Y1.24188
X6.63154Y1.24188
X6.83154Y1.24188
X3.63153Y1.14211
X3.83153Y1.14211
X4.63153Y1.14188
X4.83153Y1.14188
X5.63154Y1.14188
X5.83154Y1.14188
X6.63154Y1.14188
X6.83154Y1.14188
X3.63153Y1.04211
X3.83153Y1.04211
X4.63153Y1.04188
X4.83153Y1.04188
X5.63154Y1.04188
X5.83154Y1.04188
X6.63154Y1.04188
X6.83154Y1.04188
T010
X1.45906Y2.83859
X1.45906Y2.73859
X1.45906Y2.63859
X1.45906Y2.53859
X1.45906Y2.43859
X1.45906Y2.33859
T011
X7.35437Y3.17912
X7.53154Y3.17912
X7.35437Y2.42961
X7.53154Y2.42961
X7.35437Y1.67961
X7.53154Y1.67961
X7.35437Y0.92961
X7.53154Y0.92961
T012
X7.44365Y4.12252
X7.25467Y4.01228
X7.44365Y3.89417
T013
X3.73153Y3.77970
X4.73153Y3.77948
X5.73154Y3.77948
X6.73154Y3.77948
X3.73153Y0.70451
X4.73153Y0.70428
X5.73154Y0.70428
X6.73154Y0.70428
T014
X1.68666Y3.33719
T015
X1.48981Y1.14270
T016
X1.52130Y3.34545
X1.33233Y1.13443
M30
