G04 DesignSpark PCB PRO Gerber Version 10.0 Build 5299*
G04 #@! TF.Part,CustomerPanel*
G04 #@! TF.FileFunction,Drillmap*
G04 #@! TF.FilePolarity,Positive*
%FSLAX35Y35*%
%MOIN*%
%ADD10C,0.00500*%
G04 #@! TA.AperFunction,WasherPad*
%ADD95C,0.10000*%
G04 #@! TD.AperFunction*
X0Y0D02*
D02*
D10*
X579249Y416859D02*
X582999Y413733D01*
Y416859D02*
X579249Y413733D01*
X674249Y416859D02*
X677999Y413733D01*
Y416859D02*
X674249Y413733D01*
X378959Y416734D02*
X382709Y413609D01*
Y416734D02*
X378959Y413609D01*
X478927Y416734D02*
X482677Y413609D01*
Y416734D02*
X478927Y413609D01*
X185654Y414523D02*
Y413585D01*
X185341D01*
X184717Y413898D01*
X184404Y414211D01*
X184091Y414835D01*
Y415461D01*
X184404Y416085D01*
X184717Y416398D01*
X185341Y416711D01*
X186591D01*
X187217Y416398D01*
X187529Y416085D01*
X187841Y415461D01*
Y414835D01*
X187529Y414211D01*
X187217Y413898D01*
X186591Y413585D01*
X210654Y414523D02*
Y413585D01*
X210341D01*
X209717Y413898D01*
X209404Y414211D01*
X209091Y414835D01*
Y415461D01*
X209404Y416085D01*
X209717Y416398D01*
X210341Y416711D01*
X211591D01*
X212217Y416398D01*
X212529Y416085D01*
X212841Y415461D01*
Y414835D01*
X212529Y414211D01*
X212217Y413898D01*
X211591Y413585D01*
X235654Y414523D02*
Y413585D01*
X235341D01*
X234717Y413898D01*
X234404Y414211D01*
X234091Y414835D01*
Y415461D01*
X234404Y416085D01*
X234717Y416398D01*
X235341Y416711D01*
X236591D01*
X237217Y416398D01*
X237529Y416085D01*
X237841Y415461D01*
Y414835D01*
X237529Y414211D01*
X237217Y413898D01*
X236591Y413585D01*
X260654Y414523D02*
Y413585D01*
X260341D01*
X259717Y413898D01*
X259404Y414211D01*
X259091Y414835D01*
Y415461D01*
X259404Y416085D01*
X259717Y416398D01*
X260341Y416711D01*
X261591D01*
X262217Y416398D01*
X262529Y416085D01*
X262841Y415461D01*
Y414835D01*
X262529Y414211D01*
X262217Y413898D01*
X261591Y413585D01*
X285654Y414523D02*
Y413585D01*
X285341D01*
X284717Y413898D01*
X284404Y414211D01*
X284091Y414835D01*
Y415461D01*
X284404Y416085D01*
X284717Y416398D01*
X285341Y416711D01*
X286591D01*
X287217Y416398D01*
X287529Y416085D01*
X287841Y415461D01*
Y414835D01*
X287529Y414211D01*
X287217Y413898D01*
X286591Y413585D01*
X310654Y414523D02*
Y413585D01*
X310341D01*
X309717Y413898D01*
X309404Y414211D01*
X309091Y414835D01*
Y415461D01*
X309404Y416085D01*
X309717Y416398D01*
X310341Y416711D01*
X311591D01*
X312217Y416398D01*
X312529Y416085D01*
X312841Y415461D01*
Y414835D01*
X312529Y414211D01*
X312217Y413898D01*
X311591Y413585D01*
X333154Y414523D02*
Y413585D01*
X332841D01*
X332217Y413898D01*
X331904Y414211D01*
X331591Y414835D01*
Y415461D01*
X331904Y416085D01*
X332217Y416398D01*
X332841Y416711D01*
X334091D01*
X334717Y416398D01*
X335029Y416085D01*
X335341Y415461D01*
Y414835D01*
X335029Y414211D01*
X334717Y413898D01*
X334091Y413585D01*
X395654Y414523D02*
Y413585D01*
X395341D01*
X394717Y413898D01*
X394404Y414211D01*
X394091Y414835D01*
Y415461D01*
X394404Y416085D01*
X394717Y416398D01*
X395341Y416711D01*
X396591D01*
X397217Y416398D01*
X397529Y416085D01*
X397841Y415461D01*
Y414835D01*
X397529Y414211D01*
X397217Y413898D01*
X396591Y413585D01*
X420654Y414523D02*
Y413585D01*
X420341D01*
X419717Y413898D01*
X419404Y414211D01*
X419091Y414835D01*
Y415461D01*
X419404Y416085D01*
X419717Y416398D01*
X420341Y416711D01*
X421591D01*
X422217Y416398D01*
X422529Y416085D01*
X422841Y415461D01*
Y414835D01*
X422529Y414211D01*
X422217Y413898D01*
X421591Y413585D01*
X693154Y414523D02*
Y413585D01*
X692841D01*
X692217Y413898D01*
X691904Y414211D01*
X691591Y414835D01*
Y415461D01*
X691904Y416085D01*
X692217Y416398D01*
X692841Y416711D01*
X694091D01*
X694717Y416398D01*
X695029Y416085D01*
X695341Y415461D01*
Y414835D01*
X695029Y414211D01*
X694717Y413898D01*
X694091Y413585D01*
X718154Y414523D02*
Y413585D01*
X717841D01*
X717217Y413898D01*
X716904Y414211D01*
X716591Y414835D01*
Y415461D01*
X716904Y416085D01*
X717217Y416398D01*
X717841Y416711D01*
X719091D01*
X719717Y416398D01*
X720029Y416085D01*
X720341Y415461D01*
Y414835D01*
X720029Y414211D01*
X719717Y413898D01*
X719091Y413585D01*
X745654Y414523D02*
Y413585D01*
X745341D01*
X744717Y413898D01*
X744404Y414211D01*
X744091Y414835D01*
Y415461D01*
X744404Y416085D01*
X744717Y416398D01*
X745341Y416711D01*
X746591D01*
X747217Y416398D01*
X747529Y416085D01*
X747841Y415461D01*
Y414835D01*
X747529Y414211D01*
X747217Y413898D01*
X746591Y413585D01*
X768154Y414523D02*
Y413585D01*
X767841D01*
X767217Y413898D01*
X766904Y414211D01*
X766591Y414835D01*
Y415461D01*
X766904Y416085D01*
X767217Y416398D01*
X767841Y416711D01*
X769091D01*
X769717Y416398D01*
X770029Y416085D01*
X770341Y415461D01*
Y414835D01*
X770029Y414211D01*
X769717Y413898D01*
X769091Y413585D01*
X465654Y412023D02*
Y411085D01*
X465341D01*
X464717Y411398D01*
X464404Y411711D01*
X464091Y412335D01*
Y412961D01*
X464404Y413585D01*
X464717Y413898D01*
X465341Y414211D01*
X466591D01*
X467217Y413898D01*
X467529Y413585D01*
X467841Y412961D01*
Y412335D01*
X467529Y411711D01*
X467217Y411398D01*
X466591Y411085D01*
X510300Y410350D02*
Y409412D01*
X509988D01*
X509363Y409725D01*
X509050Y410037D01*
X508738Y410662D01*
Y411287D01*
X509050Y411912D01*
X509363Y412225D01*
X509988Y412537D01*
X511238D01*
X511863Y412225D01*
X512176Y411912D01*
X512488Y411287D01*
Y410662D01*
X512176Y410037D01*
X511863Y409725D01*
X511238Y409412D01*
X540654Y409523D02*
Y408585D01*
X540341D01*
X539717Y408898D01*
X539404Y409211D01*
X539091Y409835D01*
Y410461D01*
X539404Y411085D01*
X539717Y411398D01*
X540341Y411711D01*
X541591D01*
X542217Y411398D01*
X542529Y411085D01*
X542841Y410461D01*
Y409835D01*
X542529Y409211D01*
X542217Y408898D01*
X541591Y408585D01*
X565654Y409523D02*
Y408585D01*
X565341D01*
X564717Y408898D01*
X564404Y409211D01*
X564091Y409835D01*
Y410461D01*
X564404Y411085D01*
X564717Y411398D01*
X565341Y411711D01*
X566591D01*
X567217Y411398D01*
X567529Y411085D01*
X567841Y410461D01*
Y409835D01*
X567529Y409211D01*
X567217Y408898D01*
X566591Y408585D01*
X615654Y409523D02*
Y408585D01*
X615341D01*
X614717Y408898D01*
X614404Y409211D01*
X614091Y409835D01*
Y410461D01*
X614404Y411085D01*
X614717Y411398D01*
X615341Y411711D01*
X616591D01*
X617217Y411398D01*
X617529Y411085D01*
X617841Y410461D01*
Y409835D01*
X617529Y409211D01*
X617217Y408898D01*
X616591Y408585D01*
X640654Y409523D02*
Y408585D01*
X640341D01*
X639717Y408898D01*
X639404Y409211D01*
X639091Y409835D01*
Y410461D01*
X639404Y411085D01*
X639717Y411398D01*
X640341Y411711D01*
X641591D01*
X642217Y411398D01*
X642529Y411085D01*
X642841Y410461D01*
Y409835D01*
X642529Y409211D01*
X642217Y408898D01*
X641591Y408585D01*
X668154Y409523D02*
Y408585D01*
X667841D01*
X667217Y408898D01*
X666904Y409211D01*
X666591Y409835D01*
Y410461D01*
X666904Y411085D01*
X667217Y411398D01*
X667841Y411711D01*
X669091D01*
X669717Y411398D01*
X670029Y411085D01*
X670341Y410461D01*
Y409835D01*
X670029Y409211D01*
X669717Y408898D01*
X669091Y408585D01*
X569406Y404260D02*
X573156Y401135D01*
Y404260D02*
X569406Y401135D01*
X589091Y404260D02*
X592841Y401135D01*
Y404260D02*
X589091Y401135D01*
X664406Y404260D02*
X668156Y401135D01*
Y404260D02*
X664406Y401135D01*
X684091Y404260D02*
X687841Y401135D01*
Y404260D02*
X684091Y401135D01*
X199091Y404211D02*
X202841D01*
Y402023D01*
X202529Y401398D01*
X201904Y401085D01*
X201279Y401398D01*
X200967Y402023D01*
Y404211D01*
Y402023D02*
X199091Y401085D01*
X209091Y404211D02*
X212841D01*
Y402023D01*
X212529Y401398D01*
X211904Y401085D01*
X211279Y401398D01*
X210967Y402023D01*
Y404211D01*
Y402023D02*
X209091Y401085D01*
X219091Y404211D02*
X222841D01*
Y402023D01*
X222529Y401398D01*
X221904Y401085D01*
X221279Y401398D01*
X220967Y402023D01*
Y404211D01*
Y402023D02*
X219091Y401085D01*
X229091Y404211D02*
X232841D01*
Y402023D01*
X232529Y401398D01*
X231904Y401085D01*
X231279Y401398D01*
X230967Y402023D01*
Y404211D01*
Y402023D02*
X229091Y401085D01*
X239091Y404211D02*
X242841D01*
Y402023D01*
X242529Y401398D01*
X241904Y401085D01*
X241279Y401398D01*
X240967Y402023D01*
Y404211D01*
Y402023D02*
X239091Y401085D01*
X249091Y404211D02*
X252841D01*
Y402023D01*
X252529Y401398D01*
X251904Y401085D01*
X251279Y401398D01*
X250967Y402023D01*
Y404211D01*
Y402023D02*
X249091Y401085D01*
X259091Y404211D02*
X262841D01*
Y402023D01*
X262529Y401398D01*
X261904Y401085D01*
X261279Y401398D01*
X260967Y402023D01*
Y404211D01*
Y402023D02*
X259091Y401085D01*
X343154Y402023D02*
Y401085D01*
X342841D01*
X342217Y401398D01*
X341904Y401711D01*
X341591Y402335D01*
Y402961D01*
X341904Y403585D01*
X342217Y403898D01*
X342841Y404211D01*
X344091D01*
X344717Y403898D01*
X345029Y403585D01*
X345341Y402961D01*
Y402335D01*
X345029Y401711D01*
X344717Y401398D01*
X344091Y401085D01*
X443154Y402023D02*
Y401085D01*
X442841D01*
X442217Y401398D01*
X441904Y401711D01*
X441591Y402335D01*
Y402961D01*
X441904Y403585D01*
X442217Y403898D01*
X442841Y404211D01*
X444091D01*
X444717Y403898D01*
X445029Y403585D01*
X445341Y402961D01*
Y402335D01*
X445029Y401711D01*
X444717Y401398D01*
X444091Y401085D01*
X369117Y404135D02*
X372867Y401010D01*
Y404135D02*
X369117Y401010D01*
X388802Y404135D02*
X392552Y401010D01*
Y404135D02*
X388802Y401010D01*
X469084Y404135D02*
X472834Y401010D01*
Y404135D02*
X469084Y401010D01*
X488769Y404135D02*
X492519Y401010D01*
Y404135D02*
X488769Y401010D01*
X750302Y402252D02*
X754052Y400689D01*
X750302Y399127D01*
X751865Y401627D02*
Y399752D01*
X750302Y397252D02*
X754052D01*
X752177D02*
Y394127D01*
X750302D02*
X754052D01*
X395654Y399523D02*
Y398585D01*
X395341D01*
X394717Y398898D01*
X394404Y399211D01*
X394091Y399835D01*
Y400461D01*
X394404Y401085D01*
X394717Y401398D01*
X395341Y401711D01*
X396591D01*
X397217Y401398D01*
X397529Y401085D01*
X397841Y400461D01*
Y399835D01*
X397529Y399211D01*
X397217Y398898D01*
X396591Y398585D01*
X420654Y399523D02*
Y398585D01*
X420341D01*
X419717Y398898D01*
X419404Y399211D01*
X419091Y399835D01*
Y400461D01*
X419404Y401085D01*
X419717Y401398D01*
X420341Y401711D01*
X421591D01*
X422217Y401398D01*
X422529Y401085D01*
X422841Y400461D01*
Y399835D01*
X422529Y399211D01*
X422217Y398898D01*
X421591Y398585D01*
X693154Y394523D02*
Y393585D01*
X692841D01*
X692217Y393898D01*
X691904Y394211D01*
X691591Y394835D01*
Y395461D01*
X691904Y396085D01*
X692217Y396398D01*
X692841Y396711D01*
X694091D01*
X694717Y396398D01*
X695029Y396085D01*
X695341Y395461D01*
Y394835D01*
X695029Y394211D01*
X694717Y393898D01*
X694091Y393585D01*
X640654Y392023D02*
Y391085D01*
X640341D01*
X639717Y391398D01*
X639404Y391711D01*
X639091Y392335D01*
Y392961D01*
X639404Y393585D01*
X639717Y393898D01*
X640341Y394211D01*
X641591D01*
X642217Y393898D01*
X642529Y393585D01*
X642841Y392961D01*
Y392335D01*
X642529Y391711D01*
X642217Y391398D01*
X641591Y391085D01*
X668154Y392023D02*
Y391085D01*
X667841D01*
X667217Y391398D01*
X666904Y391711D01*
X666591Y392335D01*
Y392961D01*
X666904Y393585D01*
X667217Y393898D01*
X667841Y394211D01*
X669091D01*
X669717Y393898D01*
X670029Y393585D01*
X670341Y392961D01*
Y392335D01*
X670029Y391711D01*
X669717Y391398D01*
X669091Y391085D01*
X768154Y392023D02*
Y391085D01*
X767841D01*
X767217Y391398D01*
X766904Y391711D01*
X766591Y392335D01*
Y392961D01*
X766904Y393585D01*
X767217Y393898D01*
X767841Y394211D01*
X769091D01*
X769717Y393898D01*
X770029Y393585D01*
X770341Y392961D01*
Y392335D01*
X770029Y391711D01*
X769717Y391398D01*
X769091Y391085D01*
X731404Y391228D02*
X735154Y389666D01*
X731404Y388103D01*
X732967Y390603D02*
Y388728D01*
X731404Y386228D02*
X735154D01*
X733280D02*
Y383103D01*
X731404D02*
X735154D01*
X185654Y387023D02*
Y386085D01*
X185341D01*
X184717Y386398D01*
X184404Y386711D01*
X184091Y387335D01*
Y387961D01*
X184404Y388585D01*
X184717Y388898D01*
X185341Y389211D01*
X186591D01*
X187217Y388898D01*
X187529Y388585D01*
X187841Y387961D01*
Y387335D01*
X187529Y386711D01*
X187217Y386398D01*
X186591Y386085D01*
X260654Y387023D02*
Y386085D01*
X260341D01*
X259717Y386398D01*
X259404Y386711D01*
X259091Y387335D01*
Y387961D01*
X259404Y388585D01*
X259717Y388898D01*
X260341Y389211D01*
X261591D01*
X262217Y388898D01*
X262529Y388585D01*
X262841Y387961D01*
Y387335D01*
X262529Y386711D01*
X262217Y386398D01*
X261591Y386085D01*
X285654Y387023D02*
Y386085D01*
X285341D01*
X284717Y386398D01*
X284404Y386711D01*
X284091Y387335D01*
Y387961D01*
X284404Y388585D01*
X284717Y388898D01*
X285341Y389211D01*
X286591D01*
X287217Y388898D01*
X287529Y388585D01*
X287841Y387961D01*
Y387335D01*
X287529Y386711D01*
X287217Y386398D01*
X286591Y386085D01*
X305654Y387023D02*
Y386085D01*
X305341D01*
X304717Y386398D01*
X304404Y386711D01*
X304091Y387335D01*
Y387961D01*
X304404Y388585D01*
X304717Y388898D01*
X305341Y389211D01*
X306591D01*
X307217Y388898D01*
X307529Y388585D01*
X307841Y387961D01*
Y387335D01*
X307529Y386711D01*
X307217Y386398D01*
X306591Y386085D01*
X324466Y389211D02*
X328216D01*
Y386085D01*
X326341Y386711D02*
Y389211D01*
X324466D02*
Y386085D01*
X335654Y387023D02*
Y386085D01*
X335341D01*
X334717Y386398D01*
X334404Y386711D01*
X334091Y387335D01*
Y387961D01*
X334404Y388585D01*
X334717Y388898D01*
X335341Y389211D01*
X336591D01*
X337217Y388898D01*
X337529Y388585D01*
X337841Y387961D01*
Y387335D01*
X337529Y386711D01*
X337217Y386398D01*
X336591Y386085D01*
X365654Y387023D02*
Y386085D01*
X365341D01*
X364717Y386398D01*
X364404Y386711D01*
X364091Y387335D01*
Y387961D01*
X364404Y388585D01*
X364717Y388898D01*
X365341Y389211D01*
X366591D01*
X367217Y388898D01*
X367529Y388585D01*
X367841Y387961D01*
Y387335D01*
X367529Y386711D01*
X367217Y386398D01*
X366591Y386085D01*
X395654Y387023D02*
Y386085D01*
X395341D01*
X394717Y386398D01*
X394404Y386711D01*
X394091Y387335D01*
Y387961D01*
X394404Y388585D01*
X394717Y388898D01*
X395341Y389211D01*
X396591D01*
X397217Y388898D01*
X397529Y388585D01*
X397841Y387961D01*
Y387335D01*
X397529Y386711D01*
X397217Y386398D01*
X396591Y386085D01*
X420654Y387023D02*
Y386085D01*
X420341D01*
X419717Y386398D01*
X419404Y386711D01*
X419091Y387335D01*
Y387961D01*
X419404Y388585D01*
X419717Y388898D01*
X420341Y389211D01*
X421591D01*
X422217Y388898D01*
X422529Y388585D01*
X422841Y387961D01*
Y387335D01*
X422529Y386711D01*
X422217Y386398D01*
X421591Y386085D01*
X424091Y389211D02*
X427841D01*
Y386085D01*
X425967Y386711D02*
Y389211D01*
X424091D02*
Y386085D01*
X443154Y387023D02*
Y386085D01*
X442841D01*
X442217Y386398D01*
X441904Y386711D01*
X441591Y387335D01*
Y387961D01*
X441904Y388585D01*
X442217Y388898D01*
X442841Y389211D01*
X444091D01*
X444717Y388898D01*
X445029Y388585D01*
X445341Y387961D01*
Y387335D01*
X445029Y386711D01*
X444717Y386398D01*
X444091Y386085D01*
X465654Y387023D02*
Y386085D01*
X465341D01*
X464717Y386398D01*
X464404Y386711D01*
X464091Y387335D01*
Y387961D01*
X464404Y388585D01*
X464717Y388898D01*
X465341Y389211D01*
X466591D01*
X467217Y388898D01*
X467529Y388585D01*
X467841Y387961D01*
Y387335D01*
X467529Y386711D01*
X467217Y386398D01*
X466591Y386085D01*
X495654Y387023D02*
Y386085D01*
X495341D01*
X494717Y386398D01*
X494404Y386711D01*
X494091Y387335D01*
Y387961D01*
X494404Y388585D01*
X494717Y388898D01*
X495341Y389211D01*
X496591D01*
X497217Y388898D01*
X497529Y388585D01*
X497841Y387961D01*
Y387335D01*
X497529Y386711D01*
X497217Y386398D01*
X496591Y386085D01*
X515654Y387023D02*
Y386085D01*
X515341D01*
X514717Y386398D01*
X514404Y386711D01*
X514091Y387335D01*
Y387961D01*
X514404Y388585D01*
X514717Y388898D01*
X515341Y389211D01*
X516591D01*
X517217Y388898D01*
X517529Y388585D01*
X517841Y387961D01*
Y387335D01*
X517529Y386711D01*
X517217Y386398D01*
X516591Y386085D01*
X522591Y389211D02*
X526341D01*
Y386085D01*
X524466Y386711D02*
Y389211D01*
X522591D02*
Y386085D01*
X540654Y387023D02*
Y386085D01*
X540341D01*
X539717Y386398D01*
X539404Y386711D01*
X539091Y387335D01*
Y387961D01*
X539404Y388585D01*
X539717Y388898D01*
X540341Y389211D01*
X541591D01*
X542217Y388898D01*
X542529Y388585D01*
X542841Y387961D01*
Y387335D01*
X542529Y386711D01*
X542217Y386398D01*
X541591Y386085D01*
X565654Y387023D02*
Y386085D01*
X565341D01*
X564717Y386398D01*
X564404Y386711D01*
X564091Y387335D01*
Y387961D01*
X564404Y388585D01*
X564717Y388898D01*
X565341Y389211D01*
X566591D01*
X567217Y388898D01*
X567529Y388585D01*
X567841Y387961D01*
Y387335D01*
X567529Y386711D01*
X567217Y386398D01*
X566591Y386085D01*
X595654Y387023D02*
Y386085D01*
X595341D01*
X594717Y386398D01*
X594404Y386711D01*
X594091Y387335D01*
Y387961D01*
X594404Y388585D01*
X594717Y388898D01*
X595341Y389211D01*
X596591D01*
X597217Y388898D01*
X597529Y388585D01*
X597841Y387961D01*
Y387335D01*
X597529Y386711D01*
X597217Y386398D01*
X596591Y386085D01*
X615654Y387023D02*
Y386085D01*
X615341D01*
X614717Y386398D01*
X614404Y386711D01*
X614091Y387335D01*
Y387961D01*
X614404Y388585D01*
X614717Y388898D01*
X615341Y389211D01*
X616591D01*
X617217Y388898D01*
X617529Y388585D01*
X617841Y387961D01*
Y387335D01*
X617529Y386711D01*
X617217Y386398D01*
X616591Y386085D01*
X622841Y389211D02*
X626591D01*
Y386085D01*
X624717Y386711D02*
Y389211D01*
X622841D02*
Y386085D01*
X750302Y379417D02*
X754052Y377855D01*
X750302Y376292D01*
X751865Y378792D02*
Y376917D01*
X750302Y374417D02*
X754052D01*
X752177D02*
Y371292D01*
X750302D02*
X754052D01*
X668154Y377023D02*
Y376085D01*
X667841D01*
X667217Y376398D01*
X666904Y376711D01*
X666591Y377335D01*
Y377961D01*
X666904Y378585D01*
X667217Y378898D01*
X667841Y379211D01*
X669091D01*
X669717Y378898D01*
X670029Y378585D01*
X670341Y377961D01*
Y377335D01*
X670029Y376711D01*
X669717Y376398D01*
X669091Y376085D01*
X693154Y377023D02*
Y376085D01*
X692841D01*
X692217Y376398D01*
X691904Y376711D01*
X691591Y377335D01*
Y377961D01*
X691904Y378585D01*
X692217Y378898D01*
X692841Y379211D01*
X694091D01*
X694717Y378898D01*
X695029Y378585D01*
X695341Y377961D01*
Y377335D01*
X695029Y376711D01*
X694717Y376398D01*
X694091Y376085D01*
X199091Y374211D02*
X202841D01*
Y372023D01*
X202529Y371398D01*
X201904Y371085D01*
X201279Y371398D01*
X200967Y372023D01*
Y374211D01*
Y372023D02*
X199091Y371085D01*
X209091Y374211D02*
X212841D01*
Y372023D01*
X212529Y371398D01*
X211904Y371085D01*
X211279Y371398D01*
X210967Y372023D01*
Y374211D01*
Y372023D02*
X209091Y371085D01*
X219091Y374211D02*
X222841D01*
Y372023D01*
X222529Y371398D01*
X221904Y371085D01*
X221279Y371398D01*
X220967Y372023D01*
Y374211D01*
Y372023D02*
X219091Y371085D01*
X229091Y374211D02*
X232841D01*
Y372023D01*
X232529Y371398D01*
X231904Y371085D01*
X231279Y371398D01*
X230967Y372023D01*
Y374211D01*
Y372023D02*
X229091Y371085D01*
X239091Y374211D02*
X242841D01*
Y372023D01*
X242529Y371398D01*
X241904Y371085D01*
X241279Y371398D01*
X240967Y372023D01*
Y374211D01*
Y372023D02*
X239091Y371085D01*
X249091Y374211D02*
X252841D01*
Y372023D01*
X252529Y371398D01*
X251904Y371085D01*
X251279Y371398D01*
X250967Y372023D01*
Y374211D01*
Y372023D02*
X249091Y371085D01*
X259091Y374211D02*
X262841D01*
Y372023D01*
X262529Y371398D01*
X261904Y371085D01*
X261279Y371398D01*
X260967Y372023D01*
Y374211D01*
Y372023D02*
X259091Y371085D01*
X615654Y372023D02*
Y371085D01*
X615341D01*
X614717Y371398D01*
X614404Y371711D01*
X614091Y372335D01*
Y372961D01*
X614404Y373585D01*
X614717Y373898D01*
X615341Y374211D01*
X616591D01*
X617217Y373898D01*
X617529Y373585D01*
X617841Y372961D01*
Y372335D01*
X617529Y371711D01*
X617217Y371398D01*
X616591Y371085D01*
X640654Y372023D02*
Y371085D01*
X640341D01*
X639717Y371398D01*
X639404Y371711D01*
X639091Y372335D01*
Y372961D01*
X639404Y373585D01*
X639717Y373898D01*
X640341Y374211D01*
X641591D01*
X642217Y373898D01*
X642529Y373585D01*
X642841Y372961D01*
Y372335D01*
X642529Y371711D01*
X642217Y371398D01*
X641591Y371085D01*
X768154Y367023D02*
Y366085D01*
X767841D01*
X767217Y366398D01*
X766904Y366711D01*
X766591Y367335D01*
Y367961D01*
X766904Y368585D01*
X767217Y368898D01*
X767841Y369211D01*
X769091D01*
X769717Y368898D01*
X770029Y368585D01*
X770341Y367961D01*
Y367335D01*
X770029Y366711D01*
X769717Y366398D01*
X769091Y366085D01*
X254514Y369191D02*
X258264D01*
Y366065D01*
X256389Y366691D02*
Y369191D01*
X254514D02*
Y366065D01*
X380341Y367970D02*
X381591D01*
X382216Y367658D01*
X382528Y367345D01*
X382841Y366720D01*
Y366095D01*
X382528Y365470D01*
X382216Y365158D01*
X381591Y364845D01*
X380341D01*
X379716Y365158D01*
X379403Y365470D01*
X379091Y366095D01*
Y366720D01*
X379403Y367345D01*
X379716Y367658D01*
X380341Y367970D01*
X380028Y365783D02*
X379091Y364845D01*
X480341Y367948D02*
X481591D01*
X482216Y367635D01*
X482528Y367323D01*
X482841Y366698D01*
Y366073D01*
X482528Y365448D01*
X482216Y365135D01*
X481591Y364823D01*
X480341D01*
X479716Y365135D01*
X479403Y365448D01*
X479091Y366073D01*
Y366698D01*
X479403Y367323D01*
X479716Y367635D01*
X480341Y367948D01*
X480028Y365761D02*
X479091Y364823D01*
X580342Y367948D02*
X581592D01*
X582217Y367635D01*
X582530Y367322D01*
X582842Y366698D01*
Y366072D01*
X582530Y365448D01*
X582217Y365135D01*
X581592Y364822D01*
X580342D01*
X579717Y365135D01*
X579404Y365448D01*
X579092Y366072D01*
Y366698D01*
X579404Y367322D01*
X579717Y367635D01*
X580342Y367948D01*
X580030Y365760D02*
X579092Y364822D01*
X680342Y367948D02*
X681592D01*
X682217Y367635D01*
X682530Y367322D01*
X682842Y366698D01*
Y366072D01*
X682530Y365448D01*
X682217Y365135D01*
X681592Y364822D01*
X680342D01*
X679717Y365135D01*
X679404Y365448D01*
X679092Y366072D01*
Y366698D01*
X679404Y367322D01*
X679717Y367635D01*
X680342Y367948D01*
X680030Y365760D02*
X679092Y364822D01*
X244030Y366711D02*
X247780D01*
Y363585D01*
X245906Y364211D02*
Y366711D01*
X244030D02*
Y363585D01*
X252143Y366711D02*
X255893D01*
Y363585D01*
X254018Y364211D02*
Y366711D01*
X252143D02*
Y363585D01*
X495654Y364523D02*
Y363585D01*
X495341D01*
X494717Y363898D01*
X494404Y364211D01*
X494091Y364835D01*
Y365461D01*
X494404Y366085D01*
X494717Y366398D01*
X495341Y366711D01*
X496591D01*
X497217Y366398D01*
X497529Y366085D01*
X497841Y365461D01*
Y364835D01*
X497529Y364211D01*
X497217Y363898D01*
X496591Y363585D01*
X515654Y364523D02*
Y363585D01*
X515341D01*
X514717Y363898D01*
X514404Y364211D01*
X514091Y364835D01*
Y365461D01*
X514404Y366085D01*
X514717Y366398D01*
X515341Y366711D01*
X516591D01*
X517217Y366398D01*
X517529Y366085D01*
X517841Y365461D01*
Y364835D01*
X517529Y364211D01*
X517217Y363898D01*
X516591Y363585D01*
X540654Y364523D02*
Y363585D01*
X540341D01*
X539717Y363898D01*
X539404Y364211D01*
X539091Y364835D01*
Y365461D01*
X539404Y366085D01*
X539717Y366398D01*
X540341Y366711D01*
X541591D01*
X542217Y366398D01*
X542529Y366085D01*
X542841Y365461D01*
Y364835D01*
X542529Y364211D01*
X542217Y363898D01*
X541591Y363585D01*
X565654Y364523D02*
Y363585D01*
X565341D01*
X564717Y363898D01*
X564404Y364211D01*
X564091Y364835D01*
Y365461D01*
X564404Y366085D01*
X564717Y366398D01*
X565341Y366711D01*
X566591D01*
X567217Y366398D01*
X567529Y366085D01*
X567841Y365461D01*
Y364835D01*
X567529Y364211D01*
X567217Y363898D01*
X566591Y363585D01*
X595654Y364523D02*
Y363585D01*
X595341D01*
X594717Y363898D01*
X594404Y364211D01*
X594091Y364835D01*
Y365461D01*
X594404Y366085D01*
X594717Y366398D01*
X595341Y366711D01*
X596591D01*
X597217Y366398D01*
X597529Y366085D01*
X597841Y365461D01*
Y364835D01*
X597529Y364211D01*
X597217Y363898D01*
X596591Y363585D01*
X135653Y362023D02*
Y361085D01*
X135341D01*
X134716Y361398D01*
X134403Y361711D01*
X134091Y362335D01*
Y362961D01*
X134403Y363585D01*
X134716Y363898D01*
X135341Y364211D01*
X136591D01*
X137216Y363898D01*
X137528Y363585D01*
X137841Y362961D01*
Y362335D01*
X137528Y361711D01*
X137216Y361398D01*
X136591Y361085D01*
X160653Y362023D02*
Y361085D01*
X160341D01*
X159716Y361398D01*
X159403Y361711D01*
X159091Y362335D01*
Y362961D01*
X159403Y363585D01*
X159716Y363898D01*
X160341Y364211D01*
X161591D01*
X162216Y363898D01*
X162528Y363585D01*
X162841Y362961D01*
Y362335D01*
X162528Y361711D01*
X162216Y361398D01*
X161591Y361085D01*
X185654Y362023D02*
Y361085D01*
X185341D01*
X184717Y361398D01*
X184404Y361711D01*
X184091Y362335D01*
Y362961D01*
X184404Y363585D01*
X184717Y363898D01*
X185341Y364211D01*
X186591D01*
X187217Y363898D01*
X187529Y363585D01*
X187841Y362961D01*
Y362335D01*
X187529Y361711D01*
X187217Y361398D01*
X186591Y361085D01*
X210654Y362023D02*
Y361085D01*
X210341D01*
X209717Y361398D01*
X209404Y361711D01*
X209091Y362335D01*
Y362961D01*
X209404Y363585D01*
X209717Y363898D01*
X210341Y364211D01*
X211591D01*
X212217Y363898D01*
X212529Y363585D01*
X212841Y362961D01*
Y362335D01*
X212529Y361711D01*
X212217Y361398D01*
X211591Y361085D01*
X235654Y362023D02*
Y361085D01*
X235341D01*
X234717Y361398D01*
X234404Y361711D01*
X234091Y362335D01*
Y362961D01*
X234404Y363585D01*
X234717Y363898D01*
X235341Y364211D01*
X236591D01*
X237217Y363898D01*
X237529Y363585D01*
X237841Y362961D01*
Y362335D01*
X237529Y361711D01*
X237217Y361398D01*
X236591Y361085D01*
X249771Y364211D02*
X253521D01*
Y361085D01*
X251646Y361711D02*
Y364211D01*
X249771D02*
Y361085D01*
X310654Y362023D02*
Y361085D01*
X310341D01*
X309717Y361398D01*
X309404Y361711D01*
X309091Y362335D01*
Y362961D01*
X309404Y363585D01*
X309717Y363898D01*
X310341Y364211D01*
X311591D01*
X312217Y363898D01*
X312529Y363585D01*
X312841Y362961D01*
Y362335D01*
X312529Y361711D01*
X312217Y361398D01*
X311591Y361085D01*
X335654Y362023D02*
Y361085D01*
X335341D01*
X334717Y361398D01*
X334404Y361711D01*
X334091Y362335D01*
Y362961D01*
X334404Y363585D01*
X334717Y363898D01*
X335341Y364211D01*
X336591D01*
X337217Y363898D01*
X337529Y363585D01*
X337841Y362961D01*
Y362335D01*
X337529Y361711D01*
X337217Y361398D01*
X336591Y361085D01*
X247400Y361711D02*
X251150D01*
Y358585D01*
X249275Y359211D02*
Y361711D01*
X247400D02*
Y358585D01*
X365654Y359523D02*
Y358585D01*
X365341D01*
X364717Y358898D01*
X364404Y359211D01*
X364091Y359835D01*
Y360461D01*
X364404Y361085D01*
X364717Y361398D01*
X365341Y361711D01*
X366591D01*
X367217Y361398D01*
X367529Y361085D01*
X367841Y360461D01*
Y359835D01*
X367529Y359211D01*
X367217Y358898D01*
X366591Y358585D01*
X395654Y359523D02*
Y358585D01*
X395341D01*
X394717Y358898D01*
X394404Y359211D01*
X394091Y359835D01*
Y360461D01*
X394404Y361085D01*
X394717Y361398D01*
X395341Y361711D01*
X396591D01*
X397217Y361398D01*
X397529Y361085D01*
X397841Y360461D01*
Y359835D01*
X397529Y359211D01*
X397217Y358898D01*
X396591Y358585D01*
X420654Y359523D02*
Y358585D01*
X420341D01*
X419717Y358898D01*
X419404Y359211D01*
X419091Y359835D01*
Y360461D01*
X419404Y361085D01*
X419717Y361398D01*
X420341Y361711D01*
X421591D01*
X422217Y361398D01*
X422529Y361085D01*
X422841Y360461D01*
Y359835D01*
X422529Y359211D01*
X422217Y358898D01*
X421591Y358585D01*
X443154Y359523D02*
Y358585D01*
X442841D01*
X442217Y358898D01*
X441904Y359211D01*
X441591Y359835D01*
Y360461D01*
X441904Y361085D01*
X442217Y361398D01*
X442841Y361711D01*
X444091D01*
X444717Y361398D01*
X445029Y361085D01*
X445341Y360461D01*
Y359835D01*
X445029Y359211D01*
X444717Y358898D01*
X444091Y358585D01*
X465654Y359523D02*
Y358585D01*
X465341D01*
X464717Y358898D01*
X464404Y359211D01*
X464091Y359835D01*
Y360461D01*
X464404Y361085D01*
X464717Y361398D01*
X465341Y361711D01*
X466591D01*
X467217Y361398D01*
X467529Y361085D01*
X467841Y360461D01*
Y359835D01*
X467529Y359211D01*
X467217Y358898D01*
X466591Y358585D01*
X615654Y359523D02*
Y358585D01*
X615341D01*
X614717Y358898D01*
X614404Y359211D01*
X614091Y359835D01*
Y360461D01*
X614404Y361085D01*
X614717Y361398D01*
X615341Y361711D01*
X616591D01*
X617217Y361398D01*
X617529Y361085D01*
X617841Y360461D01*
Y359835D01*
X617529Y359211D01*
X617217Y358898D01*
X616591Y358585D01*
X640654Y359523D02*
Y358585D01*
X640341D01*
X639717Y358898D01*
X639404Y359211D01*
X639091Y359835D01*
Y360461D01*
X639404Y361085D01*
X639717Y361398D01*
X640341Y361711D01*
X641591D01*
X642217Y361398D01*
X642529Y361085D01*
X642841Y360461D01*
Y359835D01*
X642529Y359211D01*
X642217Y358898D01*
X641591Y358585D01*
X244904Y359211D02*
X248654D01*
Y356085D01*
X246779Y356711D02*
Y359211D01*
X244904D02*
Y356085D01*
X668154Y357023D02*
Y356085D01*
X667841D01*
X667217Y356398D01*
X666904Y356711D01*
X666591Y357335D01*
Y357961D01*
X666904Y358585D01*
X667217Y358898D01*
X667841Y359211D01*
X669091D01*
X669717Y358898D01*
X670029Y358585D01*
X670341Y357961D01*
Y357335D01*
X670029Y356711D01*
X669717Y356398D01*
X669091Y356085D01*
X693154Y357023D02*
Y356085D01*
X692841D01*
X692217Y356398D01*
X691904Y356711D01*
X691591Y357335D01*
Y357961D01*
X691904Y358585D01*
X692217Y358898D01*
X692841Y359211D01*
X694091D01*
X694717Y358898D01*
X695029Y358585D01*
X695341Y357961D01*
Y357335D01*
X695029Y356711D01*
X694717Y356398D01*
X694091Y356085D01*
X619091Y357961D02*
X622841D01*
Y354835D01*
X620967Y355461D02*
Y357961D01*
X619091D02*
Y354835D01*
X634091Y357961D02*
X637841D01*
Y354835D01*
X635967Y355461D02*
Y357961D01*
X634091D02*
Y354835D01*
X259404Y352023D02*
Y351085D01*
X259091D01*
X258467Y351398D01*
X258154Y351711D01*
X257841Y352335D01*
Y352961D01*
X258154Y353585D01*
X258467Y353898D01*
X259091Y354211D01*
X260341D01*
X260967Y353898D01*
X261279Y353585D01*
X261591Y352961D01*
Y352335D01*
X261279Y351711D01*
X260967Y351398D01*
X260341Y351085D01*
X410654Y352023D02*
Y351085D01*
X410341D01*
X409717Y351398D01*
X409404Y351711D01*
X409091Y352335D01*
Y352961D01*
X409404Y353585D01*
X409717Y353898D01*
X410341Y354211D01*
X411591D01*
X412217Y353898D01*
X412529Y353585D01*
X412841Y352961D01*
Y352335D01*
X412529Y351711D01*
X412217Y351398D01*
X411591Y351085D01*
X519091Y354211D02*
X522841D01*
Y351085D01*
X520967Y351711D02*
Y354211D01*
X519091D02*
Y351085D01*
X529091Y354211D02*
X532841D01*
Y351085D01*
X530967Y351711D02*
Y354211D01*
X529091D02*
Y351085D01*
X619091Y354211D02*
X622841D01*
Y351085D01*
X620967Y351711D02*
Y354211D01*
X619091D02*
Y351085D01*
X634091Y354211D02*
X637841D01*
Y351085D01*
X635967Y351711D02*
Y354211D01*
X634091D02*
Y351085D01*
X160654Y347023D02*
Y346085D01*
X160341D01*
X159717Y346398D01*
X159404Y346711D01*
X159091Y347335D01*
Y347961D01*
X159404Y348585D01*
X159717Y348898D01*
X160341Y349211D01*
X161591D01*
X162217Y348898D01*
X162529Y348585D01*
X162841Y347961D01*
Y347335D01*
X162529Y346711D01*
X162217Y346398D01*
X161591Y346085D01*
X370654Y347023D02*
Y346085D01*
X370341D01*
X369717Y346398D01*
X369404Y346711D01*
X369091Y347335D01*
Y347961D01*
X369404Y348585D01*
X369717Y348898D01*
X370341Y349211D01*
X371591D01*
X372217Y348898D01*
X372529Y348585D01*
X372841Y347961D01*
Y347335D01*
X372529Y346711D01*
X372217Y346398D01*
X371591Y346085D01*
X475654Y347023D02*
Y346085D01*
X475341D01*
X474717Y346398D01*
X474404Y346711D01*
X474091Y347335D01*
Y347961D01*
X474404Y348585D01*
X474717Y348898D01*
X475341Y349211D01*
X476591D01*
X477217Y348898D01*
X477529Y348585D01*
X477841Y347961D01*
Y347335D01*
X477529Y346711D01*
X477217Y346398D01*
X476591Y346085D01*
X518154Y347023D02*
Y346085D01*
X517841D01*
X517217Y346398D01*
X516904Y346711D01*
X516591Y347335D01*
Y347961D01*
X516904Y348585D01*
X517217Y348898D01*
X517841Y349211D01*
X519091D01*
X519717Y348898D01*
X520029Y348585D01*
X520341Y347961D01*
Y347335D01*
X520029Y346711D01*
X519717Y346398D01*
X519091Y346085D01*
X615654Y347023D02*
Y346085D01*
X615341D01*
X614717Y346398D01*
X614404Y346711D01*
X614091Y347335D01*
Y347961D01*
X614404Y348585D01*
X614717Y348898D01*
X615341Y349211D01*
X616591D01*
X617217Y348898D01*
X617529Y348585D01*
X617841Y347961D01*
Y347335D01*
X617529Y346711D01*
X617217Y346398D01*
X616591Y346085D01*
X135653Y346746D02*
Y345809D01*
X135341D01*
X134716Y346121D01*
X134403Y346434D01*
X134091Y347059D01*
Y347684D01*
X134403Y348309D01*
X134716Y348621D01*
X135341Y348934D01*
X136591D01*
X137216Y348621D01*
X137528Y348309D01*
X137841Y347684D01*
Y347059D01*
X137528Y346434D01*
X137216Y346121D01*
X136591Y345809D01*
X224091Y344355D02*
X227841D01*
Y342167D01*
X227529Y341542D01*
X226904Y341230D01*
X226279Y341542D01*
X225967Y342167D01*
Y344355D01*
Y342167D02*
X224091Y341230D01*
X244640Y341128D02*
X244327Y341441D01*
X244015Y342066D01*
Y343004D01*
X244327Y343628D01*
X244640Y343941D01*
X245265Y344254D01*
X246515D01*
X247140Y343941D01*
X247452Y343628D01*
X247765Y343004D01*
Y342066D01*
X247452Y341441D01*
X247140Y341128D01*
X264640D02*
X264327Y341441D01*
X264015Y342066D01*
Y343004D01*
X264327Y343628D01*
X264640Y343941D01*
X265265Y344254D01*
X266515D01*
X267140Y343941D01*
X267452Y343628D01*
X267765Y343004D01*
Y342066D01*
X267452Y341441D01*
X267140Y341128D01*
X285311Y344230D02*
X286561D01*
X287186Y343917D01*
X287498Y343605D01*
X287811Y342980D01*
Y342355D01*
X287498Y341730D01*
X287186Y341417D01*
X286561Y341105D01*
X285311D01*
X284686Y341417D01*
X284373Y341730D01*
X284061Y342355D01*
Y342980D01*
X284373Y343605D01*
X284686Y343917D01*
X285311Y344230D01*
X295311D02*
X296561D01*
X297186Y343917D01*
X297498Y343605D01*
X297811Y342980D01*
Y342355D01*
X297498Y341730D01*
X297186Y341417D01*
X296561Y341105D01*
X295311D01*
X294686Y341417D01*
X294373Y341730D01*
X294061Y342355D01*
Y342980D01*
X294373Y343605D01*
X294686Y343917D01*
X295311Y344230D01*
X305311D02*
X306561D01*
X307186Y343917D01*
X307498Y343605D01*
X307811Y342980D01*
Y342355D01*
X307498Y341730D01*
X307186Y341417D01*
X306561Y341105D01*
X305311D01*
X304686Y341417D01*
X304373Y341730D01*
X304061Y342355D01*
Y342980D01*
X304373Y343605D01*
X304686Y343917D01*
X305311Y344230D01*
X185654Y342023D02*
Y341085D01*
X185341D01*
X184717Y341398D01*
X184404Y341711D01*
X184091Y342335D01*
Y342961D01*
X184404Y343585D01*
X184717Y343898D01*
X185341Y344211D01*
X186591D01*
X187217Y343898D01*
X187529Y343585D01*
X187841Y342961D01*
Y342335D01*
X187529Y341711D01*
X187217Y341398D01*
X186591Y341085D01*
X210654Y342023D02*
Y341085D01*
X210341D01*
X209717Y341398D01*
X209404Y341711D01*
X209091Y342335D01*
Y342961D01*
X209404Y343585D01*
X209717Y343898D01*
X210341Y344211D01*
X211591D01*
X212217Y343898D01*
X212529Y343585D01*
X212841Y342961D01*
Y342335D01*
X212529Y341711D01*
X212217Y341398D01*
X211591Y341085D01*
X320654Y342023D02*
Y341085D01*
X320341D01*
X319717Y341398D01*
X319404Y341711D01*
X319091Y342335D01*
Y342961D01*
X319404Y343585D01*
X319717Y343898D01*
X320341Y344211D01*
X321591D01*
X322217Y343898D01*
X322529Y343585D01*
X322841Y342961D01*
Y342335D01*
X322529Y341711D01*
X322217Y341398D01*
X321591Y341085D01*
X333915Y344211D02*
X337665D01*
X335790D02*
Y343273D01*
X337665Y341085D01*
X335790Y343273D02*
X333915Y341085D01*
X343915Y344211D02*
X347665D01*
X345790D02*
Y343273D01*
X347665Y341085D01*
X345790Y343273D02*
X343915Y341085D01*
X414091Y344211D02*
X417841D01*
Y341085D01*
X415967Y341711D02*
Y344211D01*
X414091D02*
Y341085D01*
X434132Y344211D02*
X437882D01*
X436007D02*
Y343273D01*
X437882Y341085D01*
X436007Y343273D02*
X434132Y341085D01*
X444132Y344211D02*
X447882D01*
X446007D02*
Y343273D01*
X447882Y341085D01*
X446007Y343273D02*
X444132Y341085D01*
X519091Y344211D02*
X522841D01*
Y341085D01*
X520967Y341711D02*
Y344211D01*
X519091D02*
Y341085D01*
X534091Y344211D02*
X537841D01*
X535967D02*
Y343273D01*
X537841Y341085D01*
X535967Y343273D02*
X534091Y341085D01*
X544091Y344211D02*
X547841D01*
X545967D02*
Y343273D01*
X547841Y341085D01*
X545967Y343273D02*
X544091Y341085D01*
X619114Y344211D02*
X622864D01*
Y341085D01*
X620989Y341711D02*
Y344211D01*
X619114D02*
Y341085D01*
X634024Y344211D02*
X637774D01*
X635900D02*
Y343273D01*
X637774Y341085D01*
X635900Y343273D02*
X634024Y341085D01*
X644024Y344211D02*
X647774D01*
X645900D02*
Y343273D01*
X647774Y341085D01*
X645900Y343273D02*
X644024Y341085D01*
X720654Y342023D02*
Y341085D01*
X720341D01*
X719717Y341398D01*
X719404Y341711D01*
X719091Y342335D01*
Y342961D01*
X719404Y343585D01*
X719717Y343898D01*
X720341Y344211D01*
X721591D01*
X722217Y343898D01*
X722529Y343585D01*
X722841Y342961D01*
Y342335D01*
X722529Y341711D01*
X722217Y341398D01*
X721591Y341085D01*
X745654Y342023D02*
Y341085D01*
X745341D01*
X744717Y341398D01*
X744404Y341711D01*
X744091Y342335D01*
Y342961D01*
X744404Y343585D01*
X744717Y343898D01*
X745341Y344211D01*
X746591D01*
X747217Y343898D01*
X747529Y343585D01*
X747841Y342961D01*
Y342335D01*
X747529Y341711D01*
X747217Y341398D01*
X746591Y341085D01*
X768154Y342023D02*
Y341085D01*
X767841D01*
X767217Y341398D01*
X766904Y341711D01*
X766591Y342335D01*
Y342961D01*
X766904Y343585D01*
X767217Y343898D01*
X767841Y344211D01*
X769091D01*
X769717Y343898D01*
X770029Y343585D01*
X770341Y342961D01*
Y342335D01*
X770029Y341711D01*
X769717Y341398D01*
X769091Y341085D01*
X315654Y337023D02*
Y336085D01*
X315341D01*
X314717Y336398D01*
X314404Y336711D01*
X314091Y337335D01*
Y337961D01*
X314404Y338585D01*
X314717Y338898D01*
X315341Y339211D01*
X316591D01*
X317217Y338898D01*
X317529Y338585D01*
X317841Y337961D01*
Y337335D01*
X317529Y336711D01*
X317217Y336398D01*
X316591Y336085D01*
X365654Y337023D02*
Y336085D01*
X365341D01*
X364717Y336398D01*
X364404Y336711D01*
X364091Y337335D01*
Y337961D01*
X364404Y338585D01*
X364717Y338898D01*
X365341Y339211D01*
X366591D01*
X367217Y338898D01*
X367529Y338585D01*
X367841Y337961D01*
Y337335D01*
X367529Y336711D01*
X367217Y336398D01*
X366591Y336085D01*
X465654Y337023D02*
Y336085D01*
X465341D01*
X464717Y336398D01*
X464404Y336711D01*
X464091Y337335D01*
Y337961D01*
X464404Y338585D01*
X464717Y338898D01*
X465341Y339211D01*
X466591D01*
X467217Y338898D01*
X467529Y338585D01*
X467841Y337961D01*
Y337335D01*
X467529Y336711D01*
X467217Y336398D01*
X466591Y336085D01*
X565654Y337023D02*
Y336085D01*
X565341D01*
X564717Y336398D01*
X564404Y336711D01*
X564091Y337335D01*
Y337961D01*
X564404Y338585D01*
X564717Y338898D01*
X565341Y339211D01*
X566591D01*
X567217Y338898D01*
X567529Y338585D01*
X567841Y337961D01*
Y337335D01*
X567529Y336711D01*
X567217Y336398D01*
X566591Y336085D01*
X369716Y331085D02*
X369403Y331398D01*
X369091Y332023D01*
Y332961D01*
X369403Y333585D01*
X369716Y333898D01*
X370341Y334211D01*
X371591D01*
X372216Y333898D01*
X372528Y333585D01*
X372841Y332961D01*
Y332023D01*
X372528Y331398D01*
X372216Y331085D01*
X389716D02*
X389403Y331398D01*
X389091Y332023D01*
Y332961D01*
X389403Y333585D01*
X389716Y333898D01*
X390341Y334211D01*
X391591D01*
X392216Y333898D01*
X392528Y333585D01*
X392841Y332961D01*
Y332023D01*
X392528Y331398D01*
X392216Y331085D01*
X678154Y332023D02*
Y331085D01*
X677841D01*
X677217Y331398D01*
X676904Y331711D01*
X676591Y332335D01*
Y332961D01*
X676904Y333585D01*
X677217Y333898D01*
X677841Y334211D01*
X679091D01*
X679717Y333898D01*
X680029Y333585D01*
X680341Y332961D01*
Y332335D01*
X680029Y331711D01*
X679717Y331398D01*
X679091Y331085D01*
X700654Y332023D02*
Y331085D01*
X700341D01*
X699717Y331398D01*
X699404Y331711D01*
X699091Y332335D01*
Y332961D01*
X699404Y333585D01*
X699717Y333898D01*
X700341Y334211D01*
X701591D01*
X702217Y333898D01*
X702529Y333585D01*
X702841Y332961D01*
Y332335D01*
X702529Y331711D01*
X702217Y331398D01*
X701591Y331085D01*
X469716Y331063D02*
X469403Y331376D01*
X469091Y332001D01*
Y332938D01*
X469403Y333563D01*
X469716Y333876D01*
X470341Y334188D01*
X471591D01*
X472216Y333876D01*
X472528Y333563D01*
X472841Y332938D01*
Y332001D01*
X472528Y331376D01*
X472216Y331063D01*
X489716D02*
X489403Y331376D01*
X489091Y332001D01*
Y332938D01*
X489403Y333563D01*
X489716Y333876D01*
X490341Y334188D01*
X491591D01*
X492216Y333876D01*
X492528Y333563D01*
X492841Y332938D01*
Y332001D01*
X492528Y331376D01*
X492216Y331063D01*
X569717Y331063D02*
X569404Y331375D01*
X569092Y332000D01*
Y332938D01*
X569404Y333563D01*
X569717Y333875D01*
X570342Y334188D01*
X571592D01*
X572217Y333875D01*
X572530Y333563D01*
X572842Y332938D01*
Y332000D01*
X572530Y331375D01*
X572217Y331063D01*
X589717D02*
X589404Y331375D01*
X589092Y332000D01*
Y332938D01*
X589404Y333563D01*
X589717Y333875D01*
X590342Y334188D01*
X591592D01*
X592217Y333875D01*
X592530Y333563D01*
X592842Y332938D01*
Y332000D01*
X592530Y331375D01*
X592217Y331063D01*
X669717D02*
X669404Y331375D01*
X669092Y332000D01*
Y332938D01*
X669404Y333563D01*
X669717Y333875D01*
X670342Y334188D01*
X671592D01*
X672217Y333875D01*
X672530Y333563D01*
X672842Y332938D01*
Y332000D01*
X672530Y331375D01*
X672217Y331063D01*
X689717D02*
X689404Y331375D01*
X689092Y332000D01*
Y332938D01*
X689404Y333563D01*
X689717Y333875D01*
X690342Y334188D01*
X691592D01*
X692217Y333875D01*
X692530Y333563D01*
X692842Y332938D01*
Y332000D01*
X692530Y331375D01*
X692217Y331063D01*
X189091Y333787D02*
X192841D01*
X190967Y332225D01*
X192841Y330662D01*
X189091D01*
X385654Y329523D02*
Y328585D01*
X385341D01*
X384717Y328898D01*
X384404Y329211D01*
X384091Y329835D01*
Y330461D01*
X384404Y331085D01*
X384717Y331398D01*
X385341Y331711D01*
X386591D01*
X387217Y331398D01*
X387529Y331085D01*
X387841Y330461D01*
Y329835D01*
X387529Y329211D01*
X387217Y328898D01*
X386591Y328585D01*
X485654Y329523D02*
Y328585D01*
X485341D01*
X484717Y328898D01*
X484404Y329211D01*
X484091Y329835D01*
Y330461D01*
X484404Y331085D01*
X484717Y331398D01*
X485341Y331711D01*
X486591D01*
X487217Y331398D01*
X487529Y331085D01*
X487841Y330461D01*
Y329835D01*
X487529Y329211D01*
X487217Y328898D01*
X486591Y328585D01*
X585654Y329523D02*
Y328585D01*
X585341D01*
X584717Y328898D01*
X584404Y329211D01*
X584091Y329835D01*
Y330461D01*
X584404Y331085D01*
X584717Y331398D01*
X585341Y331711D01*
X586591D01*
X587217Y331398D01*
X587529Y331085D01*
X587841Y330461D01*
Y329835D01*
X587529Y329211D01*
X587217Y328898D01*
X586591Y328585D01*
X440654Y327023D02*
Y326085D01*
X440341D01*
X439717Y326398D01*
X439404Y326711D01*
X439091Y327335D01*
Y327961D01*
X439404Y328585D01*
X439717Y328898D01*
X440341Y329211D01*
X441591D01*
X442217Y328898D01*
X442529Y328585D01*
X442841Y327961D01*
Y327335D01*
X442529Y326711D01*
X442217Y326398D01*
X441591Y326085D01*
X545654Y327023D02*
Y326085D01*
X545341D01*
X544717Y326398D01*
X544404Y326711D01*
X544091Y327335D01*
Y327961D01*
X544404Y328585D01*
X544717Y328898D01*
X545341Y329211D01*
X546591D01*
X547217Y328898D01*
X547529Y328585D01*
X547841Y327961D01*
Y327335D01*
X547529Y326711D01*
X547217Y326398D01*
X546591Y326085D01*
X158068Y324545D02*
X161818D01*
X159943D02*
Y321420D01*
X158068D02*
X161818D01*
X264640Y321128D02*
X264327Y321441D01*
X264015Y322066D01*
Y323004D01*
X264327Y323628D01*
X264640Y323941D01*
X265265Y324254D01*
X266515D01*
X267140Y323941D01*
X267452Y323628D01*
X267765Y323004D01*
Y322066D01*
X267452Y321441D01*
X267140Y321128D01*
X369716Y321085D02*
X369403Y321398D01*
X369091Y322023D01*
Y322961D01*
X369403Y323585D01*
X369716Y323898D01*
X370341Y324211D01*
X371591D01*
X372216Y323898D01*
X372528Y323585D01*
X372841Y322961D01*
Y322023D01*
X372528Y321398D01*
X372216Y321085D01*
X389716D02*
X389403Y321398D01*
X389091Y322023D01*
Y322961D01*
X389403Y323585D01*
X389716Y323898D01*
X390341Y324211D01*
X391591D01*
X392216Y323898D01*
X392528Y323585D01*
X392841Y322961D01*
Y322023D01*
X392528Y321398D01*
X392216Y321085D01*
X469716Y321063D02*
X469403Y321376D01*
X469091Y322001D01*
Y322938D01*
X469403Y323563D01*
X469716Y323876D01*
X470341Y324188D01*
X471591D01*
X472216Y323876D01*
X472528Y323563D01*
X472841Y322938D01*
Y322001D01*
X472528Y321376D01*
X472216Y321063D01*
X489716D02*
X489403Y321376D01*
X489091Y322001D01*
Y322938D01*
X489403Y323563D01*
X489716Y323876D01*
X490341Y324188D01*
X491591D01*
X492216Y323876D01*
X492528Y323563D01*
X492841Y322938D01*
Y322001D01*
X492528Y321376D01*
X492216Y321063D01*
X569717Y321063D02*
X569404Y321375D01*
X569092Y322000D01*
Y322938D01*
X569404Y323563D01*
X569717Y323875D01*
X570342Y324188D01*
X571592D01*
X572217Y323875D01*
X572530Y323563D01*
X572842Y322938D01*
Y322000D01*
X572530Y321375D01*
X572217Y321063D01*
X589717D02*
X589404Y321375D01*
X589092Y322000D01*
Y322938D01*
X589404Y323563D01*
X589717Y323875D01*
X590342Y324188D01*
X591592D01*
X592217Y323875D01*
X592530Y323563D01*
X592842Y322938D01*
Y322000D01*
X592530Y321375D01*
X592217Y321063D01*
X669717D02*
X669404Y321375D01*
X669092Y322000D01*
Y322938D01*
X669404Y323563D01*
X669717Y323875D01*
X670342Y324188D01*
X671592D01*
X672217Y323875D01*
X672530Y323563D01*
X672842Y322938D01*
Y322000D01*
X672530Y321375D01*
X672217Y321063D01*
X689717D02*
X689404Y321375D01*
X689092Y322000D01*
Y322938D01*
X689404Y323563D01*
X689717Y323875D01*
X690342Y324188D01*
X691592D01*
X692217Y323875D01*
X692530Y323563D01*
X692842Y322938D01*
Y322000D01*
X692530Y321375D01*
X692217Y321063D01*
X204091Y324076D02*
X207841D01*
X205966Y322513D01*
X207841Y320950D01*
X204091D01*
X178353Y323719D02*
X174603D01*
Y320593D01*
X196420Y320327D02*
Y319389D01*
X196108D01*
X195483Y319702D01*
X195170Y320014D01*
X194858Y320639D01*
Y321264D01*
X195170Y321889D01*
X195483Y322202D01*
X196108Y322514D01*
X197358D01*
X197983Y322202D01*
X198296Y321889D01*
X198608Y321264D01*
Y320639D01*
X198296Y320014D01*
X197983Y319702D01*
X197358Y319389D01*
X720654Y317023D02*
Y316085D01*
X720341D01*
X719717Y316398D01*
X719404Y316711D01*
X719091Y317335D01*
Y317961D01*
X719404Y318585D01*
X719717Y318898D01*
X720341Y319211D01*
X721591D01*
X722217Y318898D01*
X722529Y318585D01*
X722841Y317961D01*
Y317335D01*
X722529Y316711D01*
X722217Y316398D01*
X721591Y316085D01*
X745654Y317023D02*
Y316085D01*
X745341D01*
X744717Y316398D01*
X744404Y316711D01*
X744091Y317335D01*
Y317961D01*
X744404Y318585D01*
X744717Y318898D01*
X745341Y319211D01*
X746591D01*
X747217Y318898D01*
X747529Y318585D01*
X747841Y317961D01*
Y317335D01*
X747529Y316711D01*
X747217Y316398D01*
X746591Y316085D01*
X768154Y317023D02*
Y316085D01*
X767841D01*
X767217Y316398D01*
X766904Y316711D01*
X766591Y317335D01*
Y317961D01*
X766904Y318585D01*
X767217Y318898D01*
X767841Y319211D01*
X769091D01*
X769717Y318898D01*
X770029Y318585D01*
X770341Y317961D01*
Y317335D01*
X770029Y316711D01*
X769717Y316398D01*
X769091Y316085D01*
X290341Y316711D02*
Y313585D01*
X286591Y316711D01*
Y313585D01*
X300341Y316711D02*
Y313585D01*
X296591Y316711D01*
Y313585D01*
X224091Y314355D02*
X227841D01*
Y312167D01*
X227529Y311542D01*
X226904Y311230D01*
X226279Y311542D01*
X225967Y312167D01*
Y314355D01*
Y312167D02*
X224091Y311230D01*
X244640Y311128D02*
X244327Y311441D01*
X244015Y312066D01*
Y313004D01*
X244327Y313628D01*
X244640Y313941D01*
X245265Y314254D01*
X246515D01*
X247140Y313941D01*
X247452Y313628D01*
X247765Y313004D01*
Y312066D01*
X247452Y311441D01*
X247140Y311128D01*
X369716Y311085D02*
X369403Y311398D01*
X369091Y312023D01*
Y312961D01*
X369403Y313585D01*
X369716Y313898D01*
X370341Y314211D01*
X371591D01*
X372216Y313898D01*
X372528Y313585D01*
X372841Y312961D01*
Y312023D01*
X372528Y311398D01*
X372216Y311085D01*
X389716D02*
X389403Y311398D01*
X389091Y312023D01*
Y312961D01*
X389403Y313585D01*
X389716Y313898D01*
X390341Y314211D01*
X391591D01*
X392216Y313898D01*
X392528Y313585D01*
X392841Y312961D01*
Y312023D01*
X392528Y311398D01*
X392216Y311085D01*
X469716Y311063D02*
X469403Y311376D01*
X469091Y312001D01*
Y312938D01*
X469403Y313563D01*
X469716Y313876D01*
X470341Y314188D01*
X471591D01*
X472216Y313876D01*
X472528Y313563D01*
X472841Y312938D01*
Y312001D01*
X472528Y311376D01*
X472216Y311063D01*
X489716D02*
X489403Y311376D01*
X489091Y312001D01*
Y312938D01*
X489403Y313563D01*
X489716Y313876D01*
X490341Y314188D01*
X491591D01*
X492216Y313876D01*
X492528Y313563D01*
X492841Y312938D01*
Y312001D01*
X492528Y311376D01*
X492216Y311063D01*
X569717Y311063D02*
X569404Y311375D01*
X569092Y312000D01*
Y312938D01*
X569404Y313563D01*
X569717Y313875D01*
X570342Y314188D01*
X571592D01*
X572217Y313875D01*
X572530Y313563D01*
X572842Y312938D01*
Y312000D01*
X572530Y311375D01*
X572217Y311063D01*
X589717D02*
X589404Y311375D01*
X589092Y312000D01*
Y312938D01*
X589404Y313563D01*
X589717Y313875D01*
X590342Y314188D01*
X591592D01*
X592217Y313875D01*
X592530Y313563D01*
X592842Y312938D01*
Y312000D01*
X592530Y311375D01*
X592217Y311063D01*
X669717D02*
X669404Y311375D01*
X669092Y312000D01*
Y312938D01*
X669404Y313563D01*
X669717Y313875D01*
X670342Y314188D01*
X671592D01*
X672217Y313875D01*
X672530Y313563D01*
X672842Y312938D01*
Y312000D01*
X672530Y311375D01*
X672217Y311063D01*
X689717D02*
X689404Y311375D01*
X689092Y312000D01*
Y312938D01*
X689404Y313563D01*
X689717Y313875D01*
X690342Y314188D01*
X691592D01*
X692217Y313875D01*
X692530Y313563D01*
X692842Y312938D01*
Y312000D01*
X692530Y311375D01*
X692217Y311063D01*
X290341Y309211D02*
Y306085D01*
X286591Y309211D01*
Y306085D01*
X300341Y309211D02*
Y306085D01*
X296591Y309211D01*
Y306085D01*
X741375Y307912D02*
X745125Y306350D01*
X741375Y304787D01*
X742937Y307287D02*
Y305412D01*
X741375Y301975D02*
Y300725D01*
Y301350D02*
X745125D01*
Y301975D02*
Y300725D01*
X759091Y307912D02*
X762841Y306350D01*
X759091Y304787D01*
X760654Y307287D02*
Y305412D01*
X759091Y301975D02*
Y300725D01*
Y301350D02*
X762841D01*
Y301975D02*
Y300725D01*
X230653Y302850D02*
Y301912D01*
X230341D01*
X229716Y302225D01*
X229403Y302537D01*
X229091Y303162D01*
Y303787D01*
X229403Y304412D01*
X229716Y304725D01*
X230341Y305037D01*
X231591D01*
X232216Y304725D01*
X232528Y304412D01*
X232841Y303787D01*
Y303162D01*
X232528Y302537D01*
X232216Y302225D01*
X231591Y301912D01*
X235653Y302850D02*
Y301912D01*
X235341D01*
X234716Y302225D01*
X234403Y302537D01*
X234091Y303162D01*
Y303787D01*
X234403Y304412D01*
X234716Y304725D01*
X235341Y305037D01*
X236591D01*
X237216Y304725D01*
X237528Y304412D01*
X237841Y303787D01*
Y303162D01*
X237528Y302537D01*
X237216Y302225D01*
X236591Y301912D01*
X319091Y304211D02*
X322841D01*
Y302023D01*
X322529Y301398D01*
X321904Y301085D01*
X321279Y301398D01*
X320967Y302023D01*
Y304211D01*
Y302023D02*
X319091Y301085D01*
X369716D02*
X369403Y301398D01*
X369091Y302023D01*
Y302961D01*
X369403Y303585D01*
X369716Y303898D01*
X370341Y304211D01*
X371591D01*
X372216Y303898D01*
X372528Y303585D01*
X372841Y302961D01*
Y302023D01*
X372528Y301398D01*
X372216Y301085D01*
X389716D02*
X389403Y301398D01*
X389091Y302023D01*
Y302961D01*
X389403Y303585D01*
X389716Y303898D01*
X390341Y304211D01*
X391591D01*
X392216Y303898D01*
X392528Y303585D01*
X392841Y302961D01*
Y302023D01*
X392528Y301398D01*
X392216Y301085D01*
X400654Y302023D02*
Y301085D01*
X400341D01*
X399717Y301398D01*
X399404Y301711D01*
X399091Y302335D01*
Y302961D01*
X399404Y303585D01*
X399717Y303898D01*
X400341Y304211D01*
X401591D01*
X402217Y303898D01*
X402529Y303585D01*
X402841Y302961D01*
Y302335D01*
X402529Y301711D01*
X402217Y301398D01*
X401591Y301085D01*
X500654Y302023D02*
Y301085D01*
X500341D01*
X499717Y301398D01*
X499404Y301711D01*
X499091Y302335D01*
Y302961D01*
X499404Y303585D01*
X499717Y303898D01*
X500341Y304211D01*
X501591D01*
X502217Y303898D01*
X502529Y303585D01*
X502841Y302961D01*
Y302335D01*
X502529Y301711D01*
X502217Y301398D01*
X501591Y301085D01*
X600654Y302023D02*
Y301085D01*
X600341D01*
X599717Y301398D01*
X599404Y301711D01*
X599091Y302335D01*
Y302961D01*
X599404Y303585D01*
X599717Y303898D01*
X600341Y304211D01*
X601591D01*
X602217Y303898D01*
X602529Y303585D01*
X602841Y302961D01*
Y302335D01*
X602529Y301711D01*
X602217Y301398D01*
X601591Y301085D01*
X700654Y302023D02*
Y301085D01*
X700341D01*
X699717Y301398D01*
X699404Y301711D01*
X699091Y302335D01*
Y302961D01*
X699404Y303585D01*
X699717Y303898D01*
X700341Y304211D01*
X701591D01*
X702217Y303898D01*
X702529Y303585D01*
X702841Y302961D01*
Y302335D01*
X702529Y301711D01*
X702217Y301398D01*
X701591Y301085D01*
X469716Y301063D02*
X469403Y301376D01*
X469091Y302001D01*
Y302938D01*
X469403Y303563D01*
X469716Y303876D01*
X470341Y304188D01*
X471591D01*
X472216Y303876D01*
X472528Y303563D01*
X472841Y302938D01*
Y302001D01*
X472528Y301376D01*
X472216Y301063D01*
X489716D02*
X489403Y301376D01*
X489091Y302001D01*
Y302938D01*
X489403Y303563D01*
X489716Y303876D01*
X490341Y304188D01*
X491591D01*
X492216Y303876D01*
X492528Y303563D01*
X492841Y302938D01*
Y302001D01*
X492528Y301376D01*
X492216Y301063D01*
X569717Y301063D02*
X569404Y301375D01*
X569092Y302000D01*
Y302938D01*
X569404Y303563D01*
X569717Y303875D01*
X570342Y304188D01*
X571592D01*
X572217Y303875D01*
X572530Y303563D01*
X572842Y302938D01*
Y302000D01*
X572530Y301375D01*
X572217Y301063D01*
X589717D02*
X589404Y301375D01*
X589092Y302000D01*
Y302938D01*
X589404Y303563D01*
X589717Y303875D01*
X590342Y304188D01*
X591592D01*
X592217Y303875D01*
X592530Y303563D01*
X592842Y302938D01*
Y302000D01*
X592530Y301375D01*
X592217Y301063D01*
X669717D02*
X669404Y301375D01*
X669092Y302000D01*
Y302938D01*
X669404Y303563D01*
X669717Y303875D01*
X670342Y304188D01*
X671592D01*
X672217Y303875D01*
X672530Y303563D01*
X672842Y302938D01*
Y302000D01*
X672530Y301375D01*
X672217Y301063D01*
X689717D02*
X689404Y301375D01*
X689092Y302000D01*
Y302938D01*
X689404Y303563D01*
X689717Y303875D01*
X690342Y304188D01*
X691592D01*
X692217Y303875D01*
X692530Y303563D01*
X692842Y302938D01*
Y302000D01*
X692530Y301375D01*
X692217Y301063D01*
X127506Y303982D02*
X131256D01*
X129381Y302420D01*
X131256Y300857D01*
X127506D01*
X146903Y300350D02*
Y299412D01*
X146591D01*
X145966Y299725D01*
X145653Y300037D01*
X145341Y300662D01*
Y301287D01*
X145653Y301912D01*
X145966Y302225D01*
X146591Y302537D01*
X147841D01*
X148466Y302225D01*
X148778Y301912D01*
X149091Y301287D01*
Y300662D01*
X148778Y300037D01*
X148466Y299725D01*
X147841Y299412D01*
X695654Y297023D02*
Y296085D01*
X695341D01*
X694717Y296398D01*
X694404Y296711D01*
X694091Y297335D01*
Y297961D01*
X694404Y298585D01*
X694717Y298898D01*
X695341Y299211D01*
X696591D01*
X697217Y298898D01*
X697529Y298585D01*
X697841Y297961D01*
Y297335D01*
X697529Y296711D01*
X697217Y296398D01*
X696591Y296085D01*
X151591Y296711D02*
X155341D01*
X153466Y295148D01*
X155341Y293585D01*
X151591D01*
X185654Y294523D02*
Y293585D01*
X185341D01*
X184717Y293898D01*
X184404Y294211D01*
X184091Y294835D01*
Y295461D01*
X184404Y296085D01*
X184717Y296398D01*
X185341Y296711D01*
X186591D01*
X187217Y296398D01*
X187529Y296085D01*
X187841Y295461D01*
Y294835D01*
X187529Y294211D01*
X187217Y293898D01*
X186591Y293585D01*
X446591Y296711D02*
X450341D01*
Y293585D01*
X448467Y294211D02*
Y296711D01*
X446591D02*
Y293585D01*
X546591Y296711D02*
X550341D01*
Y293585D01*
X548467Y294211D02*
Y296711D01*
X546591D02*
Y293585D01*
X646591Y296711D02*
X650341D01*
Y293585D01*
X648467Y294211D02*
Y296711D01*
X646591D02*
Y293585D01*
X215653Y293273D02*
Y292335D01*
X215341D01*
X214716Y292648D01*
X214403Y292961D01*
X214091Y293585D01*
Y294211D01*
X214403Y294835D01*
X214716Y295148D01*
X215341Y295461D01*
X216591D01*
X217216Y295148D01*
X217528Y294835D01*
X217841Y294211D01*
Y293585D01*
X217528Y292961D01*
X217216Y292648D01*
X216591Y292335D01*
X270654Y293273D02*
Y292335D01*
X270341D01*
X269717Y292648D01*
X269404Y292961D01*
X269091Y293585D01*
Y294211D01*
X269404Y294835D01*
X269717Y295148D01*
X270341Y295461D01*
X271591D01*
X272217Y295148D01*
X272529Y294835D01*
X272841Y294211D01*
Y293585D01*
X272529Y292961D01*
X272217Y292648D01*
X271591Y292335D01*
X350654Y293273D02*
Y292335D01*
X350341D01*
X349717Y292648D01*
X349404Y292961D01*
X349091Y293585D01*
Y294211D01*
X349404Y294835D01*
X349717Y295148D01*
X350341Y295461D01*
X351591D01*
X352217Y295148D01*
X352529Y294835D01*
X352841Y294211D01*
Y293585D01*
X352529Y292961D01*
X352217Y292648D01*
X351591Y292335D01*
X310654Y292023D02*
Y291085D01*
X310341D01*
X309717Y291398D01*
X309404Y291711D01*
X309091Y292335D01*
Y292961D01*
X309404Y293585D01*
X309717Y293898D01*
X310341Y294211D01*
X311591D01*
X312217Y293898D01*
X312529Y293585D01*
X312841Y292961D01*
Y292335D01*
X312529Y291711D01*
X312217Y291398D01*
X311591Y291085D01*
X319091Y294211D02*
X322841D01*
Y292023D01*
X322529Y291398D01*
X321904Y291085D01*
X321279Y291398D01*
X320967Y292023D01*
Y294211D01*
Y292023D02*
X319091Y291085D01*
X369716D02*
X369403Y291398D01*
X369091Y292023D01*
Y292961D01*
X369403Y293585D01*
X369716Y293898D01*
X370341Y294211D01*
X371591D01*
X372216Y293898D01*
X372528Y293585D01*
X372841Y292961D01*
Y292023D01*
X372528Y291398D01*
X372216Y291085D01*
X389716D02*
X389403Y291398D01*
X389091Y292023D01*
Y292961D01*
X389403Y293585D01*
X389716Y293898D01*
X390341Y294211D01*
X391591D01*
X392216Y293898D01*
X392528Y293585D01*
X392841Y292961D01*
Y292023D01*
X392528Y291398D01*
X392216Y291085D01*
X400654Y292023D02*
Y291085D01*
X400341D01*
X399717Y291398D01*
X399404Y291711D01*
X399091Y292335D01*
Y292961D01*
X399404Y293585D01*
X399717Y293898D01*
X400341Y294211D01*
X401591D01*
X402217Y293898D01*
X402529Y293585D01*
X402841Y292961D01*
Y292335D01*
X402529Y291711D01*
X402217Y291398D01*
X401591Y291085D01*
X500654Y292023D02*
Y291085D01*
X500341D01*
X499717Y291398D01*
X499404Y291711D01*
X499091Y292335D01*
Y292961D01*
X499404Y293585D01*
X499717Y293898D01*
X500341Y294211D01*
X501591D01*
X502217Y293898D01*
X502529Y293585D01*
X502841Y292961D01*
Y292335D01*
X502529Y291711D01*
X502217Y291398D01*
X501591Y291085D01*
X600654Y292023D02*
Y291085D01*
X600341D01*
X599717Y291398D01*
X599404Y291711D01*
X599091Y292335D01*
Y292961D01*
X599404Y293585D01*
X599717Y293898D01*
X600341Y294211D01*
X601591D01*
X602217Y293898D01*
X602529Y293585D01*
X602841Y292961D01*
Y292335D01*
X602529Y291711D01*
X602217Y291398D01*
X601591Y291085D01*
X720654Y292023D02*
Y291085D01*
X720341D01*
X719717Y291398D01*
X719404Y291711D01*
X719091Y292335D01*
Y292961D01*
X719404Y293585D01*
X719717Y293898D01*
X720341Y294211D01*
X721591D01*
X722217Y293898D01*
X722529Y293585D01*
X722841Y292961D01*
Y292335D01*
X722529Y291711D01*
X722217Y291398D01*
X721591Y291085D01*
X745654Y292023D02*
Y291085D01*
X745341D01*
X744717Y291398D01*
X744404Y291711D01*
X744091Y292335D01*
Y292961D01*
X744404Y293585D01*
X744717Y293898D01*
X745341Y294211D01*
X746591D01*
X747217Y293898D01*
X747529Y293585D01*
X747841Y292961D01*
Y292335D01*
X747529Y291711D01*
X747217Y291398D01*
X746591Y291085D01*
X768154Y292023D02*
Y291085D01*
X767841D01*
X767217Y291398D01*
X766904Y291711D01*
X766591Y292335D01*
Y292961D01*
X766904Y293585D01*
X767217Y293898D01*
X767841Y294211D01*
X769091D01*
X769717Y293898D01*
X770029Y293585D01*
X770341Y292961D01*
Y292335D01*
X770029Y291711D01*
X769717Y291398D01*
X769091Y291085D01*
X469716Y291063D02*
X469403Y291376D01*
X469091Y292001D01*
Y292938D01*
X469403Y293563D01*
X469716Y293876D01*
X470341Y294188D01*
X471591D01*
X472216Y293876D01*
X472528Y293563D01*
X472841Y292938D01*
Y292001D01*
X472528Y291376D01*
X472216Y291063D01*
X489716D02*
X489403Y291376D01*
X489091Y292001D01*
Y292938D01*
X489403Y293563D01*
X489716Y293876D01*
X490341Y294188D01*
X491591D01*
X492216Y293876D01*
X492528Y293563D01*
X492841Y292938D01*
Y292001D01*
X492528Y291376D01*
X492216Y291063D01*
X569717Y291063D02*
X569404Y291375D01*
X569092Y292000D01*
Y292938D01*
X569404Y293563D01*
X569717Y293875D01*
X570342Y294188D01*
X571592D01*
X572217Y293875D01*
X572530Y293563D01*
X572842Y292938D01*
Y292000D01*
X572530Y291375D01*
X572217Y291063D01*
X589717D02*
X589404Y291375D01*
X589092Y292000D01*
Y292938D01*
X589404Y293563D01*
X589717Y293875D01*
X590342Y294188D01*
X591592D01*
X592217Y293875D01*
X592530Y293563D01*
X592842Y292938D01*
Y292000D01*
X592530Y291375D01*
X592217Y291063D01*
X669717D02*
X669404Y291375D01*
X669092Y292000D01*
Y292938D01*
X669404Y293563D01*
X669717Y293875D01*
X670342Y294188D01*
X671592D01*
X672217Y293875D01*
X672530Y293563D01*
X672842Y292938D01*
Y292000D01*
X672530Y291375D01*
X672217Y291063D01*
X689717D02*
X689404Y291375D01*
X689092Y292000D01*
Y292938D01*
X689404Y293563D01*
X689717Y293875D01*
X690342Y294188D01*
X691592D01*
X692217Y293875D01*
X692530Y293563D01*
X692842Y292938D01*
Y292000D01*
X692530Y291375D01*
X692217Y291063D01*
X127506Y294123D02*
X131256D01*
X129381Y292560D01*
X131256Y290998D01*
X127506D01*
X435654Y287023D02*
Y286085D01*
X435341D01*
X434717Y286398D01*
X434404Y286711D01*
X434091Y287335D01*
Y287961D01*
X434404Y288585D01*
X434717Y288898D01*
X435341Y289211D01*
X436591D01*
X437217Y288898D01*
X437529Y288585D01*
X437841Y287961D01*
Y287335D01*
X437529Y286711D01*
X437217Y286398D01*
X436591Y286085D01*
X460654Y287023D02*
Y286085D01*
X460341D01*
X459717Y286398D01*
X459404Y286711D01*
X459091Y287335D01*
Y287961D01*
X459404Y288585D01*
X459717Y288898D01*
X460341Y289211D01*
X461591D01*
X462217Y288898D01*
X462529Y288585D01*
X462841Y287961D01*
Y287335D01*
X462529Y286711D01*
X462217Y286398D01*
X461591Y286085D01*
X535654Y287023D02*
Y286085D01*
X535341D01*
X534717Y286398D01*
X534404Y286711D01*
X534091Y287335D01*
Y287961D01*
X534404Y288585D01*
X534717Y288898D01*
X535341Y289211D01*
X536591D01*
X537217Y288898D01*
X537529Y288585D01*
X537841Y287961D01*
Y287335D01*
X537529Y286711D01*
X537217Y286398D01*
X536591Y286085D01*
X560654Y287023D02*
Y286085D01*
X560341D01*
X559717Y286398D01*
X559404Y286711D01*
X559091Y287335D01*
Y287961D01*
X559404Y288585D01*
X559717Y288898D01*
X560341Y289211D01*
X561591D01*
X562217Y288898D01*
X562529Y288585D01*
X562841Y287961D01*
Y287335D01*
X562529Y286711D01*
X562217Y286398D01*
X561591Y286085D01*
X635654Y287023D02*
Y286085D01*
X635341D01*
X634717Y286398D01*
X634404Y286711D01*
X634091Y287335D01*
Y287961D01*
X634404Y288585D01*
X634717Y288898D01*
X635341Y289211D01*
X636591D01*
X637217Y288898D01*
X637529Y288585D01*
X637841Y287961D01*
Y287335D01*
X637529Y286711D01*
X637217Y286398D01*
X636591Y286085D01*
X660654Y287023D02*
Y286085D01*
X660341D01*
X659717Y286398D01*
X659404Y286711D01*
X659091Y287335D01*
Y287961D01*
X659404Y288585D01*
X659717Y288898D01*
X660341Y289211D01*
X661591D01*
X662217Y288898D01*
X662529Y288585D01*
X662841Y287961D01*
Y287335D01*
X662529Y286711D01*
X662217Y286398D01*
X661591Y286085D01*
X700654Y287023D02*
Y286085D01*
X700341D01*
X699717Y286398D01*
X699404Y286711D01*
X699091Y287335D01*
Y287961D01*
X699404Y288585D01*
X699717Y288898D01*
X700341Y289211D01*
X701591D01*
X702217Y288898D01*
X702529Y288585D01*
X702841Y287961D01*
Y287335D01*
X702529Y286711D01*
X702217Y286398D01*
X701591Y286085D01*
X130502Y288881D02*
X134252D01*
Y285756D01*
X132377Y286381D02*
Y288881D01*
X130502D02*
Y285756D01*
X310654Y285773D02*
Y284835D01*
X310341D01*
X309717Y285148D01*
X309404Y285461D01*
X309091Y286085D01*
Y286711D01*
X309404Y287335D01*
X309717Y287648D01*
X310341Y287961D01*
X311591D01*
X312217Y287648D01*
X312529Y287335D01*
X312841Y286711D01*
Y286085D01*
X312529Y285461D01*
X312217Y285148D01*
X311591Y284835D01*
X360654Y285773D02*
Y284835D01*
X360341D01*
X359717Y285148D01*
X359404Y285461D01*
X359091Y286085D01*
Y286711D01*
X359404Y287335D01*
X359717Y287648D01*
X360341Y287961D01*
X361591D01*
X362217Y287648D01*
X362529Y287335D01*
X362841Y286711D01*
Y286085D01*
X362529Y285461D01*
X362217Y285148D01*
X361591Y284835D01*
X151591Y287537D02*
X155341D01*
X153466Y285975D01*
X155341Y284412D01*
X151591D01*
X185654Y285350D02*
Y284412D01*
X185341D01*
X184717Y284725D01*
X184404Y285037D01*
X184091Y285662D01*
Y286287D01*
X184404Y286912D01*
X184717Y287225D01*
X185341Y287537D01*
X186591D01*
X187217Y287225D01*
X187529Y286912D01*
X187841Y286287D01*
Y285662D01*
X187529Y285037D01*
X187217Y284725D01*
X186591Y284412D01*
X215654Y285350D02*
Y284412D01*
X215341D01*
X214717Y284725D01*
X214404Y285037D01*
X214091Y285662D01*
Y286287D01*
X214404Y286912D01*
X214717Y287225D01*
X215341Y287537D01*
X216591D01*
X217217Y287225D01*
X217529Y286912D01*
X217841Y286287D01*
Y285662D01*
X217529Y285037D01*
X217217Y284725D01*
X216591Y284412D01*
X270654Y285350D02*
Y284412D01*
X270341D01*
X269717Y284725D01*
X269404Y285037D01*
X269091Y285662D01*
Y286287D01*
X269404Y286912D01*
X269717Y287225D01*
X270341Y287537D01*
X271591D01*
X272217Y287225D01*
X272529Y286912D01*
X272841Y286287D01*
Y285662D01*
X272529Y285037D01*
X272217Y284725D01*
X271591Y284412D01*
X350654Y285350D02*
Y284412D01*
X350341D01*
X349717Y284725D01*
X349404Y285037D01*
X349091Y285662D01*
Y286287D01*
X349404Y286912D01*
X349717Y287225D01*
X350341Y287537D01*
X351591D01*
X352217Y287225D01*
X352529Y286912D01*
X352841Y286287D01*
Y285662D01*
X352529Y285037D01*
X352217Y284725D01*
X351591Y284412D01*
X369716Y281085D02*
X369403Y281398D01*
X369091Y282023D01*
Y282961D01*
X369403Y283585D01*
X369716Y283898D01*
X370341Y284211D01*
X371591D01*
X372216Y283898D01*
X372528Y283585D01*
X372841Y282961D01*
Y282023D01*
X372528Y281398D01*
X372216Y281085D01*
X389716D02*
X389403Y281398D01*
X389091Y282023D01*
Y282961D01*
X389403Y283585D01*
X389716Y283898D01*
X390341Y284211D01*
X391591D01*
X392216Y283898D01*
X392528Y283585D01*
X392841Y282961D01*
Y282023D01*
X392528Y281398D01*
X392216Y281085D01*
X469716Y281063D02*
X469403Y281376D01*
X469091Y282001D01*
Y282938D01*
X469403Y283563D01*
X469716Y283876D01*
X470341Y284188D01*
X471591D01*
X472216Y283876D01*
X472528Y283563D01*
X472841Y282938D01*
Y282001D01*
X472528Y281376D01*
X472216Y281063D01*
X489716D02*
X489403Y281376D01*
X489091Y282001D01*
Y282938D01*
X489403Y283563D01*
X489716Y283876D01*
X490341Y284188D01*
X491591D01*
X492216Y283876D01*
X492528Y283563D01*
X492841Y282938D01*
Y282001D01*
X492528Y281376D01*
X492216Y281063D01*
X569717Y281063D02*
X569404Y281375D01*
X569092Y282000D01*
Y282938D01*
X569404Y283563D01*
X569717Y283875D01*
X570342Y284188D01*
X571592D01*
X572217Y283875D01*
X572530Y283563D01*
X572842Y282938D01*
Y282000D01*
X572530Y281375D01*
X572217Y281063D01*
X589717D02*
X589404Y281375D01*
X589092Y282000D01*
Y282938D01*
X589404Y283563D01*
X589717Y283875D01*
X590342Y284188D01*
X591592D01*
X592217Y283875D01*
X592530Y283563D01*
X592842Y282938D01*
Y282000D01*
X592530Y281375D01*
X592217Y281063D01*
X669717D02*
X669404Y281375D01*
X669092Y282000D01*
Y282938D01*
X669404Y283563D01*
X669717Y283875D01*
X670342Y284188D01*
X671592D01*
X672217Y283875D01*
X672530Y283563D01*
X672842Y282938D01*
Y282000D01*
X672530Y281375D01*
X672217Y281063D01*
X689717D02*
X689404Y281375D01*
X689092Y282000D01*
Y282938D01*
X689404Y283563D01*
X689717Y283875D01*
X690342Y284188D01*
X691592D01*
X692217Y283875D01*
X692530Y283563D01*
X692842Y282938D01*
Y282000D01*
X692530Y281375D01*
X692217Y281063D01*
X125385Y284014D02*
X129135D01*
Y280889D01*
X127260Y281514D02*
Y284014D01*
X125385D02*
Y280889D01*
X206507Y284014D02*
X210257D01*
Y280889D01*
X208382Y281514D02*
Y284014D01*
X206507D02*
Y280889D01*
X203137Y280519D02*
X206887D01*
Y277394D01*
X205012Y278019D02*
Y280519D01*
X203137D02*
Y277394D01*
X130377Y278897D02*
X134127D01*
Y275772D01*
X132252Y276397D02*
Y278897D01*
X130377D02*
Y275772D01*
X200391Y277524D02*
X204141D01*
Y274399D01*
X202267Y275024D02*
Y277524D01*
X200391D02*
Y274399D01*
X192240Y275278D02*
X195990D01*
Y272152D01*
X194115Y272778D02*
Y275278D01*
X192240D02*
Y272152D01*
X369716Y271085D02*
X369403Y271398D01*
X369091Y272023D01*
Y272961D01*
X369403Y273585D01*
X369716Y273898D01*
X370341Y274211D01*
X371591D01*
X372216Y273898D01*
X372528Y273585D01*
X372841Y272961D01*
Y272023D01*
X372528Y271398D01*
X372216Y271085D01*
X389716D02*
X389403Y271398D01*
X389091Y272023D01*
Y272961D01*
X389403Y273585D01*
X389716Y273898D01*
X390341Y274211D01*
X391591D01*
X392216Y273898D01*
X392528Y273585D01*
X392841Y272961D01*
Y272023D01*
X392528Y271398D01*
X392216Y271085D01*
X469716Y271063D02*
X469403Y271376D01*
X469091Y272001D01*
Y272938D01*
X469403Y273563D01*
X469716Y273876D01*
X470341Y274188D01*
X471591D01*
X472216Y273876D01*
X472528Y273563D01*
X472841Y272938D01*
Y272001D01*
X472528Y271376D01*
X472216Y271063D01*
X489716D02*
X489403Y271376D01*
X489091Y272001D01*
Y272938D01*
X489403Y273563D01*
X489716Y273876D01*
X490341Y274188D01*
X491591D01*
X492216Y273876D01*
X492528Y273563D01*
X492841Y272938D01*
Y272001D01*
X492528Y271376D01*
X492216Y271063D01*
X569717Y271063D02*
X569404Y271375D01*
X569092Y272000D01*
Y272938D01*
X569404Y273563D01*
X569717Y273875D01*
X570342Y274188D01*
X571592D01*
X572217Y273875D01*
X572530Y273563D01*
X572842Y272938D01*
Y272000D01*
X572530Y271375D01*
X572217Y271063D01*
X589717D02*
X589404Y271375D01*
X589092Y272000D01*
Y272938D01*
X589404Y273563D01*
X589717Y273875D01*
X590342Y274188D01*
X591592D01*
X592217Y273875D01*
X592530Y273563D01*
X592842Y272938D01*
Y272000D01*
X592530Y271375D01*
X592217Y271063D01*
X669717D02*
X669404Y271375D01*
X669092Y272000D01*
Y272938D01*
X669404Y273563D01*
X669717Y273875D01*
X670342Y274188D01*
X671592D01*
X672217Y273875D01*
X672530Y273563D01*
X672842Y272938D01*
Y272000D01*
X672530Y271375D01*
X672217Y271063D01*
X689717D02*
X689404Y271375D01*
X689092Y272000D01*
Y272938D01*
X689404Y273563D01*
X689717Y273875D01*
X690342Y274188D01*
X691592D01*
X692217Y273875D01*
X692530Y273563D01*
X692842Y272938D01*
Y272000D01*
X692530Y271375D01*
X692217Y271063D01*
X125260Y273994D02*
X129010D01*
Y270869D01*
X127135Y271494D02*
Y273994D01*
X125260D02*
Y270869D01*
X151843Y273859D02*
X155593D01*
Y271671D01*
X155281Y271046D01*
X154656Y270733D01*
X154031Y271046D01*
X153718Y271671D01*
Y273859D01*
X188909Y272906D02*
X192659D01*
Y269781D01*
X190785Y270406D02*
Y272906D01*
X188909D02*
Y269781D01*
X185941Y270660D02*
X189691D01*
Y267535D01*
X187816Y268160D02*
Y270660D01*
X185941D02*
Y267535D01*
X700654Y267023D02*
Y266085D01*
X700341D01*
X699717Y266398D01*
X699404Y266711D01*
X699091Y267335D01*
Y267961D01*
X699404Y268585D01*
X699717Y268898D01*
X700341Y269211D01*
X701591D01*
X702217Y268898D01*
X702529Y268585D01*
X702841Y267961D01*
Y267335D01*
X702529Y266711D01*
X702217Y266398D01*
X701591Y266085D01*
X720654Y267023D02*
Y266085D01*
X720341D01*
X719717Y266398D01*
X719404Y266711D01*
X719091Y267335D01*
Y267961D01*
X719404Y268585D01*
X719717Y268898D01*
X720341Y269211D01*
X721591D01*
X722217Y268898D01*
X722529Y268585D01*
X722841Y267961D01*
Y267335D01*
X722529Y266711D01*
X722217Y266398D01*
X721591Y266085D01*
X745654Y267023D02*
Y266085D01*
X745341D01*
X744717Y266398D01*
X744404Y266711D01*
X744091Y267335D01*
Y267961D01*
X744404Y268585D01*
X744717Y268898D01*
X745341Y269211D01*
X746591D01*
X747217Y268898D01*
X747529Y268585D01*
X747841Y267961D01*
Y267335D01*
X747529Y266711D01*
X747217Y266398D01*
X746591Y266085D01*
X768154Y267023D02*
Y266085D01*
X767841D01*
X767217Y266398D01*
X766904Y266711D01*
X766591Y267335D01*
Y267961D01*
X766904Y268585D01*
X767217Y268898D01*
X767841Y269211D01*
X769091D01*
X769717Y268898D01*
X770029Y268585D01*
X770341Y267961D01*
Y267335D01*
X770029Y266711D01*
X769717Y266398D01*
X769091Y266085D01*
X130377Y269037D02*
X134127D01*
Y265912D01*
X132252Y266537D02*
Y269037D01*
X130377D02*
Y265912D01*
X182791Y268289D02*
X186541D01*
Y265163D01*
X184667Y265789D02*
Y268289D01*
X182791D02*
Y265163D01*
X350654Y263273D02*
Y262335D01*
X350341D01*
X349717Y262648D01*
X349404Y262961D01*
X349091Y263585D01*
Y264211D01*
X349404Y264835D01*
X349717Y265148D01*
X350341Y265461D01*
X351591D01*
X352217Y265148D01*
X352529Y264835D01*
X352841Y264211D01*
Y263585D01*
X352529Y262961D01*
X352217Y262648D01*
X351591Y262335D01*
X170653Y262850D02*
Y261912D01*
X170341D01*
X169716Y262225D01*
X169403Y262537D01*
X169091Y263162D01*
Y263787D01*
X169403Y264412D01*
X169716Y264725D01*
X170341Y265037D01*
X171591D01*
X172216Y264725D01*
X172528Y264412D01*
X172841Y263787D01*
Y263162D01*
X172528Y262537D01*
X172216Y262225D01*
X171591Y261912D01*
X270654Y262850D02*
Y261912D01*
X270341D01*
X269717Y262225D01*
X269404Y262537D01*
X269091Y263162D01*
Y263787D01*
X269404Y264412D01*
X269717Y264725D01*
X270341Y265037D01*
X271591D01*
X272217Y264725D01*
X272529Y264412D01*
X272841Y263787D01*
Y263162D01*
X272529Y262537D01*
X272217Y262225D01*
X271591Y261912D01*
X315653Y262850D02*
Y261912D01*
X315341D01*
X314716Y262225D01*
X314403Y262537D01*
X314091Y263162D01*
Y263787D01*
X314403Y264412D01*
X314716Y264725D01*
X315341Y265037D01*
X316591D01*
X317216Y264725D01*
X317528Y264412D01*
X317841Y263787D01*
Y263162D01*
X317528Y262537D01*
X317216Y262225D01*
X316591Y261912D01*
X369716Y261085D02*
X369403Y261398D01*
X369091Y262023D01*
Y262961D01*
X369403Y263585D01*
X369716Y263898D01*
X370341Y264211D01*
X371591D01*
X372216Y263898D01*
X372528Y263585D01*
X372841Y262961D01*
Y262023D01*
X372528Y261398D01*
X372216Y261085D01*
X389716D02*
X389403Y261398D01*
X389091Y262023D01*
Y262961D01*
X389403Y263585D01*
X389716Y263898D01*
X390341Y264211D01*
X391591D01*
X392216Y263898D01*
X392528Y263585D01*
X392841Y262961D01*
Y262023D01*
X392528Y261398D01*
X392216Y261085D01*
X469716Y261063D02*
X469403Y261376D01*
X469091Y262001D01*
Y262938D01*
X469403Y263563D01*
X469716Y263876D01*
X470341Y264188D01*
X471591D01*
X472216Y263876D01*
X472528Y263563D01*
X472841Y262938D01*
Y262001D01*
X472528Y261376D01*
X472216Y261063D01*
X489716D02*
X489403Y261376D01*
X489091Y262001D01*
Y262938D01*
X489403Y263563D01*
X489716Y263876D01*
X490341Y264188D01*
X491591D01*
X492216Y263876D01*
X492528Y263563D01*
X492841Y262938D01*
Y262001D01*
X492528Y261376D01*
X492216Y261063D01*
X569717Y261063D02*
X569404Y261375D01*
X569092Y262000D01*
Y262938D01*
X569404Y263563D01*
X569717Y263875D01*
X570342Y264188D01*
X571592D01*
X572217Y263875D01*
X572530Y263563D01*
X572842Y262938D01*
Y262000D01*
X572530Y261375D01*
X572217Y261063D01*
X589717D02*
X589404Y261375D01*
X589092Y262000D01*
Y262938D01*
X589404Y263563D01*
X589717Y263875D01*
X590342Y264188D01*
X591592D01*
X592217Y263875D01*
X592530Y263563D01*
X592842Y262938D01*
Y262000D01*
X592530Y261375D01*
X592217Y261063D01*
X669717D02*
X669404Y261375D01*
X669092Y262000D01*
Y262938D01*
X669404Y263563D01*
X669717Y263875D01*
X670342Y264188D01*
X671592D01*
X672217Y263875D01*
X672530Y263563D01*
X672842Y262938D01*
Y262000D01*
X672530Y261375D01*
X672217Y261063D01*
X689717D02*
X689404Y261375D01*
X689092Y262000D01*
Y262938D01*
X689404Y263563D01*
X689717Y263875D01*
X690342Y264188D01*
X691592D01*
X692217Y263875D01*
X692530Y263563D01*
X692842Y262938D01*
Y262000D01*
X692530Y261375D01*
X692217Y261063D01*
X125509Y263994D02*
X129259D01*
Y260869D01*
X127385Y261494D02*
Y263994D01*
X125509D02*
Y260869D01*
X151843Y263859D02*
X155593D01*
Y261671D01*
X155281Y261046D01*
X154656Y260733D01*
X154031Y261046D01*
X153718Y261671D01*
Y263859D01*
X196903Y257850D02*
Y256912D01*
X196591D01*
X195966Y257225D01*
X195653Y257537D01*
X195341Y258162D01*
Y258787D01*
X195653Y259412D01*
X195966Y259725D01*
X196591Y260037D01*
X197841D01*
X198466Y259725D01*
X198778Y259412D01*
X199091Y258787D01*
Y258162D01*
X198778Y257537D01*
X198466Y257225D01*
X197841Y256912D01*
X228153Y257850D02*
Y256912D01*
X227841D01*
X227216Y257225D01*
X226903Y257537D01*
X226591Y258162D01*
Y258787D01*
X226903Y259412D01*
X227216Y259725D01*
X227841Y260037D01*
X229091D01*
X229716Y259725D01*
X230028Y259412D01*
X230341Y258787D01*
Y258162D01*
X230028Y257537D01*
X229716Y257225D01*
X229091Y256912D01*
X130502Y258928D02*
X134252D01*
Y255803D01*
X132377Y256428D02*
Y258928D01*
X130502D02*
Y255803D01*
X235654Y255773D02*
Y254835D01*
X235341D01*
X234717Y255148D01*
X234404Y255461D01*
X234091Y256085D01*
Y256711D01*
X234404Y257335D01*
X234717Y257648D01*
X235341Y257961D01*
X236591D01*
X237217Y257648D01*
X237529Y257335D01*
X237841Y256711D01*
Y256085D01*
X237529Y255461D01*
X237217Y255148D01*
X236591Y254835D01*
X270654Y255350D02*
Y254412D01*
X270341D01*
X269717Y254725D01*
X269404Y255037D01*
X269091Y255662D01*
Y256287D01*
X269404Y256912D01*
X269717Y257225D01*
X270341Y257537D01*
X271591D01*
X272217Y257225D01*
X272529Y256912D01*
X272841Y256287D01*
Y255662D01*
X272529Y255037D01*
X272217Y254725D01*
X271591Y254412D01*
X315653Y255350D02*
Y254412D01*
X315341D01*
X314716Y254725D01*
X314403Y255037D01*
X314091Y255662D01*
Y256287D01*
X314403Y256912D01*
X314716Y257225D01*
X315341Y257537D01*
X316591D01*
X317216Y257225D01*
X317528Y256912D01*
X317841Y256287D01*
Y255662D01*
X317528Y255037D01*
X317216Y254725D01*
X316591Y254412D01*
X350654Y255350D02*
Y254412D01*
X350341D01*
X349717Y254725D01*
X349404Y255037D01*
X349091Y255662D01*
Y256287D01*
X349404Y256912D01*
X349717Y257225D01*
X350341Y257537D01*
X351591D01*
X352217Y257225D01*
X352529Y256912D01*
X352841Y256287D01*
Y255662D01*
X352529Y255037D01*
X352217Y254725D01*
X351591Y254412D01*
X169690Y254211D02*
X173440D01*
Y251085D01*
X171565Y251711D02*
Y254211D01*
X169690D02*
Y251085D01*
X369716D02*
X369403Y251398D01*
X369091Y252023D01*
Y252961D01*
X369403Y253585D01*
X369716Y253898D01*
X370341Y254211D01*
X371591D01*
X372216Y253898D01*
X372528Y253585D01*
X372841Y252961D01*
Y252023D01*
X372528Y251398D01*
X372216Y251085D01*
X389716D02*
X389403Y251398D01*
X389091Y252023D01*
Y252961D01*
X389403Y253585D01*
X389716Y253898D01*
X390341Y254211D01*
X391591D01*
X392216Y253898D01*
X392528Y253585D01*
X392841Y252961D01*
Y252023D01*
X392528Y251398D01*
X392216Y251085D01*
X469716Y251063D02*
X469403Y251376D01*
X469091Y252001D01*
Y252938D01*
X469403Y253563D01*
X469716Y253876D01*
X470341Y254188D01*
X471591D01*
X472216Y253876D01*
X472528Y253563D01*
X472841Y252938D01*
Y252001D01*
X472528Y251376D01*
X472216Y251063D01*
X489716D02*
X489403Y251376D01*
X489091Y252001D01*
Y252938D01*
X489403Y253563D01*
X489716Y253876D01*
X490341Y254188D01*
X491591D01*
X492216Y253876D01*
X492528Y253563D01*
X492841Y252938D01*
Y252001D01*
X492528Y251376D01*
X492216Y251063D01*
X569717Y251063D02*
X569404Y251375D01*
X569092Y252000D01*
Y252938D01*
X569404Y253563D01*
X569717Y253875D01*
X570342Y254188D01*
X571592D01*
X572217Y253875D01*
X572530Y253563D01*
X572842Y252938D01*
Y252000D01*
X572530Y251375D01*
X572217Y251063D01*
X589717D02*
X589404Y251375D01*
X589092Y252000D01*
Y252938D01*
X589404Y253563D01*
X589717Y253875D01*
X590342Y254188D01*
X591592D01*
X592217Y253875D01*
X592530Y253563D01*
X592842Y252938D01*
Y252000D01*
X592530Y251375D01*
X592217Y251063D01*
X669717D02*
X669404Y251375D01*
X669092Y252000D01*
Y252938D01*
X669404Y253563D01*
X669717Y253875D01*
X670342Y254188D01*
X671592D01*
X672217Y253875D01*
X672530Y253563D01*
X672842Y252938D01*
Y252000D01*
X672530Y251375D01*
X672217Y251063D01*
X689717D02*
X689404Y251375D01*
X689092Y252000D01*
Y252938D01*
X689404Y253563D01*
X689717Y253875D01*
X690342Y254188D01*
X691592D01*
X692217Y253875D01*
X692530Y253563D01*
X692842Y252938D01*
Y252000D01*
X692530Y251375D01*
X692217Y251063D01*
X125509Y254028D02*
X129259D01*
Y250902D01*
X127385Y251528D02*
Y254028D01*
X125509D02*
Y250902D01*
X151843Y253859D02*
X155593D01*
Y251671D01*
X155281Y251046D01*
X154656Y250733D01*
X154031Y251046D01*
X153718Y251671D01*
Y253859D01*
X166819Y251815D02*
X170569D01*
Y248689D01*
X168694Y249315D02*
Y251815D01*
X166819D02*
Y248689D01*
X164198Y249568D02*
X167948D01*
Y246443D01*
X166074Y247068D02*
Y249568D01*
X164198D02*
Y246443D01*
X130502Y248944D02*
X134252D01*
Y245819D01*
X132377Y246444D02*
Y248944D01*
X130502D02*
Y245819D01*
X134495Y248944D02*
X138245D01*
Y245819D01*
X136370Y246444D02*
Y248944D01*
X134495D02*
Y245819D01*
X144105Y248320D02*
X147855D01*
Y245195D01*
X145980Y245820D02*
Y248320D01*
X144105D02*
Y245195D01*
X235654Y242824D02*
Y241886D01*
X235341D01*
X234717Y242199D01*
X234404Y242511D01*
X234091Y243136D01*
Y243761D01*
X234404Y244386D01*
X234717Y244699D01*
X235341Y245011D01*
X236591D01*
X237217Y244699D01*
X237529Y244386D01*
X237841Y243761D01*
Y243136D01*
X237529Y242511D01*
X237217Y242199D01*
X236591Y241886D01*
X270654Y242699D02*
Y241761D01*
X270341D01*
X269717Y242074D01*
X269404Y242387D01*
X269091Y243011D01*
Y243637D01*
X269404Y244261D01*
X269717Y244574D01*
X270341Y244887D01*
X271591D01*
X272217Y244574D01*
X272529Y244261D01*
X272841Y243637D01*
Y243011D01*
X272529Y242387D01*
X272217Y242074D01*
X271591Y241761D01*
X315653Y242699D02*
Y241761D01*
X315341D01*
X314716Y242074D01*
X314403Y242387D01*
X314091Y243011D01*
Y243637D01*
X314403Y244261D01*
X314716Y244574D01*
X315341Y244887D01*
X316591D01*
X317216Y244574D01*
X317528Y244261D01*
X317841Y243637D01*
Y243011D01*
X317528Y242387D01*
X317216Y242074D01*
X316591Y241761D01*
X350654Y242699D02*
Y241761D01*
X350341D01*
X349717Y242074D01*
X349404Y242387D01*
X349091Y243011D01*
Y243637D01*
X349404Y244261D01*
X349717Y244574D01*
X350341Y244887D01*
X351591D01*
X352217Y244574D01*
X352529Y244261D01*
X352841Y243637D01*
Y243011D01*
X352529Y242387D01*
X352217Y242074D01*
X351591Y241761D01*
X369716Y241085D02*
X369403Y241398D01*
X369091Y242023D01*
Y242961D01*
X369403Y243585D01*
X369716Y243898D01*
X370341Y244211D01*
X371591D01*
X372216Y243898D01*
X372528Y243585D01*
X372841Y242961D01*
Y242023D01*
X372528Y241398D01*
X372216Y241085D01*
X389716D02*
X389403Y241398D01*
X389091Y242023D01*
Y242961D01*
X389403Y243585D01*
X389716Y243898D01*
X390341Y244211D01*
X391591D01*
X392216Y243898D01*
X392528Y243585D01*
X392841Y242961D01*
Y242023D01*
X392528Y241398D01*
X392216Y241085D01*
X720654Y242023D02*
Y241085D01*
X720341D01*
X719717Y241398D01*
X719404Y241711D01*
X719091Y242335D01*
Y242961D01*
X719404Y243585D01*
X719717Y243898D01*
X720341Y244211D01*
X721591D01*
X722217Y243898D01*
X722529Y243585D01*
X722841Y242961D01*
Y242335D01*
X722529Y241711D01*
X722217Y241398D01*
X721591Y241085D01*
X745654Y242023D02*
Y241085D01*
X745341D01*
X744717Y241398D01*
X744404Y241711D01*
X744091Y242335D01*
Y242961D01*
X744404Y243585D01*
X744717Y243898D01*
X745341Y244211D01*
X746591D01*
X747217Y243898D01*
X747529Y243585D01*
X747841Y242961D01*
Y242335D01*
X747529Y241711D01*
X747217Y241398D01*
X746591Y241085D01*
X768154Y242023D02*
Y241085D01*
X767841D01*
X767217Y241398D01*
X766904Y241711D01*
X766591Y242335D01*
Y242961D01*
X766904Y243585D01*
X767217Y243898D01*
X767841Y244211D01*
X769091D01*
X769717Y243898D01*
X770029Y243585D01*
X770341Y242961D01*
Y242335D01*
X770029Y241711D01*
X769717Y241398D01*
X769091Y241085D01*
X469716Y241063D02*
X469403Y241376D01*
X469091Y242001D01*
Y242938D01*
X469403Y243563D01*
X469716Y243876D01*
X470341Y244188D01*
X471591D01*
X472216Y243876D01*
X472528Y243563D01*
X472841Y242938D01*
Y242001D01*
X472528Y241376D01*
X472216Y241063D01*
X489716D02*
X489403Y241376D01*
X489091Y242001D01*
Y242938D01*
X489403Y243563D01*
X489716Y243876D01*
X490341Y244188D01*
X491591D01*
X492216Y243876D01*
X492528Y243563D01*
X492841Y242938D01*
Y242001D01*
X492528Y241376D01*
X492216Y241063D01*
X569717Y241063D02*
X569404Y241375D01*
X569092Y242000D01*
Y242938D01*
X569404Y243563D01*
X569717Y243875D01*
X570342Y244188D01*
X571592D01*
X572217Y243875D01*
X572530Y243563D01*
X572842Y242938D01*
Y242000D01*
X572530Y241375D01*
X572217Y241063D01*
X589717D02*
X589404Y241375D01*
X589092Y242000D01*
Y242938D01*
X589404Y243563D01*
X589717Y243875D01*
X590342Y244188D01*
X591592D01*
X592217Y243875D01*
X592530Y243563D01*
X592842Y242938D01*
Y242000D01*
X592530Y241375D01*
X592217Y241063D01*
X669717D02*
X669404Y241375D01*
X669092Y242000D01*
Y242938D01*
X669404Y243563D01*
X669717Y243875D01*
X670342Y244188D01*
X671592D01*
X672217Y243875D01*
X672530Y243563D01*
X672842Y242938D01*
Y242000D01*
X672530Y241375D01*
X672217Y241063D01*
X689717D02*
X689404Y241375D01*
X689092Y242000D01*
Y242938D01*
X689404Y243563D01*
X689717Y243875D01*
X690342Y244188D01*
X691592D01*
X692217Y243875D01*
X692530Y243563D01*
X692842Y242938D01*
Y242000D01*
X692530Y241375D01*
X692217Y241063D01*
X125634Y243994D02*
X129384D01*
Y240869D01*
X127509Y241494D02*
Y243994D01*
X125634D02*
Y240869D01*
X151843Y243859D02*
X155593D01*
Y241671D01*
X155281Y241046D01*
X154656Y240733D01*
X154031Y241046D01*
X153718Y241671D01*
Y243859D01*
X144230Y239709D02*
X147980D01*
Y236583D01*
X146105Y237209D02*
Y239709D01*
X144230D02*
Y236583D01*
X700654Y237023D02*
Y236085D01*
X700341D01*
X699717Y236398D01*
X699404Y236711D01*
X699091Y237335D01*
Y237961D01*
X699404Y238585D01*
X699717Y238898D01*
X700341Y239211D01*
X701591D01*
X702217Y238898D01*
X702529Y238585D01*
X702841Y237961D01*
Y237335D01*
X702529Y236711D01*
X702217Y236398D01*
X701591Y236085D01*
X137740Y236899D02*
X141490D01*
Y233774D01*
X139615Y234399D02*
Y236899D01*
X137740D02*
Y233774D01*
X220193Y235402D02*
X223943D01*
Y232276D01*
X222068Y232902D02*
Y235402D01*
X220193D02*
Y232276D01*
X242033Y235402D02*
X245783D01*
Y232276D01*
X243909Y232902D02*
Y235402D01*
X242033D02*
Y232276D01*
X247400Y235402D02*
X251150D01*
Y232276D01*
X249275Y232902D02*
Y235402D01*
X247400D02*
Y232276D01*
X252143Y235402D02*
X255893D01*
Y232276D01*
X254018Y232902D02*
Y235402D01*
X252143D02*
Y232276D01*
X369716Y231085D02*
X369403Y231398D01*
X369091Y232023D01*
Y232961D01*
X369403Y233585D01*
X369716Y233898D01*
X370341Y234211D01*
X371591D01*
X372216Y233898D01*
X372528Y233585D01*
X372841Y232961D01*
Y232023D01*
X372528Y231398D01*
X372216Y231085D01*
X389716D02*
X389403Y231398D01*
X389091Y232023D01*
Y232961D01*
X389403Y233585D01*
X389716Y233898D01*
X390341Y234211D01*
X391591D01*
X392216Y233898D01*
X392528Y233585D01*
X392841Y232961D01*
Y232023D01*
X392528Y231398D01*
X392216Y231085D01*
X469716Y231063D02*
X469403Y231376D01*
X469091Y232001D01*
Y232938D01*
X469403Y233563D01*
X469716Y233876D01*
X470341Y234188D01*
X471591D01*
X472216Y233876D01*
X472528Y233563D01*
X472841Y232938D01*
Y232001D01*
X472528Y231376D01*
X472216Y231063D01*
X489716D02*
X489403Y231376D01*
X489091Y232001D01*
Y232938D01*
X489403Y233563D01*
X489716Y233876D01*
X490341Y234188D01*
X491591D01*
X492216Y233876D01*
X492528Y233563D01*
X492841Y232938D01*
Y232001D01*
X492528Y231376D01*
X492216Y231063D01*
X569717Y231063D02*
X569404Y231375D01*
X569092Y232000D01*
Y232938D01*
X569404Y233563D01*
X569717Y233875D01*
X570342Y234188D01*
X571592D01*
X572217Y233875D01*
X572530Y233563D01*
X572842Y232938D01*
Y232000D01*
X572530Y231375D01*
X572217Y231063D01*
X589717D02*
X589404Y231375D01*
X589092Y232000D01*
Y232938D01*
X589404Y233563D01*
X589717Y233875D01*
X590342Y234188D01*
X591592D01*
X592217Y233875D01*
X592530Y233563D01*
X592842Y232938D01*
Y232000D01*
X592530Y231375D01*
X592217Y231063D01*
X669717D02*
X669404Y231375D01*
X669092Y232000D01*
Y232938D01*
X669404Y233563D01*
X669717Y233875D01*
X670342Y234188D01*
X671592D01*
X672217Y233875D01*
X672530Y233563D01*
X672842Y232938D01*
Y232000D01*
X672530Y231375D01*
X672217Y231063D01*
X689717D02*
X689404Y231375D01*
X689092Y232000D01*
Y232938D01*
X689404Y233563D01*
X689717Y233875D01*
X690342Y234188D01*
X691592D01*
X692217Y233875D01*
X692530Y233563D01*
X692842Y232938D01*
Y232000D01*
X692530Y231375D01*
X692217Y231063D01*
X125634Y233994D02*
X129384D01*
Y230869D01*
X127509Y231494D02*
Y233994D01*
X125634D02*
Y230869D01*
X151843Y233859D02*
X155593D01*
Y231671D01*
X155281Y231046D01*
X154656Y230733D01*
X154031Y231046D01*
X153718Y231671D01*
Y233859D01*
X196962Y231156D02*
Y230219D01*
X196649D01*
X196024Y230531D01*
X195712Y230844D01*
X195399Y231469D01*
Y232094D01*
X195712Y232719D01*
X196024Y233031D01*
X196649Y233344D01*
X197899D01*
X198524Y233031D01*
X198837Y232719D01*
X199149Y232094D01*
Y231469D01*
X198837Y230844D01*
X198524Y230531D01*
X197899Y230219D01*
X741375Y232961D02*
X745125Y231398D01*
X741375Y229835D01*
X742937Y232335D02*
Y230461D01*
X741375Y227023D02*
Y225773D01*
Y226398D02*
X745125D01*
Y227023D02*
Y225773D01*
X759091Y232961D02*
X762841Y231398D01*
X759091Y229835D01*
X760654Y232335D02*
Y230461D01*
X759091Y227023D02*
Y225773D01*
Y226398D02*
X762841D01*
Y227023D02*
Y225773D01*
X223188Y232906D02*
X226938D01*
Y229780D01*
X225063Y230406D02*
Y232906D01*
X223188D02*
Y229780D01*
X244779Y232906D02*
X248529D01*
Y229780D01*
X246654Y230406D02*
Y232906D01*
X244779D02*
Y229780D01*
X249771Y232906D02*
X253521D01*
Y229780D01*
X251646Y230406D02*
Y232906D01*
X249771D02*
Y229780D01*
X254514Y232906D02*
X258264D01*
Y229780D01*
X256389Y230406D02*
Y232906D01*
X254514D02*
Y229780D01*
X622841Y231711D02*
X626591D01*
Y228585D01*
X624717Y229211D02*
Y231711D01*
X622841D02*
Y228585D01*
X315653Y226974D02*
Y226036D01*
X315341D01*
X314716Y226349D01*
X314403Y226661D01*
X314091Y227286D01*
Y227911D01*
X314403Y228536D01*
X314716Y228849D01*
X315341Y229161D01*
X316591D01*
X317216Y228849D01*
X317528Y228536D01*
X317841Y227911D01*
Y227286D01*
X317528Y226661D01*
X317216Y226349D01*
X316591Y226036D01*
X350654Y226974D02*
Y226036D01*
X350341D01*
X349717Y226349D01*
X349404Y226661D01*
X349091Y227286D01*
Y227911D01*
X349404Y228536D01*
X349717Y228849D01*
X350341Y229161D01*
X351591D01*
X352217Y228849D01*
X352529Y228536D01*
X352841Y227911D01*
Y227286D01*
X352529Y226661D01*
X352217Y226349D01*
X351591Y226036D01*
X270654Y226849D02*
Y225911D01*
X270341D01*
X269717Y226224D01*
X269404Y226537D01*
X269091Y227161D01*
Y227787D01*
X269404Y228411D01*
X269717Y228724D01*
X270341Y229037D01*
X271591D01*
X272217Y228724D01*
X272529Y228411D01*
X272841Y227787D01*
Y227161D01*
X272529Y226537D01*
X272217Y226224D01*
X271591Y225911D01*
X218570Y226986D02*
X222320D01*
Y223861D01*
X220446Y224486D02*
Y226986D01*
X218570D02*
Y223861D01*
X137990Y226230D02*
X141740D01*
Y223105D01*
X139865Y223730D02*
Y226230D01*
X137990D02*
Y223105D01*
X265341Y225885D02*
X269091D01*
Y222760D01*
X267217Y223385D02*
Y225885D01*
X265341D02*
Y222760D01*
X369716Y221085D02*
X369403Y221398D01*
X369091Y222023D01*
Y222961D01*
X369403Y223585D01*
X369716Y223898D01*
X370341Y224211D01*
X371591D01*
X372216Y223898D01*
X372528Y223585D01*
X372841Y222961D01*
Y222023D01*
X372528Y221398D01*
X372216Y221085D01*
X389716D02*
X389403Y221398D01*
X389091Y222023D01*
Y222961D01*
X389403Y223585D01*
X389716Y223898D01*
X390341Y224211D01*
X391591D01*
X392216Y223898D01*
X392528Y223585D01*
X392841Y222961D01*
Y222023D01*
X392528Y221398D01*
X392216Y221085D01*
X469716Y221063D02*
X469403Y221376D01*
X469091Y222001D01*
Y222938D01*
X469403Y223563D01*
X469716Y223876D01*
X470341Y224188D01*
X471591D01*
X472216Y223876D01*
X472528Y223563D01*
X472841Y222938D01*
Y222001D01*
X472528Y221376D01*
X472216Y221063D01*
X489716D02*
X489403Y221376D01*
X489091Y222001D01*
Y222938D01*
X489403Y223563D01*
X489716Y223876D01*
X490341Y224188D01*
X491591D01*
X492216Y223876D01*
X492528Y223563D01*
X492841Y222938D01*
Y222001D01*
X492528Y221376D01*
X492216Y221063D01*
X569717Y221063D02*
X569404Y221375D01*
X569092Y222000D01*
Y222938D01*
X569404Y223563D01*
X569717Y223875D01*
X570342Y224188D01*
X571592D01*
X572217Y223875D01*
X572530Y223563D01*
X572842Y222938D01*
Y222000D01*
X572530Y221375D01*
X572217Y221063D01*
X589717D02*
X589404Y221375D01*
X589092Y222000D01*
Y222938D01*
X589404Y223563D01*
X589717Y223875D01*
X590342Y224188D01*
X591592D01*
X592217Y223875D01*
X592530Y223563D01*
X592842Y222938D01*
Y222000D01*
X592530Y221375D01*
X592217Y221063D01*
X669717D02*
X669404Y221375D01*
X669092Y222000D01*
Y222938D01*
X669404Y223563D01*
X669717Y223875D01*
X670342Y224188D01*
X671592D01*
X672217Y223875D01*
X672530Y223563D01*
X672842Y222938D01*
Y222000D01*
X672530Y221375D01*
X672217Y221063D01*
X689717D02*
X689404Y221375D01*
X689092Y222000D01*
Y222938D01*
X689404Y223563D01*
X689717Y223875D01*
X690342Y224188D01*
X691592D01*
X692217Y223875D01*
X692530Y223563D01*
X692842Y222938D01*
Y222000D01*
X692530Y221375D01*
X692217Y221063D01*
X125509Y223994D02*
X129259D01*
Y220869D01*
X127385Y221494D02*
Y223994D01*
X125509D02*
Y220869D01*
X151843Y223859D02*
X155593D01*
Y221671D01*
X155281Y221046D01*
X154656Y220733D01*
X154031Y221046D01*
X153718Y221671D01*
Y223859D01*
X204967Y223837D02*
X208717D01*
Y220711D01*
X206842Y221337D02*
Y223837D01*
X204967D02*
Y220711D01*
X522591Y221711D02*
X526341D01*
Y218585D01*
X524466Y219211D02*
Y221711D01*
X522591D02*
Y218585D01*
X137990Y221113D02*
X141740D01*
Y217988D01*
X139865Y218613D02*
Y221113D01*
X137990D02*
Y217988D01*
X218820Y220687D02*
X222570D01*
Y217562D01*
X220695Y218187D02*
Y220687D01*
X218820D02*
Y217562D01*
X720654Y217023D02*
Y216085D01*
X720341D01*
X719717Y216398D01*
X719404Y216711D01*
X719091Y217335D01*
Y217961D01*
X719404Y218585D01*
X719717Y218898D01*
X720341Y219211D01*
X721591D01*
X722217Y218898D01*
X722529Y218585D01*
X722841Y217961D01*
Y217335D01*
X722529Y216711D01*
X722217Y216398D01*
X721591Y216085D01*
X745654Y217023D02*
Y216085D01*
X745341D01*
X744717Y216398D01*
X744404Y216711D01*
X744091Y217335D01*
Y217961D01*
X744404Y218585D01*
X744717Y218898D01*
X745341Y219211D01*
X746591D01*
X747217Y218898D01*
X747529Y218585D01*
X747841Y217961D01*
Y217335D01*
X747529Y216711D01*
X747217Y216398D01*
X746591Y216085D01*
X768154Y217023D02*
Y216085D01*
X767841D01*
X767217Y216398D01*
X766904Y216711D01*
X766591Y217335D01*
Y217961D01*
X766904Y218585D01*
X767217Y218898D01*
X767841Y219211D01*
X769091D01*
X769717Y218898D01*
X770029Y218585D01*
X770341Y217961D01*
Y217335D01*
X770029Y216711D01*
X769717Y216398D01*
X769091Y216085D01*
X262841Y217929D02*
X266591D01*
Y214804D01*
X264717Y215429D02*
Y217929D01*
X262841D02*
Y214804D01*
X173624Y215306D02*
Y214369D01*
X173311D01*
X172686Y214681D01*
X172374Y214994D01*
X172061Y215619D01*
Y216244D01*
X172374Y216869D01*
X172686Y217181D01*
X173311Y217494D01*
X174561D01*
X175186Y217181D01*
X175499Y216869D01*
X175811Y216244D01*
Y215619D01*
X175499Y214994D01*
X175186Y214681D01*
X174561Y214369D01*
X178741Y215306D02*
Y214369D01*
X178428D01*
X177803Y214681D01*
X177491Y214994D01*
X177178Y215619D01*
Y216244D01*
X177491Y216869D01*
X177803Y217181D01*
X178428Y217494D01*
X179678D01*
X180303Y217181D01*
X180616Y216869D01*
X180928Y216244D01*
Y215619D01*
X180616Y214994D01*
X180303Y214681D01*
X179678Y214369D01*
X228971Y215308D02*
X232721D01*
Y212183D01*
X230846Y212808D02*
Y215308D01*
X228971D02*
Y212183D01*
X369716Y211085D02*
X369403Y211398D01*
X369091Y212023D01*
Y212961D01*
X369403Y213585D01*
X369716Y213898D01*
X370341Y214211D01*
X371591D01*
X372216Y213898D01*
X372528Y213585D01*
X372841Y212961D01*
Y212023D01*
X372528Y211398D01*
X372216Y211085D01*
X389716D02*
X389403Y211398D01*
X389091Y212023D01*
Y212961D01*
X389403Y213585D01*
X389716Y213898D01*
X390341Y214211D01*
X391591D01*
X392216Y213898D01*
X392528Y213585D01*
X392841Y212961D01*
Y212023D01*
X392528Y211398D01*
X392216Y211085D01*
X469716Y211063D02*
X469403Y211376D01*
X469091Y212001D01*
Y212938D01*
X469403Y213563D01*
X469716Y213876D01*
X470341Y214188D01*
X471591D01*
X472216Y213876D01*
X472528Y213563D01*
X472841Y212938D01*
Y212001D01*
X472528Y211376D01*
X472216Y211063D01*
X489716D02*
X489403Y211376D01*
X489091Y212001D01*
Y212938D01*
X489403Y213563D01*
X489716Y213876D01*
X490341Y214188D01*
X491591D01*
X492216Y213876D01*
X492528Y213563D01*
X492841Y212938D01*
Y212001D01*
X492528Y211376D01*
X492216Y211063D01*
X569717Y211063D02*
X569404Y211375D01*
X569092Y212000D01*
Y212938D01*
X569404Y213563D01*
X569717Y213875D01*
X570342Y214188D01*
X571592D01*
X572217Y213875D01*
X572530Y213563D01*
X572842Y212938D01*
Y212000D01*
X572530Y211375D01*
X572217Y211063D01*
X589717D02*
X589404Y211375D01*
X589092Y212000D01*
Y212938D01*
X589404Y213563D01*
X589717Y213875D01*
X590342Y214188D01*
X591592D01*
X592217Y213875D01*
X592530Y213563D01*
X592842Y212938D01*
Y212000D01*
X592530Y211375D01*
X592217Y211063D01*
X669717D02*
X669404Y211375D01*
X669092Y212000D01*
Y212938D01*
X669404Y213563D01*
X669717Y213875D01*
X670342Y214188D01*
X671592D01*
X672217Y213875D01*
X672530Y213563D01*
X672842Y212938D01*
Y212000D01*
X672530Y211375D01*
X672217Y211063D01*
X689717D02*
X689404Y211375D01*
X689092Y212000D01*
Y212938D01*
X689404Y213563D01*
X689717Y213875D01*
X690342Y214188D01*
X691592D01*
X692217Y213875D01*
X692530Y213563D01*
X692842Y212938D01*
Y212000D01*
X692530Y211375D01*
X692217Y211063D01*
X125509Y213994D02*
X129259D01*
Y210869D01*
X127385Y211494D02*
Y213994D01*
X125509D02*
Y210869D01*
X137990Y213994D02*
X141740D01*
Y210869D01*
X139865Y211494D02*
Y213994D01*
X137990D02*
Y210869D01*
X424091Y210815D02*
X427841D01*
Y207690D01*
X425967Y208315D02*
Y210815D01*
X424091D02*
Y207690D01*
X263000Y210566D02*
X266750D01*
Y207441D01*
X264876Y208066D02*
Y210566D01*
X263000D02*
Y207441D01*
X700654Y207023D02*
Y206085D01*
X700341D01*
X699717Y206398D01*
X699404Y206711D01*
X699091Y207335D01*
Y207961D01*
X699404Y208585D01*
X699717Y208898D01*
X700341Y209211D01*
X701591D01*
X702217Y208898D01*
X702529Y208585D01*
X702841Y207961D01*
Y207335D01*
X702529Y206711D01*
X702217Y206398D01*
X701591Y206085D01*
X136118Y209007D02*
X139868D01*
Y205882D01*
X137993Y206507D02*
Y209007D01*
X136118D02*
Y205882D01*
X260629Y208194D02*
X264379D01*
Y205069D01*
X262504Y205694D02*
Y208194D01*
X260629D02*
Y205069D01*
X324091Y208194D02*
X327841D01*
Y205069D01*
X325967Y205694D02*
Y208194D01*
X324091D02*
Y205069D01*
X350654Y204523D02*
Y203585D01*
X350341D01*
X349717Y203898D01*
X349404Y204211D01*
X349091Y204835D01*
Y205461D01*
X349404Y206085D01*
X349717Y206398D01*
X350341Y206711D01*
X351591D01*
X352217Y206398D01*
X352529Y206085D01*
X352841Y205461D01*
Y204835D01*
X352529Y204211D01*
X352217Y203898D01*
X351591Y203585D01*
X369716Y201085D02*
X369403Y201398D01*
X369091Y202023D01*
Y202961D01*
X369403Y203585D01*
X369716Y203898D01*
X370341Y204211D01*
X371591D01*
X372216Y203898D01*
X372528Y203585D01*
X372841Y202961D01*
Y202023D01*
X372528Y201398D01*
X372216Y201085D01*
X389716D02*
X389403Y201398D01*
X389091Y202023D01*
Y202961D01*
X389403Y203585D01*
X389716Y203898D01*
X390341Y204211D01*
X391591D01*
X392216Y203898D01*
X392528Y203585D01*
X392841Y202961D01*
Y202023D01*
X392528Y201398D01*
X392216Y201085D01*
X469716Y201063D02*
X469403Y201376D01*
X469091Y202001D01*
Y202938D01*
X469403Y203563D01*
X469716Y203876D01*
X470341Y204188D01*
X471591D01*
X472216Y203876D01*
X472528Y203563D01*
X472841Y202938D01*
Y202001D01*
X472528Y201376D01*
X472216Y201063D01*
X489716D02*
X489403Y201376D01*
X489091Y202001D01*
Y202938D01*
X489403Y203563D01*
X489716Y203876D01*
X490341Y204188D01*
X491591D01*
X492216Y203876D01*
X492528Y203563D01*
X492841Y202938D01*
Y202001D01*
X492528Y201376D01*
X492216Y201063D01*
X569717Y201063D02*
X569404Y201375D01*
X569092Y202000D01*
Y202938D01*
X569404Y203563D01*
X569717Y203875D01*
X570342Y204188D01*
X571592D01*
X572217Y203875D01*
X572530Y203563D01*
X572842Y202938D01*
Y202000D01*
X572530Y201375D01*
X572217Y201063D01*
X589717D02*
X589404Y201375D01*
X589092Y202000D01*
Y202938D01*
X589404Y203563D01*
X589717Y203875D01*
X590342Y204188D01*
X591592D01*
X592217Y203875D01*
X592530Y203563D01*
X592842Y202938D01*
Y202000D01*
X592530Y201375D01*
X592217Y201063D01*
X669717D02*
X669404Y201375D01*
X669092Y202000D01*
Y202938D01*
X669404Y203563D01*
X669717Y203875D01*
X670342Y204188D01*
X671592D01*
X672217Y203875D01*
X672530Y203563D01*
X672842Y202938D01*
Y202000D01*
X672530Y201375D01*
X672217Y201063D01*
X689717D02*
X689404Y201375D01*
X689092Y202000D01*
Y202938D01*
X689404Y203563D01*
X689717Y203875D01*
X690342Y204188D01*
X691592D01*
X692217Y203875D01*
X692530Y203563D01*
X692842Y202938D01*
Y202000D01*
X692530Y201375D01*
X692217Y201063D01*
X125509Y203994D02*
X129259D01*
Y200869D01*
X127385Y201494D02*
Y203994D01*
X125509D02*
Y200869D01*
X185941Y202393D02*
X189691D01*
Y199267D01*
X187816Y199893D02*
Y202393D01*
X185941D02*
Y199267D01*
X189159Y200021D02*
X192909D01*
Y196896D01*
X191034Y197521D02*
Y200021D01*
X189159D02*
Y196896D01*
X138153Y192023D02*
Y191085D01*
X137841D01*
X137216Y191398D01*
X136903Y191711D01*
X136591Y192335D01*
Y192961D01*
X136903Y193585D01*
X137216Y193898D01*
X137841Y194211D01*
X139091D01*
X139716Y193898D01*
X140028Y193585D01*
X140341Y192961D01*
Y192335D01*
X140028Y191711D01*
X139716Y191398D01*
X139091Y191085D01*
X165654Y192023D02*
Y191085D01*
X165341D01*
X164717Y191398D01*
X164404Y191711D01*
X164091Y192335D01*
Y192961D01*
X164404Y193585D01*
X164717Y193898D01*
X165341Y194211D01*
X166591D01*
X167217Y193898D01*
X167529Y193585D01*
X167841Y192961D01*
Y192335D01*
X167529Y191711D01*
X167217Y191398D01*
X166591Y191085D01*
X210654Y192023D02*
Y191085D01*
X210341D01*
X209717Y191398D01*
X209404Y191711D01*
X209091Y192335D01*
Y192961D01*
X209404Y193585D01*
X209717Y193898D01*
X210341Y194211D01*
X211591D01*
X212217Y193898D01*
X212529Y193585D01*
X212841Y192961D01*
Y192335D01*
X212529Y191711D01*
X212217Y191398D01*
X211591Y191085D01*
X235653Y192023D02*
Y191085D01*
X235341D01*
X234716Y191398D01*
X234403Y191711D01*
X234091Y192335D01*
Y192961D01*
X234403Y193585D01*
X234716Y193898D01*
X235341Y194211D01*
X236591D01*
X237216Y193898D01*
X237528Y193585D01*
X237841Y192961D01*
Y192335D01*
X237528Y191711D01*
X237216Y191398D01*
X236591Y191085D01*
X270654Y192023D02*
Y191085D01*
X270341D01*
X269717Y191398D01*
X269404Y191711D01*
X269091Y192335D01*
Y192961D01*
X269404Y193585D01*
X269717Y193898D01*
X270341Y194211D01*
X271591D01*
X272217Y193898D01*
X272529Y193585D01*
X272841Y192961D01*
Y192335D01*
X272529Y191711D01*
X272217Y191398D01*
X271591Y191085D01*
X315653Y192023D02*
Y191085D01*
X315341D01*
X314716Y191398D01*
X314403Y191711D01*
X314091Y192335D01*
Y192961D01*
X314403Y193585D01*
X314716Y193898D01*
X315341Y194211D01*
X316591D01*
X317216Y193898D01*
X317528Y193585D01*
X317841Y192961D01*
Y192335D01*
X317528Y191711D01*
X317216Y191398D01*
X316591Y191085D01*
X350654Y192023D02*
Y191085D01*
X350341D01*
X349717Y191398D01*
X349404Y191711D01*
X349091Y192335D01*
Y192961D01*
X349404Y193585D01*
X349717Y193898D01*
X350341Y194211D01*
X351591D01*
X352217Y193898D01*
X352529Y193585D01*
X352841Y192961D01*
Y192335D01*
X352529Y191711D01*
X352217Y191398D01*
X351591Y191085D01*
X369716D02*
X369403Y191398D01*
X369091Y192023D01*
Y192961D01*
X369403Y193585D01*
X369716Y193898D01*
X370341Y194211D01*
X371591D01*
X372216Y193898D01*
X372528Y193585D01*
X372841Y192961D01*
Y192023D01*
X372528Y191398D01*
X372216Y191085D01*
X389716D02*
X389403Y191398D01*
X389091Y192023D01*
Y192961D01*
X389403Y193585D01*
X389716Y193898D01*
X390341Y194211D01*
X391591D01*
X392216Y193898D01*
X392528Y193585D01*
X392841Y192961D01*
Y192023D01*
X392528Y191398D01*
X392216Y191085D01*
X720654Y192023D02*
Y191085D01*
X720341D01*
X719717Y191398D01*
X719404Y191711D01*
X719091Y192335D01*
Y192961D01*
X719404Y193585D01*
X719717Y193898D01*
X720341Y194211D01*
X721591D01*
X722217Y193898D01*
X722529Y193585D01*
X722841Y192961D01*
Y192335D01*
X722529Y191711D01*
X722217Y191398D01*
X721591Y191085D01*
X745654Y192023D02*
Y191085D01*
X745341D01*
X744717Y191398D01*
X744404Y191711D01*
X744091Y192335D01*
Y192961D01*
X744404Y193585D01*
X744717Y193898D01*
X745341Y194211D01*
X746591D01*
X747217Y193898D01*
X747529Y193585D01*
X747841Y192961D01*
Y192335D01*
X747529Y191711D01*
X747217Y191398D01*
X746591Y191085D01*
X768154Y192023D02*
Y191085D01*
X767841D01*
X767217Y191398D01*
X766904Y191711D01*
X766591Y192335D01*
Y192961D01*
X766904Y193585D01*
X767217Y193898D01*
X767841Y194211D01*
X769091D01*
X769717Y193898D01*
X770029Y193585D01*
X770341Y192961D01*
Y192335D01*
X770029Y191711D01*
X769717Y191398D01*
X769091Y191085D01*
X469716Y191063D02*
X469403Y191376D01*
X469091Y192001D01*
Y192938D01*
X469403Y193563D01*
X469716Y193876D01*
X470341Y194188D01*
X471591D01*
X472216Y193876D01*
X472528Y193563D01*
X472841Y192938D01*
Y192001D01*
X472528Y191376D01*
X472216Y191063D01*
X489716D02*
X489403Y191376D01*
X489091Y192001D01*
Y192938D01*
X489403Y193563D01*
X489716Y193876D01*
X490341Y194188D01*
X491591D01*
X492216Y193876D01*
X492528Y193563D01*
X492841Y192938D01*
Y192001D01*
X492528Y191376D01*
X492216Y191063D01*
X569717Y191063D02*
X569404Y191375D01*
X569092Y192000D01*
Y192938D01*
X569404Y193563D01*
X569717Y193875D01*
X570342Y194188D01*
X571592D01*
X572217Y193875D01*
X572530Y193563D01*
X572842Y192938D01*
Y192000D01*
X572530Y191375D01*
X572217Y191063D01*
X589717D02*
X589404Y191375D01*
X589092Y192000D01*
Y192938D01*
X589404Y193563D01*
X589717Y193875D01*
X590342Y194188D01*
X591592D01*
X592217Y193875D01*
X592530Y193563D01*
X592842Y192938D01*
Y192000D01*
X592530Y191375D01*
X592217Y191063D01*
X669717D02*
X669404Y191375D01*
X669092Y192000D01*
Y192938D01*
X669404Y193563D01*
X669717Y193875D01*
X670342Y194188D01*
X671592D01*
X672217Y193875D01*
X672530Y193563D01*
X672842Y192938D01*
Y192000D01*
X672530Y191375D01*
X672217Y191063D01*
X689717D02*
X689404Y191375D01*
X689092Y192000D01*
Y192938D01*
X689404Y193563D01*
X689717Y193875D01*
X690342Y194188D01*
X691592D01*
X692217Y193875D01*
X692530Y193563D01*
X692842Y192938D01*
Y192000D01*
X692530Y191375D01*
X692217Y191063D01*
X125509Y193994D02*
X129259D01*
Y190869D01*
X127385Y191494D02*
Y193994D01*
X125509D02*
Y190869D01*
X192240Y190037D02*
X195990D01*
Y186912D01*
X194115Y187537D02*
Y190037D01*
X192240D02*
Y186912D01*
X195390Y187541D02*
X199140D01*
Y184416D01*
X197265Y185041D02*
Y187541D01*
X195390D02*
Y184416D01*
X198519Y185045D02*
X202269D01*
Y181920D01*
X200394Y182545D02*
Y185045D01*
X198519D02*
Y181920D01*
X369716Y181085D02*
X369403Y181398D01*
X369091Y182023D01*
Y182961D01*
X369403Y183585D01*
X369716Y183898D01*
X370341Y184211D01*
X371591D01*
X372216Y183898D01*
X372528Y183585D01*
X372841Y182961D01*
Y182023D01*
X372528Y181398D01*
X372216Y181085D01*
X389716D02*
X389403Y181398D01*
X389091Y182023D01*
Y182961D01*
X389403Y183585D01*
X389716Y183898D01*
X390341Y184211D01*
X391591D01*
X392216Y183898D01*
X392528Y183585D01*
X392841Y182961D01*
Y182023D01*
X392528Y181398D01*
X392216Y181085D01*
X469716Y181063D02*
X469403Y181376D01*
X469091Y182001D01*
Y182938D01*
X469403Y183563D01*
X469716Y183876D01*
X470341Y184188D01*
X471591D01*
X472216Y183876D01*
X472528Y183563D01*
X472841Y182938D01*
Y182001D01*
X472528Y181376D01*
X472216Y181063D01*
X489716D02*
X489403Y181376D01*
X489091Y182001D01*
Y182938D01*
X489403Y183563D01*
X489716Y183876D01*
X490341Y184188D01*
X491591D01*
X492216Y183876D01*
X492528Y183563D01*
X492841Y182938D01*
Y182001D01*
X492528Y181376D01*
X492216Y181063D01*
X569717Y181063D02*
X569404Y181375D01*
X569092Y182000D01*
Y182938D01*
X569404Y183563D01*
X569717Y183875D01*
X570342Y184188D01*
X571592D01*
X572217Y183875D01*
X572530Y183563D01*
X572842Y182938D01*
Y182000D01*
X572530Y181375D01*
X572217Y181063D01*
X589717D02*
X589404Y181375D01*
X589092Y182000D01*
Y182938D01*
X589404Y183563D01*
X589717Y183875D01*
X590342Y184188D01*
X591592D01*
X592217Y183875D01*
X592530Y183563D01*
X592842Y182938D01*
Y182000D01*
X592530Y181375D01*
X592217Y181063D01*
X669717D02*
X669404Y181375D01*
X669092Y182000D01*
Y182938D01*
X669404Y183563D01*
X669717Y183875D01*
X670342Y184188D01*
X671592D01*
X672217Y183875D01*
X672530Y183563D01*
X672842Y182938D01*
Y182000D01*
X672530Y181375D01*
X672217Y181063D01*
X689717D02*
X689404Y181375D01*
X689092Y182000D01*
Y182938D01*
X689404Y183563D01*
X689717Y183875D01*
X690342Y184188D01*
X691592D01*
X692217Y183875D01*
X692530Y183563D01*
X692842Y182938D01*
Y182000D01*
X692530Y181375D01*
X692217Y181063D01*
X125509Y183994D02*
X129259D01*
Y180869D01*
X127385Y181494D02*
Y183994D01*
X125509D02*
Y180869D01*
X201689Y182674D02*
X205439D01*
Y179548D01*
X203564Y180174D02*
Y182674D01*
X201689D02*
Y179548D01*
X204839Y180302D02*
X208589D01*
Y177177D01*
X206714Y177802D02*
Y180302D01*
X204839D02*
Y177177D01*
X700654Y177023D02*
Y176085D01*
X700341D01*
X699717Y176398D01*
X699404Y176711D01*
X699091Y177335D01*
Y177961D01*
X699404Y178585D01*
X699717Y178898D01*
X700341Y179211D01*
X701591D01*
X702217Y178898D01*
X702529Y178585D01*
X702841Y177961D01*
Y177335D01*
X702529Y176711D01*
X702217Y176398D01*
X701591Y176085D01*
X216990Y177931D02*
X220740D01*
Y174806D01*
X218865Y175431D02*
Y177931D01*
X216990D02*
Y174806D01*
X369716Y171085D02*
X369403Y171398D01*
X369091Y172023D01*
Y172961D01*
X369403Y173585D01*
X369716Y173898D01*
X370341Y174211D01*
X371591D01*
X372216Y173898D01*
X372528Y173585D01*
X372841Y172961D01*
Y172023D01*
X372528Y171398D01*
X372216Y171085D01*
X389716D02*
X389403Y171398D01*
X389091Y172023D01*
Y172961D01*
X389403Y173585D01*
X389716Y173898D01*
X390341Y174211D01*
X391591D01*
X392216Y173898D01*
X392528Y173585D01*
X392841Y172961D01*
Y172023D01*
X392528Y171398D01*
X392216Y171085D01*
X469716Y171063D02*
X469403Y171376D01*
X469091Y172001D01*
Y172938D01*
X469403Y173563D01*
X469716Y173876D01*
X470341Y174188D01*
X471591D01*
X472216Y173876D01*
X472528Y173563D01*
X472841Y172938D01*
Y172001D01*
X472528Y171376D01*
X472216Y171063D01*
X489716D02*
X489403Y171376D01*
X489091Y172001D01*
Y172938D01*
X489403Y173563D01*
X489716Y173876D01*
X490341Y174188D01*
X491591D01*
X492216Y173876D01*
X492528Y173563D01*
X492841Y172938D01*
Y172001D01*
X492528Y171376D01*
X492216Y171063D01*
X569717Y171063D02*
X569404Y171375D01*
X569092Y172000D01*
Y172938D01*
X569404Y173563D01*
X569717Y173875D01*
X570342Y174188D01*
X571592D01*
X572217Y173875D01*
X572530Y173563D01*
X572842Y172938D01*
Y172000D01*
X572530Y171375D01*
X572217Y171063D01*
X589717D02*
X589404Y171375D01*
X589092Y172000D01*
Y172938D01*
X589404Y173563D01*
X589717Y173875D01*
X590342Y174188D01*
X591592D01*
X592217Y173875D01*
X592530Y173563D01*
X592842Y172938D01*
Y172000D01*
X592530Y171375D01*
X592217Y171063D01*
X669717D02*
X669404Y171375D01*
X669092Y172000D01*
Y172938D01*
X669404Y173563D01*
X669717Y173875D01*
X670342Y174188D01*
X671592D01*
X672217Y173875D01*
X672530Y173563D01*
X672842Y172938D01*
Y172000D01*
X672530Y171375D01*
X672217Y171063D01*
X689717D02*
X689404Y171375D01*
X689092Y172000D01*
Y172938D01*
X689404Y173563D01*
X689717Y173875D01*
X690342Y174188D01*
X691592D01*
X692217Y173875D01*
X692530Y173563D01*
X692842Y172938D01*
Y172000D01*
X692530Y171375D01*
X692217Y171063D01*
X125759Y173994D02*
X129509D01*
Y170869D01*
X127634Y171494D02*
Y173994D01*
X125759D02*
Y170869D01*
X219237Y173438D02*
X222987D01*
Y170313D01*
X221112Y170938D02*
Y173438D01*
X219237D02*
Y170313D01*
X221608Y170693D02*
X225358D01*
Y167567D01*
X223483Y168193D02*
Y170693D01*
X221608D02*
Y167567D01*
X720654Y167023D02*
Y166085D01*
X720341D01*
X719717Y166398D01*
X719404Y166711D01*
X719091Y167335D01*
Y167961D01*
X719404Y168585D01*
X719717Y168898D01*
X720341Y169211D01*
X721591D01*
X722217Y168898D01*
X722529Y168585D01*
X722841Y167961D01*
Y167335D01*
X722529Y166711D01*
X722217Y166398D01*
X721591Y166085D01*
X745654Y167023D02*
Y166085D01*
X745341D01*
X744717Y166398D01*
X744404Y166711D01*
X744091Y167335D01*
Y167961D01*
X744404Y168585D01*
X744717Y168898D01*
X745341Y169211D01*
X746591D01*
X747217Y168898D01*
X747529Y168585D01*
X747841Y167961D01*
Y167335D01*
X747529Y166711D01*
X747217Y166398D01*
X746591Y166085D01*
X768154Y167023D02*
Y166085D01*
X767841D01*
X767217Y166398D01*
X766904Y166711D01*
X766591Y167335D01*
Y167961D01*
X766904Y168585D01*
X767217Y168898D01*
X767841Y169211D01*
X769091D01*
X769717Y168898D01*
X770029Y168585D01*
X770341Y167961D01*
Y167335D01*
X770029Y166711D01*
X769717Y166398D01*
X769091Y166085D01*
X223979Y167947D02*
X227729D01*
Y164822D01*
X225854Y165447D02*
Y167947D01*
X223979D02*
Y164822D01*
X369716Y161085D02*
X369403Y161398D01*
X369091Y162023D01*
Y162961D01*
X369403Y163585D01*
X369716Y163898D01*
X370341Y164211D01*
X371591D01*
X372216Y163898D01*
X372528Y163585D01*
X372841Y162961D01*
Y162023D01*
X372528Y161398D01*
X372216Y161085D01*
X389716D02*
X389403Y161398D01*
X389091Y162023D01*
Y162961D01*
X389403Y163585D01*
X389716Y163898D01*
X390341Y164211D01*
X391591D01*
X392216Y163898D01*
X392528Y163585D01*
X392841Y162961D01*
Y162023D01*
X392528Y161398D01*
X392216Y161085D01*
X469716Y161063D02*
X469403Y161376D01*
X469091Y162001D01*
Y162938D01*
X469403Y163563D01*
X469716Y163876D01*
X470341Y164188D01*
X471591D01*
X472216Y163876D01*
X472528Y163563D01*
X472841Y162938D01*
Y162001D01*
X472528Y161376D01*
X472216Y161063D01*
X489716D02*
X489403Y161376D01*
X489091Y162001D01*
Y162938D01*
X489403Y163563D01*
X489716Y163876D01*
X490341Y164188D01*
X491591D01*
X492216Y163876D01*
X492528Y163563D01*
X492841Y162938D01*
Y162001D01*
X492528Y161376D01*
X492216Y161063D01*
X569717Y161063D02*
X569404Y161375D01*
X569092Y162000D01*
Y162938D01*
X569404Y163563D01*
X569717Y163875D01*
X570342Y164188D01*
X571592D01*
X572217Y163875D01*
X572530Y163563D01*
X572842Y162938D01*
Y162000D01*
X572530Y161375D01*
X572217Y161063D01*
X589717D02*
X589404Y161375D01*
X589092Y162000D01*
Y162938D01*
X589404Y163563D01*
X589717Y163875D01*
X590342Y164188D01*
X591592D01*
X592217Y163875D01*
X592530Y163563D01*
X592842Y162938D01*
Y162000D01*
X592530Y161375D01*
X592217Y161063D01*
X669717D02*
X669404Y161375D01*
X669092Y162000D01*
Y162938D01*
X669404Y163563D01*
X669717Y163875D01*
X670342Y164188D01*
X671592D01*
X672217Y163875D01*
X672530Y163563D01*
X672842Y162938D01*
Y162000D01*
X672530Y161375D01*
X672217Y161063D01*
X689717D02*
X689404Y161375D01*
X689092Y162000D01*
Y162938D01*
X689404Y163563D01*
X689717Y163875D01*
X690342Y164188D01*
X691592D01*
X692217Y163875D01*
X692530Y163563D01*
X692842Y162938D01*
Y162000D01*
X692530Y161375D01*
X692217Y161063D01*
X125884Y164063D02*
X129634D01*
Y160938D01*
X127759Y161563D02*
Y164063D01*
X125884D02*
Y160938D01*
X228971Y160583D02*
X232721D01*
Y157458D01*
X230846Y158083D02*
Y160583D01*
X228971D02*
Y157458D01*
X741375Y157961D02*
X745125Y156398D01*
X741375Y154835D01*
X742937Y157335D02*
Y155461D01*
X741375Y152023D02*
Y150773D01*
Y151398D02*
X745125D01*
Y152023D02*
Y150773D01*
X759091Y157961D02*
X762841Y156398D01*
X759091Y154835D01*
X760654Y157335D02*
Y155461D01*
X759091Y152023D02*
Y150773D01*
Y151398D02*
X762841D01*
Y152023D02*
Y150773D01*
X369716Y151085D02*
X369403Y151398D01*
X369091Y152023D01*
Y152961D01*
X369403Y153585D01*
X369716Y153898D01*
X370341Y154211D01*
X371591D01*
X372216Y153898D01*
X372528Y153585D01*
X372841Y152961D01*
Y152023D01*
X372528Y151398D01*
X372216Y151085D01*
X389716D02*
X389403Y151398D01*
X389091Y152023D01*
Y152961D01*
X389403Y153585D01*
X389716Y153898D01*
X390341Y154211D01*
X391591D01*
X392216Y153898D01*
X392528Y153585D01*
X392841Y152961D01*
Y152023D01*
X392528Y151398D01*
X392216Y151085D01*
X469716Y151063D02*
X469403Y151376D01*
X469091Y152001D01*
Y152938D01*
X469403Y153563D01*
X469716Y153876D01*
X470341Y154188D01*
X471591D01*
X472216Y153876D01*
X472528Y153563D01*
X472841Y152938D01*
Y152001D01*
X472528Y151376D01*
X472216Y151063D01*
X489716D02*
X489403Y151376D01*
X489091Y152001D01*
Y152938D01*
X489403Y153563D01*
X489716Y153876D01*
X490341Y154188D01*
X491591D01*
X492216Y153876D01*
X492528Y153563D01*
X492841Y152938D01*
Y152001D01*
X492528Y151376D01*
X492216Y151063D01*
X569717Y151063D02*
X569404Y151375D01*
X569092Y152000D01*
Y152938D01*
X569404Y153563D01*
X569717Y153875D01*
X570342Y154188D01*
X571592D01*
X572217Y153875D01*
X572530Y153563D01*
X572842Y152938D01*
Y152000D01*
X572530Y151375D01*
X572217Y151063D01*
X589717D02*
X589404Y151375D01*
X589092Y152000D01*
Y152938D01*
X589404Y153563D01*
X589717Y153875D01*
X590342Y154188D01*
X591592D01*
X592217Y153875D01*
X592530Y153563D01*
X592842Y152938D01*
Y152000D01*
X592530Y151375D01*
X592217Y151063D01*
X669717D02*
X669404Y151375D01*
X669092Y152000D01*
Y152938D01*
X669404Y153563D01*
X669717Y153875D01*
X670342Y154188D01*
X671592D01*
X672217Y153875D01*
X672530Y153563D01*
X672842Y152938D01*
Y152000D01*
X672530Y151375D01*
X672217Y151063D01*
X689717D02*
X689404Y151375D01*
X689092Y152000D01*
Y152938D01*
X689404Y153563D01*
X689717Y153875D01*
X690342Y154188D01*
X691592D01*
X692217Y153875D01*
X692530Y153563D01*
X692842Y152938D01*
Y152000D01*
X692530Y151375D01*
X692217Y151063D01*
X126133Y153994D02*
X129883D01*
Y150869D01*
X128009Y151494D02*
Y153994D01*
X126133D02*
Y150869D01*
X226475Y149601D02*
X230225D01*
Y146476D01*
X228350Y147101D02*
Y149601D01*
X226475D02*
Y146476D01*
X700654Y147023D02*
Y146085D01*
X700341D01*
X699717Y146398D01*
X699404Y146711D01*
X699091Y147335D01*
Y147961D01*
X699404Y148585D01*
X699717Y148898D01*
X700341Y149211D01*
X701591D01*
X702217Y148898D01*
X702529Y148585D01*
X702841Y147961D01*
Y147335D01*
X702529Y146711D01*
X702217Y146398D01*
X701591Y146085D01*
X369716Y141085D02*
X369403Y141398D01*
X369091Y142023D01*
Y142961D01*
X369403Y143585D01*
X369716Y143898D01*
X370341Y144211D01*
X371591D01*
X372216Y143898D01*
X372528Y143585D01*
X372841Y142961D01*
Y142023D01*
X372528Y141398D01*
X372216Y141085D01*
X389716D02*
X389403Y141398D01*
X389091Y142023D01*
Y142961D01*
X389403Y143585D01*
X389716Y143898D01*
X390341Y144211D01*
X391591D01*
X392216Y143898D01*
X392528Y143585D01*
X392841Y142961D01*
Y142023D01*
X392528Y141398D01*
X392216Y141085D01*
X720654Y142023D02*
Y141085D01*
X720341D01*
X719717Y141398D01*
X719404Y141711D01*
X719091Y142335D01*
Y142961D01*
X719404Y143585D01*
X719717Y143898D01*
X720341Y144211D01*
X721591D01*
X722217Y143898D01*
X722529Y143585D01*
X722841Y142961D01*
Y142335D01*
X722529Y141711D01*
X722217Y141398D01*
X721591Y141085D01*
X745654Y142023D02*
Y141085D01*
X745341D01*
X744717Y141398D01*
X744404Y141711D01*
X744091Y142335D01*
Y142961D01*
X744404Y143585D01*
X744717Y143898D01*
X745341Y144211D01*
X746591D01*
X747217Y143898D01*
X747529Y143585D01*
X747841Y142961D01*
Y142335D01*
X747529Y141711D01*
X747217Y141398D01*
X746591Y141085D01*
X768154Y142023D02*
Y141085D01*
X767841D01*
X767217Y141398D01*
X766904Y141711D01*
X766591Y142335D01*
Y142961D01*
X766904Y143585D01*
X767217Y143898D01*
X767841Y144211D01*
X769091D01*
X769717Y143898D01*
X770029Y143585D01*
X770341Y142961D01*
Y142335D01*
X770029Y141711D01*
X769717Y141398D01*
X769091Y141085D01*
X469716Y141063D02*
X469403Y141376D01*
X469091Y142001D01*
Y142938D01*
X469403Y143563D01*
X469716Y143876D01*
X470341Y144188D01*
X471591D01*
X472216Y143876D01*
X472528Y143563D01*
X472841Y142938D01*
Y142001D01*
X472528Y141376D01*
X472216Y141063D01*
X489716D02*
X489403Y141376D01*
X489091Y142001D01*
Y142938D01*
X489403Y143563D01*
X489716Y143876D01*
X490341Y144188D01*
X491591D01*
X492216Y143876D01*
X492528Y143563D01*
X492841Y142938D01*
Y142001D01*
X492528Y141376D01*
X492216Y141063D01*
X569717Y141063D02*
X569404Y141375D01*
X569092Y142000D01*
Y142938D01*
X569404Y143563D01*
X569717Y143875D01*
X570342Y144188D01*
X571592D01*
X572217Y143875D01*
X572530Y143563D01*
X572842Y142938D01*
Y142000D01*
X572530Y141375D01*
X572217Y141063D01*
X589717D02*
X589404Y141375D01*
X589092Y142000D01*
Y142938D01*
X589404Y143563D01*
X589717Y143875D01*
X590342Y144188D01*
X591592D01*
X592217Y143875D01*
X592530Y143563D01*
X592842Y142938D01*
Y142000D01*
X592530Y141375D01*
X592217Y141063D01*
X669717D02*
X669404Y141375D01*
X669092Y142000D01*
Y142938D01*
X669404Y143563D01*
X669717Y143875D01*
X670342Y144188D01*
X671592D01*
X672217Y143875D01*
X672530Y143563D01*
X672842Y142938D01*
Y142000D01*
X672530Y141375D01*
X672217Y141063D01*
X689717D02*
X689404Y141375D01*
X689092Y142000D01*
Y142938D01*
X689404Y143563D01*
X689717Y143875D01*
X690342Y144188D01*
X691592D01*
X692217Y143875D01*
X692530Y143563D01*
X692842Y142938D01*
Y142000D01*
X692530Y141375D01*
X692217Y141063D01*
X126009Y143994D02*
X129759D01*
Y140869D01*
X127884Y141494D02*
Y143994D01*
X126009D02*
Y140869D01*
X160477Y137023D02*
Y136085D01*
X160165D01*
X159540Y136398D01*
X159227Y136711D01*
X158915Y137335D01*
Y137961D01*
X159227Y138585D01*
X159540Y138898D01*
X160165Y139211D01*
X161415D01*
X162040Y138898D01*
X162352Y138585D01*
X162665Y137961D01*
Y137335D01*
X162352Y136711D01*
X162040Y136398D01*
X161415Y136085D01*
X185654Y137023D02*
Y136085D01*
X185341D01*
X184717Y136398D01*
X184404Y136711D01*
X184091Y137335D01*
Y137961D01*
X184404Y138585D01*
X184717Y138898D01*
X185341Y139211D01*
X186591D01*
X187217Y138898D01*
X187529Y138585D01*
X187841Y137961D01*
Y137335D01*
X187529Y136711D01*
X187217Y136398D01*
X186591Y136085D01*
X210654Y137023D02*
Y136085D01*
X210341D01*
X209717Y136398D01*
X209404Y136711D01*
X209091Y137335D01*
Y137961D01*
X209404Y138585D01*
X209717Y138898D01*
X210341Y139211D01*
X211591D01*
X212217Y138898D01*
X212529Y138585D01*
X212841Y137961D01*
Y137335D01*
X212529Y136711D01*
X212217Y136398D01*
X211591Y136085D01*
X235654Y137023D02*
Y136085D01*
X235341D01*
X234717Y136398D01*
X234404Y136711D01*
X234091Y137335D01*
Y137961D01*
X234404Y138585D01*
X234717Y138898D01*
X235341Y139211D01*
X236591D01*
X237217Y138898D01*
X237529Y138585D01*
X237841Y137961D01*
Y137335D01*
X237529Y136711D01*
X237217Y136398D01*
X236591Y136085D01*
X260654Y137023D02*
Y136085D01*
X260341D01*
X259717Y136398D01*
X259404Y136711D01*
X259091Y137335D01*
Y137961D01*
X259404Y138585D01*
X259717Y138898D01*
X260341Y139211D01*
X261591D01*
X262217Y138898D01*
X262529Y138585D01*
X262841Y137961D01*
Y137335D01*
X262529Y136711D01*
X262217Y136398D01*
X261591Y136085D01*
X285654Y137023D02*
Y136085D01*
X285341D01*
X284717Y136398D01*
X284404Y136711D01*
X284091Y137335D01*
Y137961D01*
X284404Y138585D01*
X284717Y138898D01*
X285341Y139211D01*
X286591D01*
X287217Y138898D01*
X287529Y138585D01*
X287841Y137961D01*
Y137335D01*
X287529Y136711D01*
X287217Y136398D01*
X286591Y136085D01*
X310654Y137023D02*
Y136085D01*
X310341D01*
X309717Y136398D01*
X309404Y136711D01*
X309091Y137335D01*
Y137961D01*
X309404Y138585D01*
X309717Y138898D01*
X310341Y139211D01*
X311591D01*
X312217Y138898D01*
X312529Y138585D01*
X312841Y137961D01*
Y137335D01*
X312529Y136711D01*
X312217Y136398D01*
X311591Y136085D01*
X400654Y137023D02*
Y136085D01*
X400341D01*
X399717Y136398D01*
X399404Y136711D01*
X399091Y137335D01*
Y137961D01*
X399404Y138585D01*
X399717Y138898D01*
X400341Y139211D01*
X401591D01*
X402217Y138898D01*
X402529Y138585D01*
X402841Y137961D01*
Y137335D01*
X402529Y136711D01*
X402217Y136398D01*
X401591Y136085D01*
X420654Y137023D02*
Y136085D01*
X420341D01*
X419717Y136398D01*
X419404Y136711D01*
X419091Y137335D01*
Y137961D01*
X419404Y138585D01*
X419717Y138898D01*
X420341Y139211D01*
X421591D01*
X422217Y138898D01*
X422529Y138585D01*
X422841Y137961D01*
Y137335D01*
X422529Y136711D01*
X422217Y136398D01*
X421591Y136085D01*
X500654Y137023D02*
Y136085D01*
X500341D01*
X499717Y136398D01*
X499404Y136711D01*
X499091Y137335D01*
Y137961D01*
X499404Y138585D01*
X499717Y138898D01*
X500341Y139211D01*
X501591D01*
X502217Y138898D01*
X502529Y138585D01*
X502841Y137961D01*
Y137335D01*
X502529Y136711D01*
X502217Y136398D01*
X501591Y136085D01*
X520654Y137023D02*
Y136085D01*
X520341D01*
X519717Y136398D01*
X519404Y136711D01*
X519091Y137335D01*
Y137961D01*
X519404Y138585D01*
X519717Y138898D01*
X520341Y139211D01*
X521591D01*
X522217Y138898D01*
X522529Y138585D01*
X522841Y137961D01*
Y137335D01*
X522529Y136711D01*
X522217Y136398D01*
X521591Y136085D01*
X600654Y137023D02*
Y136085D01*
X600341D01*
X599717Y136398D01*
X599404Y136711D01*
X599091Y137335D01*
Y137961D01*
X599404Y138585D01*
X599717Y138898D01*
X600341Y139211D01*
X601591D01*
X602217Y138898D01*
X602529Y138585D01*
X602841Y137961D01*
Y137335D01*
X602529Y136711D01*
X602217Y136398D01*
X601591Y136085D01*
X620654Y137023D02*
Y136085D01*
X620341D01*
X619717Y136398D01*
X619404Y136711D01*
X619091Y137335D01*
Y137961D01*
X619404Y138585D01*
X619717Y138898D01*
X620341Y139211D01*
X621591D01*
X622217Y138898D01*
X622529Y138585D01*
X622841Y137961D01*
Y137335D01*
X622529Y136711D01*
X622217Y136398D01*
X621591Y136085D01*
X369716Y131085D02*
X369403Y131398D01*
X369091Y132023D01*
Y132961D01*
X369403Y133585D01*
X369716Y133898D01*
X370341Y134211D01*
X371591D01*
X372216Y133898D01*
X372528Y133585D01*
X372841Y132961D01*
Y132023D01*
X372528Y131398D01*
X372216Y131085D01*
X389716D02*
X389403Y131398D01*
X389091Y132023D01*
Y132961D01*
X389403Y133585D01*
X389716Y133898D01*
X390341Y134211D01*
X391591D01*
X392216Y133898D01*
X392528Y133585D01*
X392841Y132961D01*
Y132023D01*
X392528Y131398D01*
X392216Y131085D01*
X469716Y131063D02*
X469403Y131376D01*
X469091Y132001D01*
Y132938D01*
X469403Y133563D01*
X469716Y133876D01*
X470341Y134188D01*
X471591D01*
X472216Y133876D01*
X472528Y133563D01*
X472841Y132938D01*
Y132001D01*
X472528Y131376D01*
X472216Y131063D01*
X489716D02*
X489403Y131376D01*
X489091Y132001D01*
Y132938D01*
X489403Y133563D01*
X489716Y133876D01*
X490341Y134188D01*
X491591D01*
X492216Y133876D01*
X492528Y133563D01*
X492841Y132938D01*
Y132001D01*
X492528Y131376D01*
X492216Y131063D01*
X569717Y131063D02*
X569404Y131375D01*
X569092Y132000D01*
Y132938D01*
X569404Y133563D01*
X569717Y133875D01*
X570342Y134188D01*
X571592D01*
X572217Y133875D01*
X572530Y133563D01*
X572842Y132938D01*
Y132000D01*
X572530Y131375D01*
X572217Y131063D01*
X589717D02*
X589404Y131375D01*
X589092Y132000D01*
Y132938D01*
X589404Y133563D01*
X589717Y133875D01*
X590342Y134188D01*
X591592D01*
X592217Y133875D01*
X592530Y133563D01*
X592842Y132938D01*
Y132000D01*
X592530Y131375D01*
X592217Y131063D01*
X669717D02*
X669404Y131375D01*
X669092Y132000D01*
Y132938D01*
X669404Y133563D01*
X669717Y133875D01*
X670342Y134188D01*
X671592D01*
X672217Y133875D01*
X672530Y133563D01*
X672842Y132938D01*
Y132000D01*
X672530Y131375D01*
X672217Y131063D01*
X689717D02*
X689404Y131375D01*
X689092Y132000D01*
Y132938D01*
X689404Y133563D01*
X689717Y133875D01*
X690342Y134188D01*
X691592D01*
X692217Y133875D01*
X692530Y133563D01*
X692842Y132938D01*
Y132000D01*
X692530Y131375D01*
X692217Y131063D01*
X126133Y133994D02*
X129883D01*
Y130869D01*
X128009Y131494D02*
Y133994D01*
X126133D02*
Y130869D01*
X369716Y121085D02*
X369403Y121398D01*
X369091Y122023D01*
Y122961D01*
X369403Y123585D01*
X369716Y123898D01*
X370341Y124211D01*
X371591D01*
X372216Y123898D01*
X372528Y123585D01*
X372841Y122961D01*
Y122023D01*
X372528Y121398D01*
X372216Y121085D01*
X389716D02*
X389403Y121398D01*
X389091Y122023D01*
Y122961D01*
X389403Y123585D01*
X389716Y123898D01*
X390341Y124211D01*
X391591D01*
X392216Y123898D01*
X392528Y123585D01*
X392841Y122961D01*
Y122023D01*
X392528Y121398D01*
X392216Y121085D01*
X469716Y121063D02*
X469403Y121376D01*
X469091Y122001D01*
Y122938D01*
X469403Y123563D01*
X469716Y123876D01*
X470341Y124188D01*
X471591D01*
X472216Y123876D01*
X472528Y123563D01*
X472841Y122938D01*
Y122001D01*
X472528Y121376D01*
X472216Y121063D01*
X489716D02*
X489403Y121376D01*
X489091Y122001D01*
Y122938D01*
X489403Y123563D01*
X489716Y123876D01*
X490341Y124188D01*
X491591D01*
X492216Y123876D01*
X492528Y123563D01*
X492841Y122938D01*
Y122001D01*
X492528Y121376D01*
X492216Y121063D01*
X569717Y121063D02*
X569404Y121375D01*
X569092Y122000D01*
Y122938D01*
X569404Y123563D01*
X569717Y123875D01*
X570342Y124188D01*
X571592D01*
X572217Y123875D01*
X572530Y123563D01*
X572842Y122938D01*
Y122000D01*
X572530Y121375D01*
X572217Y121063D01*
X589717D02*
X589404Y121375D01*
X589092Y122000D01*
Y122938D01*
X589404Y123563D01*
X589717Y123875D01*
X590342Y124188D01*
X591592D01*
X592217Y123875D01*
X592530Y123563D01*
X592842Y122938D01*
Y122000D01*
X592530Y121375D01*
X592217Y121063D01*
X669717D02*
X669404Y121375D01*
X669092Y122000D01*
Y122938D01*
X669404Y123563D01*
X669717Y123875D01*
X670342Y124188D01*
X671592D01*
X672217Y123875D01*
X672530Y123563D01*
X672842Y122938D01*
Y122000D01*
X672530Y121375D01*
X672217Y121063D01*
X689717D02*
X689404Y121375D01*
X689092Y122000D01*
Y122938D01*
X689404Y123563D01*
X689717Y123875D01*
X690342Y124188D01*
X691592D01*
X692217Y123875D01*
X692530Y123563D01*
X692842Y122938D01*
Y122000D01*
X692530Y121375D01*
X692217Y121063D01*
X126258Y123994D02*
X130008D01*
Y120869D01*
X128133Y121494D02*
Y123994D01*
X126258D02*
Y120869D01*
X160852Y117023D02*
Y116085D01*
X160539D01*
X159914Y116398D01*
X159602Y116711D01*
X159289Y117335D01*
Y117961D01*
X159602Y118585D01*
X159914Y118898D01*
X160539Y119211D01*
X161789D01*
X162414Y118898D01*
X162727Y118585D01*
X163039Y117961D01*
Y117335D01*
X162727Y116711D01*
X162414Y116398D01*
X161789Y116085D01*
X700654Y117023D02*
Y116085D01*
X700341D01*
X699717Y116398D01*
X699404Y116711D01*
X699091Y117335D01*
Y117961D01*
X699404Y118585D01*
X699717Y118898D01*
X700341Y119211D01*
X701591D01*
X702217Y118898D01*
X702529Y118585D01*
X702841Y117961D01*
Y117335D01*
X702529Y116711D01*
X702217Y116398D01*
X701591Y116085D01*
X720654Y117023D02*
Y116085D01*
X720341D01*
X719717Y116398D01*
X719404Y116711D01*
X719091Y117335D01*
Y117961D01*
X719404Y118585D01*
X719717Y118898D01*
X720341Y119211D01*
X721591D01*
X722217Y118898D01*
X722529Y118585D01*
X722841Y117961D01*
Y117335D01*
X722529Y116711D01*
X722217Y116398D01*
X721591Y116085D01*
X745654Y117023D02*
Y116085D01*
X745341D01*
X744717Y116398D01*
X744404Y116711D01*
X744091Y117335D01*
Y117961D01*
X744404Y118585D01*
X744717Y118898D01*
X745341Y119211D01*
X746591D01*
X747217Y118898D01*
X747529Y118585D01*
X747841Y117961D01*
Y117335D01*
X747529Y116711D01*
X747217Y116398D01*
X746591Y116085D01*
X768154Y117023D02*
Y116085D01*
X767841D01*
X767217Y116398D01*
X766904Y116711D01*
X766591Y117335D01*
Y117961D01*
X766904Y118585D01*
X767217Y118898D01*
X767841Y119211D01*
X769091D01*
X769717Y118898D01*
X770029Y118585D01*
X770341Y117961D01*
Y117335D01*
X770029Y116711D01*
X769717Y116398D01*
X769091Y116085D01*
X145875Y117022D02*
Y116085D01*
X145563D01*
X144938Y116397D01*
X144625Y116710D01*
X144313Y117335D01*
Y117960D01*
X144625Y118585D01*
X144938Y118897D01*
X145563Y119210D01*
X146813D01*
X147438Y118897D01*
X147750Y118585D01*
X148063Y117960D01*
Y117335D01*
X147750Y116710D01*
X147438Y116397D01*
X146813Y116085D01*
X124094Y119085D02*
X127844D01*
Y115960D01*
X125970Y116585D02*
Y119085D01*
X124094D02*
Y115960D01*
X185654Y112023D02*
Y111085D01*
X185341D01*
X184717Y111398D01*
X184404Y111711D01*
X184091Y112335D01*
Y112961D01*
X184404Y113585D01*
X184717Y113898D01*
X185341Y114211D01*
X186591D01*
X187217Y113898D01*
X187529Y113585D01*
X187841Y112961D01*
Y112335D01*
X187529Y111711D01*
X187217Y111398D01*
X186591Y111085D01*
X210654Y112023D02*
Y111085D01*
X210341D01*
X209717Y111398D01*
X209404Y111711D01*
X209091Y112335D01*
Y112961D01*
X209404Y113585D01*
X209717Y113898D01*
X210341Y114211D01*
X211591D01*
X212217Y113898D01*
X212529Y113585D01*
X212841Y112961D01*
Y112335D01*
X212529Y111711D01*
X212217Y111398D01*
X211591Y111085D01*
X235654Y112023D02*
Y111085D01*
X235341D01*
X234717Y111398D01*
X234404Y111711D01*
X234091Y112335D01*
Y112961D01*
X234404Y113585D01*
X234717Y113898D01*
X235341Y114211D01*
X236591D01*
X237217Y113898D01*
X237529Y113585D01*
X237841Y112961D01*
Y112335D01*
X237529Y111711D01*
X237217Y111398D01*
X236591Y111085D01*
X260654Y112023D02*
Y111085D01*
X260341D01*
X259717Y111398D01*
X259404Y111711D01*
X259091Y112335D01*
Y112961D01*
X259404Y113585D01*
X259717Y113898D01*
X260341Y114211D01*
X261591D01*
X262217Y113898D01*
X262529Y113585D01*
X262841Y112961D01*
Y112335D01*
X262529Y111711D01*
X262217Y111398D01*
X261591Y111085D01*
X285654Y112023D02*
Y111085D01*
X285341D01*
X284717Y111398D01*
X284404Y111711D01*
X284091Y112335D01*
Y112961D01*
X284404Y113585D01*
X284717Y113898D01*
X285341Y114211D01*
X286591D01*
X287217Y113898D01*
X287529Y113585D01*
X287841Y112961D01*
Y112335D01*
X287529Y111711D01*
X287217Y111398D01*
X286591Y111085D01*
X310654Y112023D02*
Y111085D01*
X310341D01*
X309717Y111398D01*
X309404Y111711D01*
X309091Y112335D01*
Y112961D01*
X309404Y113585D01*
X309717Y113898D01*
X310341Y114211D01*
X311591D01*
X312217Y113898D01*
X312529Y113585D01*
X312841Y112961D01*
Y112335D01*
X312529Y111711D01*
X312217Y111398D01*
X311591Y111085D01*
X335654Y112023D02*
Y111085D01*
X335341D01*
X334717Y111398D01*
X334404Y111711D01*
X334091Y112335D01*
Y112961D01*
X334404Y113585D01*
X334717Y113898D01*
X335341Y114211D01*
X336591D01*
X337217Y113898D01*
X337529Y113585D01*
X337841Y112961D01*
Y112335D01*
X337529Y111711D01*
X337217Y111398D01*
X336591Y111085D01*
X369716D02*
X369403Y111398D01*
X369091Y112023D01*
Y112961D01*
X369403Y113585D01*
X369716Y113898D01*
X370341Y114211D01*
X371591D01*
X372216Y113898D01*
X372528Y113585D01*
X372841Y112961D01*
Y112023D01*
X372528Y111398D01*
X372216Y111085D01*
X389716D02*
X389403Y111398D01*
X389091Y112023D01*
Y112961D01*
X389403Y113585D01*
X389716Y113898D01*
X390341Y114211D01*
X391591D01*
X392216Y113898D01*
X392528Y113585D01*
X392841Y112961D01*
Y112023D01*
X392528Y111398D01*
X392216Y111085D01*
X469716Y111063D02*
X469403Y111376D01*
X469091Y112001D01*
Y112938D01*
X469403Y113563D01*
X469716Y113876D01*
X470341Y114188D01*
X471591D01*
X472216Y113876D01*
X472528Y113563D01*
X472841Y112938D01*
Y112001D01*
X472528Y111376D01*
X472216Y111063D01*
X489716D02*
X489403Y111376D01*
X489091Y112001D01*
Y112938D01*
X489403Y113563D01*
X489716Y113876D01*
X490341Y114188D01*
X491591D01*
X492216Y113876D01*
X492528Y113563D01*
X492841Y112938D01*
Y112001D01*
X492528Y111376D01*
X492216Y111063D01*
X569717Y111063D02*
X569404Y111375D01*
X569092Y112000D01*
Y112938D01*
X569404Y113563D01*
X569717Y113875D01*
X570342Y114188D01*
X571592D01*
X572217Y113875D01*
X572530Y113563D01*
X572842Y112938D01*
Y112000D01*
X572530Y111375D01*
X572217Y111063D01*
X589717D02*
X589404Y111375D01*
X589092Y112000D01*
Y112938D01*
X589404Y113563D01*
X589717Y113875D01*
X590342Y114188D01*
X591592D01*
X592217Y113875D01*
X592530Y113563D01*
X592842Y112938D01*
Y112000D01*
X592530Y111375D01*
X592217Y111063D01*
X669717D02*
X669404Y111375D01*
X669092Y112000D01*
Y112938D01*
X669404Y113563D01*
X669717Y113875D01*
X670342Y114188D01*
X671592D01*
X672217Y113875D01*
X672530Y113563D01*
X672842Y112938D01*
Y112000D01*
X672530Y111375D01*
X672217Y111063D01*
X689717D02*
X689404Y111375D01*
X689092Y112000D01*
Y112938D01*
X689404Y113563D01*
X689717Y113875D01*
X690342Y114188D01*
X691592D01*
X692217Y113875D01*
X692530Y113563D01*
X692842Y112938D01*
Y112000D01*
X692530Y111375D01*
X692217Y111063D01*
X124094Y111846D02*
X127844D01*
Y108721D01*
X125970Y109346D02*
Y111846D01*
X124094D02*
Y108721D01*
X400654Y107023D02*
Y106085D01*
X400341D01*
X399717Y106398D01*
X399404Y106711D01*
X399091Y107335D01*
Y107961D01*
X399404Y108585D01*
X399717Y108898D01*
X400341Y109211D01*
X401591D01*
X402217Y108898D01*
X402529Y108585D01*
X402841Y107961D01*
Y107335D01*
X402529Y106711D01*
X402217Y106398D01*
X401591Y106085D01*
X420654Y107023D02*
Y106085D01*
X420341D01*
X419717Y106398D01*
X419404Y106711D01*
X419091Y107335D01*
Y107961D01*
X419404Y108585D01*
X419717Y108898D01*
X420341Y109211D01*
X421591D01*
X422217Y108898D01*
X422529Y108585D01*
X422841Y107961D01*
Y107335D01*
X422529Y106711D01*
X422217Y106398D01*
X421591Y106085D01*
X500654Y107023D02*
Y106085D01*
X500341D01*
X499717Y106398D01*
X499404Y106711D01*
X499091Y107335D01*
Y107961D01*
X499404Y108585D01*
X499717Y108898D01*
X500341Y109211D01*
X501591D01*
X502217Y108898D01*
X502529Y108585D01*
X502841Y107961D01*
Y107335D01*
X502529Y106711D01*
X502217Y106398D01*
X501591Y106085D01*
X520654Y107023D02*
Y106085D01*
X520341D01*
X519717Y106398D01*
X519404Y106711D01*
X519091Y107335D01*
Y107961D01*
X519404Y108585D01*
X519717Y108898D01*
X520341Y109211D01*
X521591D01*
X522217Y108898D01*
X522529Y108585D01*
X522841Y107961D01*
Y107335D01*
X522529Y106711D01*
X522217Y106398D01*
X521591Y106085D01*
X600654Y107023D02*
Y106085D01*
X600341D01*
X599717Y106398D01*
X599404Y106711D01*
X599091Y107335D01*
Y107961D01*
X599404Y108585D01*
X599717Y108898D01*
X600341Y109211D01*
X601591D01*
X602217Y108898D01*
X602529Y108585D01*
X602841Y107961D01*
Y107335D01*
X602529Y106711D01*
X602217Y106398D01*
X601591Y106085D01*
X620654Y107023D02*
Y106085D01*
X620341D01*
X619717Y106398D01*
X619404Y106711D01*
X619091Y107335D01*
Y107961D01*
X619404Y108585D01*
X619717Y108898D01*
X620341Y109211D01*
X621591D01*
X622217Y108898D01*
X622529Y108585D01*
X622841Y107961D01*
Y107335D01*
X622529Y106711D01*
X622217Y106398D01*
X621591Y106085D01*
X154918Y104270D02*
X158668D01*
X154918Y101144D01*
X158668D01*
X369716Y101085D02*
X369403Y101398D01*
X369091Y102023D01*
Y102961D01*
X369403Y103585D01*
X369716Y103898D01*
X370341Y104211D01*
X371591D01*
X372216Y103898D01*
X372528Y103585D01*
X372841Y102961D01*
Y102023D01*
X372528Y101398D01*
X372216Y101085D01*
X389716D02*
X389403Y101398D01*
X389091Y102023D01*
Y102961D01*
X389403Y103585D01*
X389716Y103898D01*
X390341Y104211D01*
X391591D01*
X392216Y103898D01*
X392528Y103585D01*
X392841Y102961D01*
Y102023D01*
X392528Y101398D01*
X392216Y101085D01*
X469716Y101063D02*
X469403Y101376D01*
X469091Y102001D01*
Y102938D01*
X469403Y103563D01*
X469716Y103876D01*
X470341Y104188D01*
X471591D01*
X472216Y103876D01*
X472528Y103563D01*
X472841Y102938D01*
Y102001D01*
X472528Y101376D01*
X472216Y101063D01*
X489716D02*
X489403Y101376D01*
X489091Y102001D01*
Y102938D01*
X489403Y103563D01*
X489716Y103876D01*
X490341Y104188D01*
X491591D01*
X492216Y103876D01*
X492528Y103563D01*
X492841Y102938D01*
Y102001D01*
X492528Y101376D01*
X492216Y101063D01*
X569717Y101063D02*
X569404Y101375D01*
X569092Y102000D01*
Y102938D01*
X569404Y103563D01*
X569717Y103875D01*
X570342Y104188D01*
X571592D01*
X572217Y103875D01*
X572530Y103563D01*
X572842Y102938D01*
Y102000D01*
X572530Y101375D01*
X572217Y101063D01*
X589717D02*
X589404Y101375D01*
X589092Y102000D01*
Y102938D01*
X589404Y103563D01*
X589717Y103875D01*
X590342Y104188D01*
X591592D01*
X592217Y103875D01*
X592530Y103563D01*
X592842Y102938D01*
Y102000D01*
X592530Y101375D01*
X592217Y101063D01*
X669717D02*
X669404Y101375D01*
X669092Y102000D01*
Y102938D01*
X669404Y103563D01*
X669717Y103875D01*
X670342Y104188D01*
X671592D01*
X672217Y103875D01*
X672530Y103563D01*
X672842Y102938D01*
Y102000D01*
X672530Y101375D01*
X672217Y101063D01*
X689717D02*
X689404Y101375D01*
X689092Y102000D01*
Y102938D01*
X689404Y103563D01*
X689717Y103875D01*
X690342Y104188D01*
X691592D01*
X692217Y103875D01*
X692530Y103563D01*
X692842Y102938D01*
Y102000D01*
X692530Y101375D01*
X692217Y101063D01*
X139170Y103443D02*
X142920D01*
X141045D02*
Y100318D01*
X139170D02*
X142920D01*
X124219Y98681D02*
X127969D01*
Y95556D01*
X126094Y96181D02*
Y98681D01*
X124219D02*
Y95556D01*
X369716Y91085D02*
X369403Y91398D01*
X369091Y92023D01*
Y92961D01*
X369403Y93585D01*
X369716Y93898D01*
X370341Y94211D01*
X371591D01*
X372216Y93898D01*
X372528Y93585D01*
X372841Y92961D01*
Y92023D01*
X372528Y91398D01*
X372216Y91085D01*
X389716D02*
X389403Y91398D01*
X389091Y92023D01*
Y92961D01*
X389403Y93585D01*
X389716Y93898D01*
X390341Y94211D01*
X391591D01*
X392216Y93898D01*
X392528Y93585D01*
X392841Y92961D01*
Y92023D01*
X392528Y91398D01*
X392216Y91085D01*
X745654Y92023D02*
Y91085D01*
X745341D01*
X744717Y91398D01*
X744404Y91711D01*
X744091Y92335D01*
Y92961D01*
X744404Y93585D01*
X744717Y93898D01*
X745341Y94211D01*
X746591D01*
X747217Y93898D01*
X747529Y93585D01*
X747841Y92961D01*
Y92335D01*
X747529Y91711D01*
X747217Y91398D01*
X746591Y91085D01*
X768154Y92023D02*
Y91085D01*
X767841D01*
X767217Y91398D01*
X766904Y91711D01*
X766591Y92335D01*
Y92961D01*
X766904Y93585D01*
X767217Y93898D01*
X767841Y94211D01*
X769091D01*
X769717Y93898D01*
X770029Y93585D01*
X770341Y92961D01*
Y92335D01*
X770029Y91711D01*
X769717Y91398D01*
X769091Y91085D01*
X469716Y91063D02*
X469403Y91376D01*
X469091Y92001D01*
Y92938D01*
X469403Y93563D01*
X469716Y93876D01*
X470341Y94188D01*
X471591D01*
X472216Y93876D01*
X472528Y93563D01*
X472841Y92938D01*
Y92001D01*
X472528Y91376D01*
X472216Y91063D01*
X489716D02*
X489403Y91376D01*
X489091Y92001D01*
Y92938D01*
X489403Y93563D01*
X489716Y93876D01*
X490341Y94188D01*
X491591D01*
X492216Y93876D01*
X492528Y93563D01*
X492841Y92938D01*
Y92001D01*
X492528Y91376D01*
X492216Y91063D01*
X569717Y91063D02*
X569404Y91375D01*
X569092Y92000D01*
Y92938D01*
X569404Y93563D01*
X569717Y93875D01*
X570342Y94188D01*
X571592D01*
X572217Y93875D01*
X572530Y93563D01*
X572842Y92938D01*
Y92000D01*
X572530Y91375D01*
X572217Y91063D01*
X589717D02*
X589404Y91375D01*
X589092Y92000D01*
Y92938D01*
X589404Y93563D01*
X589717Y93875D01*
X590342Y94188D01*
X591592D01*
X592217Y93875D01*
X592530Y93563D01*
X592842Y92938D01*
Y92000D01*
X592530Y91375D01*
X592217Y91063D01*
X669717D02*
X669404Y91375D01*
X669092Y92000D01*
Y92938D01*
X669404Y93563D01*
X669717Y93875D01*
X670342Y94188D01*
X671592D01*
X672217Y93875D01*
X672530Y93563D01*
X672842Y92938D01*
Y92000D01*
X672530Y91375D01*
X672217Y91063D01*
X689717D02*
X689404Y91375D01*
X689092Y92000D01*
Y92938D01*
X689404Y93563D01*
X689717Y93875D01*
X690342Y94188D01*
X691592D01*
X692217Y93875D01*
X692530Y93563D01*
X692842Y92938D01*
Y92000D01*
X692530Y91375D01*
X692217Y91063D01*
X160653Y89523D02*
Y88585D01*
X160341D01*
X159716Y88898D01*
X159403Y89211D01*
X159091Y89835D01*
Y90461D01*
X159403Y91085D01*
X159716Y91398D01*
X160341Y91711D01*
X161591D01*
X162216Y91398D01*
X162528Y91085D01*
X162841Y90461D01*
Y89835D01*
X162528Y89211D01*
X162216Y88898D01*
X161591Y88585D01*
X185654Y89523D02*
Y88585D01*
X185341D01*
X184717Y88898D01*
X184404Y89211D01*
X184091Y89835D01*
Y90461D01*
X184404Y91085D01*
X184717Y91398D01*
X185341Y91711D01*
X186591D01*
X187217Y91398D01*
X187529Y91085D01*
X187841Y90461D01*
Y89835D01*
X187529Y89211D01*
X187217Y88898D01*
X186591Y88585D01*
X210654Y89523D02*
Y88585D01*
X210341D01*
X209717Y88898D01*
X209404Y89211D01*
X209091Y89835D01*
Y90461D01*
X209404Y91085D01*
X209717Y91398D01*
X210341Y91711D01*
X211591D01*
X212217Y91398D01*
X212529Y91085D01*
X212841Y90461D01*
Y89835D01*
X212529Y89211D01*
X212217Y88898D01*
X211591Y88585D01*
X235654Y89523D02*
Y88585D01*
X235341D01*
X234717Y88898D01*
X234404Y89211D01*
X234091Y89835D01*
Y90461D01*
X234404Y91085D01*
X234717Y91398D01*
X235341Y91711D01*
X236591D01*
X237217Y91398D01*
X237529Y91085D01*
X237841Y90461D01*
Y89835D01*
X237529Y89211D01*
X237217Y88898D01*
X236591Y88585D01*
X260654Y89523D02*
Y88585D01*
X260341D01*
X259717Y88898D01*
X259404Y89211D01*
X259091Y89835D01*
Y90461D01*
X259404Y91085D01*
X259717Y91398D01*
X260341Y91711D01*
X261591D01*
X262217Y91398D01*
X262529Y91085D01*
X262841Y90461D01*
Y89835D01*
X262529Y89211D01*
X262217Y88898D01*
X261591Y88585D01*
X285654Y89523D02*
Y88585D01*
X285341D01*
X284717Y88898D01*
X284404Y89211D01*
X284091Y89835D01*
Y90461D01*
X284404Y91085D01*
X284717Y91398D01*
X285341Y91711D01*
X286591D01*
X287217Y91398D01*
X287529Y91085D01*
X287841Y90461D01*
Y89835D01*
X287529Y89211D01*
X287217Y88898D01*
X286591Y88585D01*
X310654Y89523D02*
Y88585D01*
X310341D01*
X309717Y88898D01*
X309404Y89211D01*
X309091Y89835D01*
Y90461D01*
X309404Y91085D01*
X309717Y91398D01*
X310341Y91711D01*
X311591D01*
X312217Y91398D01*
X312529Y91085D01*
X312841Y90461D01*
Y89835D01*
X312529Y89211D01*
X312217Y88898D01*
X311591Y88585D01*
X335654Y89523D02*
Y88585D01*
X335341D01*
X334717Y88898D01*
X334404Y89211D01*
X334091Y89835D01*
Y90461D01*
X334404Y91085D01*
X334717Y91398D01*
X335341Y91711D01*
X336591D01*
X337217Y91398D01*
X337529Y91085D01*
X337841Y90461D01*
Y89835D01*
X337529Y89211D01*
X337217Y88898D01*
X336591Y88585D01*
X135653Y87023D02*
Y86085D01*
X135341D01*
X134716Y86398D01*
X134403Y86711D01*
X134091Y87335D01*
Y87961D01*
X134403Y88585D01*
X134716Y88898D01*
X135341Y89211D01*
X136591D01*
X137216Y88898D01*
X137528Y88585D01*
X137841Y87961D01*
Y87335D01*
X137528Y86711D01*
X137216Y86398D01*
X136591Y86085D01*
X395654Y87023D02*
Y86085D01*
X395341D01*
X394717Y86398D01*
X394404Y86711D01*
X394091Y87335D01*
Y87961D01*
X394404Y88585D01*
X394717Y88898D01*
X395341Y89211D01*
X396591D01*
X397217Y88898D01*
X397529Y88585D01*
X397841Y87961D01*
Y87335D01*
X397529Y86711D01*
X397217Y86398D01*
X396591Y86085D01*
X415654Y87023D02*
Y86085D01*
X415341D01*
X414717Y86398D01*
X414404Y86711D01*
X414091Y87335D01*
Y87961D01*
X414404Y88585D01*
X414717Y88898D01*
X415341Y89211D01*
X416591D01*
X417217Y88898D01*
X417529Y88585D01*
X417841Y87961D01*
Y87335D01*
X417529Y86711D01*
X417217Y86398D01*
X416591Y86085D01*
X495654Y87023D02*
Y86085D01*
X495341D01*
X494717Y86398D01*
X494404Y86711D01*
X494091Y87335D01*
Y87961D01*
X494404Y88585D01*
X494717Y88898D01*
X495341Y89211D01*
X496591D01*
X497217Y88898D01*
X497529Y88585D01*
X497841Y87961D01*
Y87335D01*
X497529Y86711D01*
X497217Y86398D01*
X496591Y86085D01*
X520654Y87023D02*
Y86085D01*
X520341D01*
X519717Y86398D01*
X519404Y86711D01*
X519091Y87335D01*
Y87961D01*
X519404Y88585D01*
X519717Y88898D01*
X520341Y89211D01*
X521591D01*
X522217Y88898D01*
X522529Y88585D01*
X522841Y87961D01*
Y87335D01*
X522529Y86711D01*
X522217Y86398D01*
X521591Y86085D01*
X595654Y87023D02*
Y86085D01*
X595341D01*
X594717Y86398D01*
X594404Y86711D01*
X594091Y87335D01*
Y87961D01*
X594404Y88585D01*
X594717Y88898D01*
X595341Y89211D01*
X596591D01*
X597217Y88898D01*
X597529Y88585D01*
X597841Y87961D01*
Y87335D01*
X597529Y86711D01*
X597217Y86398D01*
X596591Y86085D01*
X620654Y87023D02*
Y86085D01*
X620341D01*
X619717Y86398D01*
X619404Y86711D01*
X619091Y87335D01*
Y87961D01*
X619404Y88585D01*
X619717Y88898D01*
X620341Y89211D01*
X621591D01*
X622217Y88898D01*
X622529Y88585D01*
X622841Y87961D01*
Y87335D01*
X622529Y86711D01*
X622217Y86398D01*
X621591Y86085D01*
X700654Y87023D02*
Y86085D01*
X700341D01*
X699717Y86398D01*
X699404Y86711D01*
X699091Y87335D01*
Y87961D01*
X699404Y88585D01*
X699717Y88898D01*
X700341Y89211D01*
X701591D01*
X702217Y88898D01*
X702529Y88585D01*
X702841Y87961D01*
Y87335D01*
X702529Y86711D01*
X702217Y86398D01*
X701591Y86085D01*
X720654Y87023D02*
Y86085D01*
X720341D01*
X719717Y86398D01*
X719404Y86711D01*
X719091Y87335D01*
Y87961D01*
X719404Y88585D01*
X719717Y88898D01*
X720341Y89211D01*
X721591D01*
X722217Y88898D01*
X722529Y88585D01*
X722841Y87961D01*
Y87335D01*
X722529Y86711D01*
X722217Y86398D01*
X721591Y86085D01*
X365654Y82023D02*
Y81085D01*
X365341D01*
X364717Y81398D01*
X364404Y81711D01*
X364091Y82335D01*
Y82961D01*
X364404Y83585D01*
X364717Y83898D01*
X365341Y84211D01*
X366591D01*
X367217Y83898D01*
X367529Y83585D01*
X367841Y82961D01*
Y82335D01*
X367529Y81711D01*
X367217Y81398D01*
X366591Y81085D01*
X440654Y82023D02*
Y81085D01*
X440341D01*
X439717Y81398D01*
X439404Y81711D01*
X439091Y82335D01*
Y82961D01*
X439404Y83585D01*
X439717Y83898D01*
X440341Y84211D01*
X441591D01*
X442217Y83898D01*
X442529Y83585D01*
X442841Y82961D01*
Y82335D01*
X442529Y81711D01*
X442217Y81398D01*
X441591Y81085D01*
X465654Y82023D02*
Y81085D01*
X465341D01*
X464717Y81398D01*
X464404Y81711D01*
X464091Y82335D01*
Y82961D01*
X464404Y83585D01*
X464717Y83898D01*
X465341Y84211D01*
X466591D01*
X467217Y83898D01*
X467529Y83585D01*
X467841Y82961D01*
Y82335D01*
X467529Y81711D01*
X467217Y81398D01*
X466591Y81085D01*
X545654Y82023D02*
Y81085D01*
X545341D01*
X544717Y81398D01*
X544404Y81711D01*
X544091Y82335D01*
Y82961D01*
X544404Y83585D01*
X544717Y83898D01*
X545341Y84211D01*
X546591D01*
X547217Y83898D01*
X547529Y83585D01*
X547841Y82961D01*
Y82335D01*
X547529Y81711D01*
X547217Y81398D01*
X546591Y81085D01*
X565654Y82023D02*
Y81085D01*
X565341D01*
X564717Y81398D01*
X564404Y81711D01*
X564091Y82335D01*
Y82961D01*
X564404Y83585D01*
X564717Y83898D01*
X565341Y84211D01*
X566591D01*
X567217Y83898D01*
X567529Y83585D01*
X567841Y82961D01*
Y82335D01*
X567529Y81711D01*
X567217Y81398D01*
X566591Y81085D01*
X645654Y82023D02*
Y81085D01*
X645341D01*
X644717Y81398D01*
X644404Y81711D01*
X644091Y82335D01*
Y82961D01*
X644404Y83585D01*
X644717Y83898D01*
X645341Y84211D01*
X646591D01*
X647217Y83898D01*
X647529Y83585D01*
X647841Y82961D01*
Y82335D01*
X647529Y81711D01*
X647217Y81398D01*
X646591Y81085D01*
X665654Y82023D02*
Y81085D01*
X665341D01*
X664717Y81398D01*
X664404Y81711D01*
X664091Y82335D01*
Y82961D01*
X664404Y83585D01*
X664717Y83898D01*
X665341Y84211D01*
X666591D01*
X667217Y83898D01*
X667529Y83585D01*
X667841Y82961D01*
Y82335D01*
X667529Y81711D01*
X667217Y81398D01*
X666591Y81085D01*
X741375Y82961D02*
X745125Y81398D01*
X741375Y79835D01*
X742937Y82335D02*
Y80461D01*
X741375Y77023D02*
Y75773D01*
Y76398D02*
X745125D01*
Y77023D02*
Y75773D01*
X759091Y82961D02*
X762841Y81398D01*
X759091Y79835D01*
X760654Y82335D02*
Y80461D01*
X759091Y77023D02*
Y75773D01*
Y76398D02*
X762841D01*
Y77023D02*
Y75773D01*
X745654Y67023D02*
Y66085D01*
X745341D01*
X744717Y66398D01*
X744404Y66711D01*
X744091Y67335D01*
Y67961D01*
X744404Y68585D01*
X744717Y68898D01*
X745341Y69211D01*
X746591D01*
X747217Y68898D01*
X747529Y68585D01*
X747841Y67961D01*
Y67335D01*
X747529Y66711D01*
X747217Y66398D01*
X746591Y66085D01*
X768154Y67023D02*
Y66085D01*
X767841D01*
X767217Y66398D01*
X766904Y66711D01*
X766591Y67335D01*
Y67961D01*
X766904Y68585D01*
X767217Y68898D01*
X767841Y69211D01*
X769091D01*
X769717Y68898D01*
X770029Y68585D01*
X770341Y67961D01*
Y67335D01*
X770029Y66711D01*
X769717Y66398D01*
X769091Y66085D01*
X235654Y64523D02*
Y63585D01*
X235341D01*
X234717Y63898D01*
X234404Y64211D01*
X234091Y64835D01*
Y65461D01*
X234404Y66085D01*
X234717Y66398D01*
X235341Y66711D01*
X236591D01*
X237217Y66398D01*
X237529Y66085D01*
X237841Y65461D01*
Y64835D01*
X237529Y64211D01*
X237217Y63898D01*
X236591Y63585D01*
X260654Y64523D02*
Y63585D01*
X260341D01*
X259717Y63898D01*
X259404Y64211D01*
X259091Y64835D01*
Y65461D01*
X259404Y66085D01*
X259717Y66398D01*
X260341Y66711D01*
X261591D01*
X262217Y66398D01*
X262529Y66085D01*
X262841Y65461D01*
Y64835D01*
X262529Y64211D01*
X262217Y63898D01*
X261591Y63585D01*
X285654Y64523D02*
Y63585D01*
X285341D01*
X284717Y63898D01*
X284404Y64211D01*
X284091Y64835D01*
Y65461D01*
X284404Y66085D01*
X284717Y66398D01*
X285341Y66711D01*
X286591D01*
X287217Y66398D01*
X287529Y66085D01*
X287841Y65461D01*
Y64835D01*
X287529Y64211D01*
X287217Y63898D01*
X286591Y63585D01*
X310654Y64523D02*
Y63585D01*
X310341D01*
X309717Y63898D01*
X309404Y64211D01*
X309091Y64835D01*
Y65461D01*
X309404Y66085D01*
X309717Y66398D01*
X310341Y66711D01*
X311591D01*
X312217Y66398D01*
X312529Y66085D01*
X312841Y65461D01*
Y64835D01*
X312529Y64211D01*
X312217Y63898D01*
X311591Y63585D01*
X335654Y64523D02*
Y63585D01*
X335341D01*
X334717Y63898D01*
X334404Y64211D01*
X334091Y64835D01*
Y65461D01*
X334404Y66085D01*
X334717Y66398D01*
X335341Y66711D01*
X336591D01*
X337217Y66398D01*
X337529Y66085D01*
X337841Y65461D01*
Y64835D01*
X337529Y64211D01*
X337217Y63898D01*
X336591Y63585D01*
X365654Y64523D02*
Y63585D01*
X365341D01*
X364717Y63898D01*
X364404Y64211D01*
X364091Y64835D01*
Y65461D01*
X364404Y66085D01*
X364717Y66398D01*
X365341Y66711D01*
X366591D01*
X367217Y66398D01*
X367529Y66085D01*
X367841Y65461D01*
Y64835D01*
X367529Y64211D01*
X367217Y63898D01*
X366591Y63585D01*
X395654Y64523D02*
Y63585D01*
X395341D01*
X394717Y63898D01*
X394404Y64211D01*
X394091Y64835D01*
Y65461D01*
X394404Y66085D01*
X394717Y66398D01*
X395341Y66711D01*
X396591D01*
X397217Y66398D01*
X397529Y66085D01*
X397841Y65461D01*
Y64835D01*
X397529Y64211D01*
X397217Y63898D01*
X396591Y63585D01*
X415654Y64523D02*
Y63585D01*
X415341D01*
X414717Y63898D01*
X414404Y64211D01*
X414091Y64835D01*
Y65461D01*
X414404Y66085D01*
X414717Y66398D01*
X415341Y66711D01*
X416591D01*
X417217Y66398D01*
X417529Y66085D01*
X417841Y65461D01*
Y64835D01*
X417529Y64211D01*
X417217Y63898D01*
X416591Y63585D01*
X440654Y64523D02*
Y63585D01*
X440341D01*
X439717Y63898D01*
X439404Y64211D01*
X439091Y64835D01*
Y65461D01*
X439404Y66085D01*
X439717Y66398D01*
X440341Y66711D01*
X441591D01*
X442217Y66398D01*
X442529Y66085D01*
X442841Y65461D01*
Y64835D01*
X442529Y64211D01*
X442217Y63898D01*
X441591Y63585D01*
X465654Y64523D02*
Y63585D01*
X465341D01*
X464717Y63898D01*
X464404Y64211D01*
X464091Y64835D01*
Y65461D01*
X464404Y66085D01*
X464717Y66398D01*
X465341Y66711D01*
X466591D01*
X467217Y66398D01*
X467529Y66085D01*
X467841Y65461D01*
Y64835D01*
X467529Y64211D01*
X467217Y63898D01*
X466591Y63585D01*
X495654Y64523D02*
Y63585D01*
X495341D01*
X494717Y63898D01*
X494404Y64211D01*
X494091Y64835D01*
Y65461D01*
X494404Y66085D01*
X494717Y66398D01*
X495341Y66711D01*
X496591D01*
X497217Y66398D01*
X497529Y66085D01*
X497841Y65461D01*
Y64835D01*
X497529Y64211D01*
X497217Y63898D01*
X496591Y63585D01*
X520654Y64523D02*
Y63585D01*
X520341D01*
X519717Y63898D01*
X519404Y64211D01*
X519091Y64835D01*
Y65461D01*
X519404Y66085D01*
X519717Y66398D01*
X520341Y66711D01*
X521591D01*
X522217Y66398D01*
X522529Y66085D01*
X522841Y65461D01*
Y64835D01*
X522529Y64211D01*
X522217Y63898D01*
X521591Y63585D01*
X545654Y64523D02*
Y63585D01*
X545341D01*
X544717Y63898D01*
X544404Y64211D01*
X544091Y64835D01*
Y65461D01*
X544404Y66085D01*
X544717Y66398D01*
X545341Y66711D01*
X546591D01*
X547217Y66398D01*
X547529Y66085D01*
X547841Y65461D01*
Y64835D01*
X547529Y64211D01*
X547217Y63898D01*
X546591Y63585D01*
X565654Y64523D02*
Y63585D01*
X565341D01*
X564717Y63898D01*
X564404Y64211D01*
X564091Y64835D01*
Y65461D01*
X564404Y66085D01*
X564717Y66398D01*
X565341Y66711D01*
X566591D01*
X567217Y66398D01*
X567529Y66085D01*
X567841Y65461D01*
Y64835D01*
X567529Y64211D01*
X567217Y63898D01*
X566591Y63585D01*
X595654Y64523D02*
Y63585D01*
X595341D01*
X594717Y63898D01*
X594404Y64211D01*
X594091Y64835D01*
Y65461D01*
X594404Y66085D01*
X594717Y66398D01*
X595341Y66711D01*
X596591D01*
X597217Y66398D01*
X597529Y66085D01*
X597841Y65461D01*
Y64835D01*
X597529Y64211D01*
X597217Y63898D01*
X596591Y63585D01*
X620654Y64523D02*
Y63585D01*
X620341D01*
X619717Y63898D01*
X619404Y64211D01*
X619091Y64835D01*
Y65461D01*
X619404Y66085D01*
X619717Y66398D01*
X620341Y66711D01*
X621591D01*
X622217Y66398D01*
X622529Y66085D01*
X622841Y65461D01*
Y64835D01*
X622529Y64211D01*
X622217Y63898D01*
X621591Y63585D01*
X645654Y64523D02*
Y63585D01*
X645341D01*
X644717Y63898D01*
X644404Y64211D01*
X644091Y64835D01*
Y65461D01*
X644404Y66085D01*
X644717Y66398D01*
X645341Y66711D01*
X646591D01*
X647217Y66398D01*
X647529Y66085D01*
X647841Y65461D01*
Y64835D01*
X647529Y64211D01*
X647217Y63898D01*
X646591Y63585D01*
X665654Y64523D02*
Y63585D01*
X665341D01*
X664717Y63898D01*
X664404Y64211D01*
X664091Y64835D01*
Y65461D01*
X664404Y66085D01*
X664717Y66398D01*
X665341Y66711D01*
X666591D01*
X667217Y66398D01*
X667529Y66085D01*
X667841Y65461D01*
Y64835D01*
X667529Y64211D01*
X667217Y63898D01*
X666591Y63585D01*
X695654Y64523D02*
Y63585D01*
X695341D01*
X694717Y63898D01*
X694404Y64211D01*
X694091Y64835D01*
Y65461D01*
X694404Y66085D01*
X694717Y66398D01*
X695341Y66711D01*
X696591D01*
X697217Y66398D01*
X697529Y66085D01*
X697841Y65461D01*
Y64835D01*
X697529Y64211D01*
X697217Y63898D01*
X696591Y63585D01*
X720654Y64523D02*
Y63585D01*
X720341D01*
X719717Y63898D01*
X719404Y64211D01*
X719091Y64835D01*
Y65461D01*
X719404Y66085D01*
X719717Y66398D01*
X720341Y66711D01*
X721591D01*
X722217Y66398D01*
X722529Y66085D01*
X722841Y65461D01*
Y64835D01*
X722529Y64211D01*
X722217Y63898D01*
X721591Y63585D01*
X135654Y62023D02*
Y61085D01*
X135341D01*
X134717Y61398D01*
X134404Y61711D01*
X134091Y62335D01*
Y62961D01*
X134404Y63585D01*
X134717Y63898D01*
X135341Y64211D01*
X136591D01*
X137217Y63898D01*
X137529Y63585D01*
X137841Y62961D01*
Y62335D01*
X137529Y61711D01*
X137217Y61398D01*
X136591Y61085D01*
X160654Y62023D02*
Y61085D01*
X160341D01*
X159717Y61398D01*
X159404Y61711D01*
X159091Y62335D01*
Y62961D01*
X159404Y63585D01*
X159717Y63898D01*
X160341Y64211D01*
X161591D01*
X162217Y63898D01*
X162529Y63585D01*
X162841Y62961D01*
Y62335D01*
X162529Y61711D01*
X162217Y61398D01*
X161591Y61085D01*
X185654Y62023D02*
Y61085D01*
X185341D01*
X184717Y61398D01*
X184404Y61711D01*
X184091Y62335D01*
Y62961D01*
X184404Y63585D01*
X184717Y63898D01*
X185341Y64211D01*
X186591D01*
X187217Y63898D01*
X187529Y63585D01*
X187841Y62961D01*
Y62335D01*
X187529Y61711D01*
X187217Y61398D01*
X186591Y61085D01*
X380341Y60451D02*
X381591D01*
X382216Y60138D01*
X382528Y59826D01*
X382841Y59201D01*
Y58576D01*
X382528Y57951D01*
X382216Y57638D01*
X381591Y57326D01*
X380341D01*
X379716Y57638D01*
X379403Y57951D01*
X379091Y58576D01*
Y59201D01*
X379403Y59826D01*
X379716Y60138D01*
X380341Y60451D01*
X380028Y58263D02*
X379091Y57326D01*
X480341Y60428D02*
X481591D01*
X482216Y60116D01*
X482528Y59803D01*
X482841Y59178D01*
Y58553D01*
X482528Y57928D01*
X482216Y57616D01*
X481591Y57303D01*
X480341D01*
X479716Y57616D01*
X479403Y57928D01*
X479091Y58553D01*
Y59178D01*
X479403Y59803D01*
X479716Y60116D01*
X480341Y60428D01*
X480028Y58241D02*
X479091Y57303D01*
X580342Y60428D02*
X581592D01*
X582217Y60115D01*
X582530Y59803D01*
X582842Y59178D01*
Y58553D01*
X582530Y57928D01*
X582217Y57615D01*
X581592Y57303D01*
X580342D01*
X579717Y57615D01*
X579404Y57928D01*
X579092Y58553D01*
Y59178D01*
X579404Y59803D01*
X579717Y60115D01*
X580342Y60428D01*
X580030Y58241D02*
X579092Y57303D01*
X680342Y60428D02*
X681592D01*
X682217Y60115D01*
X682530Y59803D01*
X682842Y59178D01*
Y58553D01*
X682530Y57928D01*
X682217Y57615D01*
X681592Y57303D01*
X680342D01*
X679717Y57615D01*
X679404Y57928D01*
X679092Y58553D01*
Y59178D01*
X679404Y59803D01*
X679717Y60115D01*
X680342Y60428D01*
X680030Y58241D02*
X679092Y57303D01*
X745654Y54523D02*
Y53585D01*
X745341D01*
X744717Y53898D01*
X744404Y54211D01*
X744091Y54835D01*
Y55461D01*
X744404Y56085D01*
X744717Y56398D01*
X745341Y56711D01*
X746591D01*
X747217Y56398D01*
X747529Y56085D01*
X747841Y55461D01*
Y54835D01*
X747529Y54211D01*
X747217Y53898D01*
X746591Y53585D01*
X768154Y54523D02*
Y53585D01*
X767841D01*
X767217Y53898D01*
X766904Y54211D01*
X766591Y54835D01*
Y55461D01*
X766904Y56085D01*
X767217Y56398D01*
X767841Y56711D01*
X769091D01*
X769717Y56398D01*
X770029Y56085D01*
X770341Y55461D01*
Y54835D01*
X770029Y54211D01*
X769717Y53898D01*
X769091Y53585D01*
X215654Y47023D02*
Y46085D01*
X215341D01*
X214717Y46398D01*
X214404Y46711D01*
X214091Y47335D01*
Y47961D01*
X214404Y48585D01*
X214717Y48898D01*
X215341Y49211D01*
X216591D01*
X217217Y48898D01*
X217529Y48585D01*
X217841Y47961D01*
Y47335D01*
X217529Y46711D01*
X217217Y46398D01*
X216591Y46085D01*
X235654Y47023D02*
Y46085D01*
X235341D01*
X234717Y46398D01*
X234404Y46711D01*
X234091Y47335D01*
Y47961D01*
X234404Y48585D01*
X234717Y48898D01*
X235341Y49211D01*
X236591D01*
X237217Y48898D01*
X237529Y48585D01*
X237841Y47961D01*
Y47335D01*
X237529Y46711D01*
X237217Y46398D01*
X236591Y46085D01*
X260654Y45773D02*
Y44835D01*
X260341D01*
X259717Y45148D01*
X259404Y45461D01*
X259091Y46085D01*
Y46711D01*
X259404Y47335D01*
X259717Y47648D01*
X260341Y47961D01*
X261591D01*
X262217Y47648D01*
X262529Y47335D01*
X262841Y46711D01*
Y46085D01*
X262529Y45461D01*
X262217Y45148D01*
X261591Y44835D01*
X285654Y45773D02*
Y44835D01*
X285341D01*
X284717Y45148D01*
X284404Y45461D01*
X284091Y46085D01*
Y46711D01*
X284404Y47335D01*
X284717Y47648D01*
X285341Y47961D01*
X286591D01*
X287217Y47648D01*
X287529Y47335D01*
X287841Y46711D01*
Y46085D01*
X287529Y45461D01*
X287217Y45148D01*
X286591Y44835D01*
X310654Y42023D02*
Y41085D01*
X310341D01*
X309717Y41398D01*
X309404Y41711D01*
X309091Y42335D01*
Y42961D01*
X309404Y43585D01*
X309717Y43898D01*
X310341Y44211D01*
X311591D01*
X312217Y43898D01*
X312529Y43585D01*
X312841Y42961D01*
Y42335D01*
X312529Y41711D01*
X312217Y41398D01*
X311591Y41085D01*
X335654Y42023D02*
Y41085D01*
X335341D01*
X334717Y41398D01*
X334404Y41711D01*
X334091Y42335D01*
Y42961D01*
X334404Y43585D01*
X334717Y43898D01*
X335341Y44211D01*
X336591D01*
X337217Y43898D01*
X337529Y43585D01*
X337841Y42961D01*
Y42335D01*
X337529Y41711D01*
X337217Y41398D01*
X336591Y41085D01*
X365654Y42023D02*
Y41085D01*
X365341D01*
X364717Y41398D01*
X364404Y41711D01*
X364091Y42335D01*
Y42961D01*
X364404Y43585D01*
X364717Y43898D01*
X365341Y44211D01*
X366591D01*
X367217Y43898D01*
X367529Y43585D01*
X367841Y42961D01*
Y42335D01*
X367529Y41711D01*
X367217Y41398D01*
X366591Y41085D01*
X395654Y42023D02*
Y41085D01*
X395341D01*
X394717Y41398D01*
X394404Y41711D01*
X394091Y42335D01*
Y42961D01*
X394404Y43585D01*
X394717Y43898D01*
X395341Y44211D01*
X396591D01*
X397217Y43898D01*
X397529Y43585D01*
X397841Y42961D01*
Y42335D01*
X397529Y41711D01*
X397217Y41398D01*
X396591Y41085D01*
X415654Y42023D02*
Y41085D01*
X415341D01*
X414717Y41398D01*
X414404Y41711D01*
X414091Y42335D01*
Y42961D01*
X414404Y43585D01*
X414717Y43898D01*
X415341Y44211D01*
X416591D01*
X417217Y43898D01*
X417529Y43585D01*
X417841Y42961D01*
Y42335D01*
X417529Y41711D01*
X417217Y41398D01*
X416591Y41085D01*
X440654Y42023D02*
Y41085D01*
X440341D01*
X439717Y41398D01*
X439404Y41711D01*
X439091Y42335D01*
Y42961D01*
X439404Y43585D01*
X439717Y43898D01*
X440341Y44211D01*
X441591D01*
X442217Y43898D01*
X442529Y43585D01*
X442841Y42961D01*
Y42335D01*
X442529Y41711D01*
X442217Y41398D01*
X441591Y41085D01*
X465654Y42023D02*
Y41085D01*
X465341D01*
X464717Y41398D01*
X464404Y41711D01*
X464091Y42335D01*
Y42961D01*
X464404Y43585D01*
X464717Y43898D01*
X465341Y44211D01*
X466591D01*
X467217Y43898D01*
X467529Y43585D01*
X467841Y42961D01*
Y42335D01*
X467529Y41711D01*
X467217Y41398D01*
X466591Y41085D01*
X495654Y42023D02*
Y41085D01*
X495341D01*
X494717Y41398D01*
X494404Y41711D01*
X494091Y42335D01*
Y42961D01*
X494404Y43585D01*
X494717Y43898D01*
X495341Y44211D01*
X496591D01*
X497217Y43898D01*
X497529Y43585D01*
X497841Y42961D01*
Y42335D01*
X497529Y41711D01*
X497217Y41398D01*
X496591Y41085D01*
X520654Y42023D02*
Y41085D01*
X520341D01*
X519717Y41398D01*
X519404Y41711D01*
X519091Y42335D01*
Y42961D01*
X519404Y43585D01*
X519717Y43898D01*
X520341Y44211D01*
X521591D01*
X522217Y43898D01*
X522529Y43585D01*
X522841Y42961D01*
Y42335D01*
X522529Y41711D01*
X522217Y41398D01*
X521591Y41085D01*
X545654Y42023D02*
Y41085D01*
X545341D01*
X544717Y41398D01*
X544404Y41711D01*
X544091Y42335D01*
Y42961D01*
X544404Y43585D01*
X544717Y43898D01*
X545341Y44211D01*
X546591D01*
X547217Y43898D01*
X547529Y43585D01*
X547841Y42961D01*
Y42335D01*
X547529Y41711D01*
X547217Y41398D01*
X546591Y41085D01*
X565654Y42023D02*
Y41085D01*
X565341D01*
X564717Y41398D01*
X564404Y41711D01*
X564091Y42335D01*
Y42961D01*
X564404Y43585D01*
X564717Y43898D01*
X565341Y44211D01*
X566591D01*
X567217Y43898D01*
X567529Y43585D01*
X567841Y42961D01*
Y42335D01*
X567529Y41711D01*
X567217Y41398D01*
X566591Y41085D01*
X595654Y42023D02*
Y41085D01*
X595341D01*
X594717Y41398D01*
X594404Y41711D01*
X594091Y42335D01*
Y42961D01*
X594404Y43585D01*
X594717Y43898D01*
X595341Y44211D01*
X596591D01*
X597217Y43898D01*
X597529Y43585D01*
X597841Y42961D01*
Y42335D01*
X597529Y41711D01*
X597217Y41398D01*
X596591Y41085D01*
X620654Y42023D02*
Y41085D01*
X620341D01*
X619717Y41398D01*
X619404Y41711D01*
X619091Y42335D01*
Y42961D01*
X619404Y43585D01*
X619717Y43898D01*
X620341Y44211D01*
X621591D01*
X622217Y43898D01*
X622529Y43585D01*
X622841Y42961D01*
Y42335D01*
X622529Y41711D01*
X622217Y41398D01*
X621591Y41085D01*
X645654Y42023D02*
Y41085D01*
X645341D01*
X644717Y41398D01*
X644404Y41711D01*
X644091Y42335D01*
Y42961D01*
X644404Y43585D01*
X644717Y43898D01*
X645341Y44211D01*
X646591D01*
X647217Y43898D01*
X647529Y43585D01*
X647841Y42961D01*
Y42335D01*
X647529Y41711D01*
X647217Y41398D01*
X646591Y41085D01*
X665654Y42023D02*
Y41085D01*
X665341D01*
X664717Y41398D01*
X664404Y41711D01*
X664091Y42335D01*
Y42961D01*
X664404Y43585D01*
X664717Y43898D01*
X665341Y44211D01*
X666591D01*
X667217Y43898D01*
X667529Y43585D01*
X667841Y42961D01*
Y42335D01*
X667529Y41711D01*
X667217Y41398D01*
X666591Y41085D01*
X695654Y42023D02*
Y41085D01*
X695341D01*
X694717Y41398D01*
X694404Y41711D01*
X694091Y42335D01*
Y42961D01*
X694404Y43585D01*
X694717Y43898D01*
X695341Y44211D01*
X696591D01*
X697217Y43898D01*
X697529Y43585D01*
X697841Y42961D01*
Y42335D01*
X697529Y41711D01*
X697217Y41398D01*
X696591Y41085D01*
X720654Y42023D02*
Y41085D01*
X720341D01*
X719717Y41398D01*
X719404Y41711D01*
X719091Y42335D01*
Y42961D01*
X719404Y43585D01*
X719717Y43898D01*
X720341Y44211D01*
X721591D01*
X722217Y43898D01*
X722529Y43585D01*
X722841Y42961D01*
Y42335D01*
X722529Y41711D01*
X722217Y41398D01*
X721591Y41085D01*
D02*
D95*
X573311Y426859D03*
X668311D03*
X373022Y426734D03*
X472989D03*
X178154Y426711D03*
X203154D03*
X228154D03*
X253154D03*
X278154D03*
X303154D03*
X325654D03*
X388154D03*
X413154D03*
X685654D03*
X710654D03*
X738154D03*
X760654D03*
X458154Y424211D03*
X502800Y422537D03*
X533154Y421711D03*
X558154D03*
X608154D03*
X633154D03*
X660654D03*
X563469Y414260D03*
X583154D03*
X658469D03*
X678154D03*
X193154Y414211D03*
X203154D03*
X213154D03*
X223154D03*
X233154D03*
X243154D03*
X253154D03*
X335654D03*
X435654D03*
X363180Y414135D03*
X382865D03*
X463147D03*
X482832D03*
X744365Y412252D03*
X388154Y411711D03*
X413154D03*
X685654Y406711D03*
X633154Y404211D03*
X660654D03*
X760654D03*
X725467Y401228D03*
X178154Y399211D03*
X253154D03*
X278154D03*
X298154D03*
X318528D03*
X328154D03*
X358154D03*
X388154D03*
X413154D03*
X418154D03*
X435654D03*
X458154D03*
X488154D03*
X508154D03*
X516654D03*
X533154D03*
X558154D03*
X588154D03*
X608154D03*
X616904D03*
X744365Y389417D03*
X660654Y389211D03*
X685654D03*
X193154Y384211D03*
X203154D03*
X213154D03*
X223154D03*
X233154D03*
X243154D03*
X253154D03*
X608154D03*
X633154D03*
X760654Y379211D03*
X248576Y379191D03*
X373153Y377970D03*
X473153Y377948D03*
X573154Y377948D03*
X673154D03*
X238093Y376711D03*
X246205D03*
X488154D03*
X508154D03*
X533154D03*
X558154D03*
X588154D03*
X128153Y374211D03*
X153153D03*
X178154D03*
X203154D03*
X228154D03*
X243834D03*
X303154D03*
X328154D03*
X241463Y371711D03*
X358154D03*
X388154D03*
X413154D03*
X435654D03*
X458154D03*
X608154D03*
X633154D03*
X238967Y369211D03*
X660654D03*
X685654D03*
X613154Y367961D03*
X628154D03*
X251904Y364211D03*
X403154D03*
X513154D03*
X523154D03*
X613154D03*
X628154D03*
X153154Y359211D03*
X363154D03*
X468154D03*
X510654D03*
X608154D03*
X128153Y358934D03*
X218154Y354355D03*
X238077Y354254D03*
X258077D03*
X278123Y354230D03*
X288123D03*
X298123D03*
X178154Y354211D03*
X203154D03*
X313154D03*
X327978D03*
X337978D03*
X408154D03*
X428194D03*
X438194D03*
X513154D03*
X528154D03*
X538154D03*
X613177D03*
X628087D03*
X638087D03*
X713154D03*
X738154D03*
X760654D03*
X308154Y349211D03*
X358154D03*
X458154D03*
X558154D03*
X363153Y344211D03*
X383153D03*
X670654D03*
X693154D03*
X463153Y344188D03*
X483153D03*
X563154Y344188D03*
X583154D03*
X663154D03*
X683154D03*
X183154Y343787D03*
X378154Y341711D03*
X478154D03*
X578154D03*
X433154Y339211D03*
X538154D03*
X152130Y334545D03*
X258077Y334254D03*
X363153Y334211D03*
X383153D03*
X463153Y334188D03*
X483153D03*
X563154Y334188D03*
X583154D03*
X663154D03*
X683154D03*
X198153Y334076D03*
X168666Y333719D03*
X188920Y332514D03*
X713154Y329211D03*
X738154D03*
X760654D03*
X280654Y326711D03*
X290654D03*
X218154Y324355D03*
X238077Y324254D03*
X363153Y324211D03*
X383153D03*
X463153Y324188D03*
X483153D03*
X563154Y324188D03*
X583154D03*
X663154D03*
X683154D03*
X280654Y319211D03*
X290654D03*
X735437Y317912D03*
X753154D03*
X223153Y315037D03*
X228153D03*
X313154Y314211D03*
X363153D03*
X383153D03*
X393154D03*
X493154D03*
X593154D03*
X693154D03*
X463153Y314188D03*
X483153D03*
X563154Y314188D03*
X583154D03*
X663154D03*
X683154D03*
X121569Y313982D03*
X139403Y312537D03*
X688154Y309211D03*
X145653Y306711D03*
X178154D03*
X440654D03*
X540654D03*
X640654D03*
X208153Y305461D03*
X263154D03*
X343154D03*
X303154Y304211D03*
X313154D03*
X363153D03*
X383153D03*
X393154D03*
X493154D03*
X593154D03*
X713154D03*
X738154D03*
X760654D03*
X463153Y304188D03*
X483153D03*
X563154Y304188D03*
X583154D03*
X663154D03*
X683154D03*
X121569Y304123D03*
X428154Y299211D03*
X453154D03*
X528154D03*
X553154D03*
X628154D03*
X653154D03*
X693154D03*
X124564Y298881D03*
X303154Y297961D03*
X353154D03*
X145653Y297537D03*
X178154D03*
X208154D03*
X263154D03*
X343154D03*
X363153Y294211D03*
X383153D03*
X463153Y294188D03*
X483153D03*
X563154Y294188D03*
X583154D03*
X663154D03*
X683154D03*
X119447Y294014D03*
X200569D03*
X197200Y290519D03*
X124439Y288897D03*
X194454Y287524D03*
X186303Y285278D03*
X363153Y284211D03*
X383153D03*
X463153Y284188D03*
X483153D03*
X563154Y284188D03*
X583154D03*
X663154D03*
X683154D03*
X119322Y283994D03*
X145906Y283859D03*
X182972Y282906D03*
X180004Y280660D03*
X693154Y279211D03*
X713154D03*
X738154D03*
X760654D03*
X124439Y279037D03*
X176854Y278289D03*
X343154Y275461D03*
X163153Y275037D03*
X263154D03*
X308153D03*
X363153Y274211D03*
X383153D03*
X463153Y274188D03*
X483153D03*
X563154Y274188D03*
X583154D03*
X663154D03*
X683154D03*
X119572Y273994D03*
X145906Y273859D03*
X189403Y270037D03*
X220653D03*
X124564Y268928D03*
X228154Y267961D03*
X263154Y267537D03*
X308153D03*
X343154D03*
X163752Y264211D03*
X363153D03*
X383153D03*
X463153Y264188D03*
X483153D03*
X563154Y264188D03*
X583154D03*
X663154D03*
X683154D03*
X119572Y264028D03*
X145906Y263859D03*
X160882Y261815D03*
X158261Y259568D03*
X124564Y258944D03*
X128558D03*
X138168Y258320D03*
X228154Y255011D03*
X263154Y254887D03*
X308153D03*
X343154D03*
X363153Y254211D03*
X383153D03*
X713154D03*
X738154D03*
X760654D03*
X463153Y254188D03*
X483153D03*
X563154Y254188D03*
X583154D03*
X663154D03*
X683154D03*
X119697Y253994D03*
X145906Y253859D03*
X138293Y249709D03*
X693154Y249211D03*
X131803Y246899D03*
X214256Y245402D03*
X236096D03*
X241463D03*
X246205D03*
X363153Y244211D03*
X383153D03*
X463153Y244188D03*
X483153D03*
X563154Y244188D03*
X583154D03*
X663154D03*
X683154D03*
X119697Y243994D03*
X145906Y243859D03*
X189462Y243344D03*
X735437Y242961D03*
X753154D03*
X217251Y242906D03*
X238842D03*
X243834D03*
X248576D03*
X616904Y241711D03*
X308153Y239161D03*
X343154D03*
X263154Y239037D03*
X212633Y236986D03*
X132052Y236230D03*
X259404Y235885D03*
X363153Y234211D03*
X383153D03*
X463153Y234188D03*
X483153D03*
X563154Y234188D03*
X583154D03*
X663154D03*
X683154D03*
X119572Y233994D03*
X145906Y233859D03*
X199030Y233837D03*
X516654Y231711D03*
X132052Y231113D03*
X212883Y230687D03*
X713154Y229211D03*
X738154D03*
X760654D03*
X256904Y227929D03*
X166124Y227494D03*
X171241D03*
X223034Y225308D03*
X363153Y224211D03*
X383153D03*
X463153Y224188D03*
X483153D03*
X563154Y224188D03*
X583154D03*
X663154D03*
X683154D03*
X119572Y223994D03*
X132052D03*
X418154Y220815D03*
X257063Y220566D03*
X693154Y219211D03*
X130180Y219007D03*
X254692Y218194D03*
X318154D03*
X343154Y216711D03*
X363153Y214211D03*
X383153D03*
X463153Y214188D03*
X483153D03*
X563154Y214188D03*
X583154D03*
X663154D03*
X683154D03*
X119572Y213994D03*
X180004Y212393D03*
X183222Y210021D03*
X130653Y204211D03*
X158154D03*
X203154D03*
X228153D03*
X263154D03*
X308153D03*
X343154D03*
X363153D03*
X383153D03*
X713154D03*
X738154D03*
X760654D03*
X463153Y204188D03*
X483153D03*
X563154Y204188D03*
X583154D03*
X663154D03*
X683154D03*
X119572Y203994D03*
X186303Y200037D03*
X189452Y197541D03*
X192582Y195045D03*
X363153Y194211D03*
X383153D03*
X463153Y194188D03*
X483153D03*
X563154Y194188D03*
X583154D03*
X663154D03*
X683154D03*
X119572Y193994D03*
X195752Y192674D03*
X198901Y190302D03*
X693154Y189211D03*
X211053Y187931D03*
X363153Y184211D03*
X383153D03*
X463153Y184188D03*
X483153D03*
X563154Y184188D03*
X583154D03*
X663154D03*
X683154D03*
X119822Y183994D03*
X213299Y183438D03*
X215670Y180693D03*
X713154Y179211D03*
X738154D03*
X760654D03*
X218042Y177947D03*
X363153Y174211D03*
X383153D03*
X463153Y174188D03*
X483153D03*
X563154Y174188D03*
X583154D03*
X663154D03*
X683154D03*
X119946Y174063D03*
X223034Y170583D03*
X735437Y167961D03*
X753154D03*
X363153Y164211D03*
X383153D03*
X463153Y164188D03*
X483153D03*
X563154Y164188D03*
X583154D03*
X663154D03*
X683154D03*
X120196Y163994D03*
X220538Y159601D03*
X693154Y159211D03*
X363153Y154211D03*
X383153D03*
X713154D03*
X738154D03*
X760654D03*
X463153Y154188D03*
X483153D03*
X563154Y154188D03*
X583154D03*
X663154D03*
X683154D03*
X120071Y153994D03*
X152977Y149211D03*
X178154D03*
X203154D03*
X228154D03*
X253154D03*
X278154D03*
X303154D03*
X393154D03*
X413154D03*
X493154D03*
X513154D03*
X593154D03*
X613154D03*
X363153Y144211D03*
X383153D03*
X463153Y144188D03*
X483153D03*
X563154Y144188D03*
X583154D03*
X663154D03*
X683154D03*
X120196Y143994D03*
X363153Y134211D03*
X383153D03*
X463153Y134188D03*
X483153D03*
X563154Y134188D03*
X583154D03*
X663154D03*
X683154D03*
X120321Y133994D03*
X153352Y129211D03*
X693154D03*
X713154D03*
X738154D03*
X760654D03*
X138375Y129210D03*
X118157Y129085D03*
X178154Y124211D03*
X203154D03*
X228154D03*
X253154D03*
X278154D03*
X303154D03*
X328154D03*
X363153D03*
X383153D03*
X463153Y124188D03*
X483153D03*
X563154Y124188D03*
X583154D03*
X663154D03*
X683154D03*
X118157Y121846D03*
X393154Y119211D03*
X413154D03*
X493154D03*
X513154D03*
X593154D03*
X613154D03*
X148981Y114270D03*
X363153Y114211D03*
X383153D03*
X463153Y114188D03*
X483153D03*
X563154Y114188D03*
X583154D03*
X663154D03*
X683154D03*
X133233Y113443D03*
X118282Y108681D03*
X363153Y104211D03*
X383153D03*
X738154D03*
X760654D03*
X463153Y104188D03*
X483153D03*
X563154Y104188D03*
X583154D03*
X663154D03*
X683154D03*
X153153Y101711D03*
X178154D03*
X203154D03*
X228154D03*
X253154D03*
X278154D03*
X303154D03*
X328154D03*
X128153Y99211D03*
X388154D03*
X408154D03*
X488154D03*
X513154D03*
X588154D03*
X613154D03*
X693154D03*
X713154D03*
X358154Y94211D03*
X433154D03*
X458154D03*
X538154D03*
X558154D03*
X638154D03*
X658154D03*
X735437Y92961D03*
X753154D03*
X738154Y79211D03*
X760654D03*
X228154Y76711D03*
X253154D03*
X278154D03*
X303154D03*
X328154D03*
X358154D03*
X388154D03*
X408154D03*
X433154D03*
X458154D03*
X488154D03*
X513154D03*
X538154D03*
X558154D03*
X588154D03*
X613154D03*
X638154D03*
X658154D03*
X688154D03*
X713154D03*
X128154Y74211D03*
X153154D03*
X178154D03*
X373153Y70451D03*
X473153Y70428D03*
X573154Y70428D03*
X673154D03*
X738154Y66711D03*
X760654D03*
X208154Y59211D03*
X228154D03*
X253154Y57961D03*
X278154D03*
X303154Y54211D03*
X328154D03*
X358154D03*
X388154D03*
X408154D03*
X433154D03*
X458154D03*
X488154D03*
X513154D03*
X538154D03*
X558154D03*
X588154D03*
X613154D03*
X638154D03*
X658154D03*
X688154D03*
X713154D03*
D02*
D10*
X70241Y479742D02*
Y440372D01*
X202165D01*
G75*
G02*
X205807Y436730I0J-3642D01*
G01*
Y436644D01*
G75*
G02*
X201673Y432511I-4134J0D01*
G01*
X174250D01*
G75*
G03*
X167885Y426146I0J-6365D01*
G01*
Y387457D01*
G75*
G02*
X162893Y382465I-4992J0D01*
G01*
X122956D01*
G75*
G03*
X117839Y377348I0J-5117D01*
G01*
Y352886D01*
X75607D01*
G75*
G03*
X70241Y347520I0J-5367D01*
G01*
Y100534D01*
G75*
G03*
X75607Y95168I5367J0D01*
G01*
X117839D01*
Y54753D01*
G75*
G03*
X125098Y47493I7260J0D01*
G01*
X154934D01*
G75*
G02*
X158661Y43765I0J-3728D01*
G01*
Y43569D01*
G75*
G02*
X154713Y39620I-3948J0D01*
G01*
X70241D01*
Y250D01*
X766890D01*
Y39620D01*
X729342D01*
G75*
G02*
X725492Y43470I0J3850D01*
G01*
G75*
G02*
X729516Y47494I4024J0D01*
G01*
X760678D01*
G75*
G03*
X766890Y53706I0J6212D01*
G01*
Y426344D01*
G75*
G03*
X760736Y432498I-6154J0D01*
G01*
X729082D01*
G75*
G02*
X725492Y436088I0J3590D01*
G01*
G75*
G02*
X729776Y440372I3939J344D01*
G01*
X766831D01*
Y479742D01*
X70241D01*
X99926Y25872D02*
X101488Y29622D01*
X103051Y25872D01*
X100551Y27435D02*
X102426D01*
X104926Y25872D02*
X106488Y29622D01*
X108051Y25872D01*
X105551Y27435D02*
X107426D01*
X99926Y465994D02*
X101488Y469744D01*
X103051Y465994D01*
X100551Y467557D02*
X102426D01*
X104926Y465994D02*
X106488Y469744D01*
X108051Y465994D01*
X105551Y467557D02*
X107426D01*
X757146Y25872D02*
X758709Y29622D01*
X760271Y25872D01*
X757771Y27435D02*
X759646D01*
X762146Y25872D02*
X763709Y29622D01*
X765271Y25872D01*
X762771Y27435D02*
X764646D01*
X757146Y465994D02*
X758709Y469744D01*
X760271Y465994D01*
X757771Y467557D02*
X759646D01*
X762146Y465994D02*
X763709Y469744D01*
X765271Y465994D01*
X762771Y467557D02*
X764646D01*
D02*
D95*
X89926Y19935D03*
Y460057D03*
X747146Y19935D03*
Y460057D03*
X0Y0D02*
M02*
